<svg width="712" height="529" viewBox="0 0 712 529" fill="none" xmlns="http://www.w3.org/2000/svg">
<rect y="0.868652" width="712" height="120" rx="16" fill="#1C3A5C"/>
<path d="M31.709 33.7671H37.2559C41.4453 33.7671 43.8672 36.3062 43.8672 40.7202C43.8672 45.3003 41.4746 47.8687 37.2559 47.8687H31.709V33.7671ZM34.6582 36.2866V45.3491H36.7871C39.3945 45.3491 40.8594 43.7476 40.8594 40.769C40.8594 37.9175 39.3457 36.2866 36.7871 36.2866H34.6582ZM52.8125 33.4155C56.9727 33.4155 59.5801 36.2573 59.5801 40.8179C59.5801 45.3882 56.9824 48.23 52.8125 48.23C48.6328 48.23 46.0254 45.3882 46.0254 40.8179C46.0254 36.2476 48.6719 33.4155 52.8125 33.4155ZM52.8125 36.0034C50.5273 36.0034 49.043 37.8687 49.043 40.8179C49.043 43.7573 50.498 45.6421 52.8125 45.6421C55.1074 45.6421 56.5723 43.7573 56.5723 40.8179C56.5723 37.8687 55.1074 36.0034 52.8125 36.0034ZM65.1953 47.8687H62.373V33.7769H64.834L71.3184 42.5562H71.4941V33.7769H74.3164V47.8687H71.875L65.3711 39.0503H65.1953V47.8687ZM80.6934 47.8687H77.7441V33.7769H80.6934V47.8687ZM90.9668 47.8687H88.0176V42.6831L83.1055 33.7769H86.2988L89.4043 39.6753H89.5801L92.6758 33.7769H95.8691L90.9668 42.6831V47.8687ZM103.613 33.4155C107.773 33.4155 110.381 36.2573 110.381 40.8179C110.381 45.3882 107.783 48.23 103.613 48.23C99.4336 48.23 96.8262 45.3882 96.8262 40.8179C96.8262 36.2476 99.4727 33.4155 103.613 33.4155ZM103.613 36.0034C101.328 36.0034 99.8438 37.8687 99.8438 40.8179C99.8438 43.7573 101.299 45.6421 103.613 45.6421C105.908 45.6421 107.373 43.7573 107.373 40.8179C107.373 37.8687 105.908 36.0034 103.613 36.0034ZM116.123 36.1597V40.4956H118.711C120.195 40.4956 121.064 39.6948 121.064 38.3374C121.064 36.9995 120.146 36.1597 118.682 36.1597H116.123ZM116.123 42.7612V47.8687H113.174V33.7769H119.092C122.188 33.7769 124.092 35.4956 124.092 38.2983C124.092 40.0952 123.154 41.6577 121.533 42.3022L124.502 47.8687H121.162L118.535 42.7612H116.123ZM135.166 47.8687H132.217V33.7769H135.166V40.0562H135.342L140.547 33.7769H143.828L138.691 39.9585L144.189 47.8687H140.654L136.562 41.9702L135.166 43.6206V47.8687ZM158.662 47.8687H155.713V41.98H149.365V47.8687H146.416V33.7769H149.365V39.4604H155.713V33.7769H158.662V47.8687ZM171.133 47.8687L170.068 44.5093H165.117L164.033 47.8687H161.074L165.967 33.7769H169.434L174.326 47.8687H171.133ZM167.52 36.7065L165.752 42.2339H169.443L167.695 36.7065H167.52ZM179.678 47.8687H176.729V33.7769H179.678V40.0562H179.854L185.059 33.7769H188.34L183.203 39.9585L188.701 47.8687H185.166L181.074 41.9702L179.678 43.6206V47.8687ZM193.877 47.8687H190.928V33.7769H193.877V47.8687ZM212.217 47.8687H209.482V38.4448H209.326L205.742 47.0581H203.779L200.186 38.4448H200.029V47.8687H197.295V33.7769H200.771L204.668 43.2495H204.844L208.75 33.7769H212.217V47.8687ZM221.797 33.4155C225.957 33.4155 228.564 36.2573 228.564 40.8179C228.564 45.3882 225.967 48.23 221.797 48.23C217.617 48.23 215.01 45.3882 215.01 40.8179C215.01 36.2476 217.656 33.4155 221.797 33.4155ZM221.797 36.0034C219.512 36.0034 218.027 37.8687 218.027 40.8179C218.027 43.7573 219.482 45.6421 221.797 45.6421C224.092 45.6421 225.557 43.7573 225.557 40.8179C225.557 37.8687 224.092 36.0034 221.797 36.0034ZM238.232 47.8687H234.668L229.902 33.7769H233.232L236.436 44.5483H236.611L239.756 33.7769H242.93L238.232 47.8687Z" fill="white"/>
<path opacity="0.7" d="M33.4062 75.8687H31.3906V64.5952H33.4062V69.7827H33.5391L37.9844 64.5952H40.2969L36.0391 69.5093L40.6328 75.8687H38.1719L34.6094 70.8921L33.4062 72.2749V75.8687ZM45.2812 76.0405C42.7188 76.0405 41.1719 74.3687 41.1719 71.5952C41.1719 68.8374 42.7422 67.1499 45.2812 67.1499C47.8281 67.1499 49.3906 68.8296 49.3906 71.5952C49.3906 74.3687 47.8359 76.0405 45.2812 76.0405ZM45.2812 74.4155C46.6328 74.4155 47.3984 73.3843 47.3984 71.5952C47.3984 69.814 46.625 68.7749 45.2812 68.7749C43.9297 68.7749 43.1562 69.814 43.1562 71.5952C43.1562 73.3843 43.9297 74.4155 45.2812 74.4155ZM51.1484 69.7671C51.1484 68.2202 52.5547 67.1499 54.5703 67.1499C56.6016 67.1499 57.875 68.0483 58.0156 69.603H56.1953C56.0547 69.0015 55.4844 68.6187 54.5781 68.6187C53.6953 68.6187 53.0312 69.0405 53.0312 69.6577C53.0312 70.1421 53.4375 70.439 54.2969 70.6343L55.8047 70.978C57.4375 71.3452 58.1953 72.0483 58.1953 73.3062C58.1953 74.9468 56.6875 76.0405 54.5547 76.0405C52.4219 76.0405 51.0781 75.1187 50.9297 73.564H52.8438C53.0312 74.1968 53.6328 74.5718 54.6016 74.5718C55.5781 74.5718 56.2578 74.1421 56.2578 73.5093C56.2578 73.0249 55.8906 72.7202 55.0781 72.5405L53.5625 72.189C51.9219 71.814 51.1484 71.0562 51.1484 69.7671ZM63.8438 76.0405C61.2812 76.0405 59.7344 74.3687 59.7344 71.5952C59.7344 68.8374 61.3047 67.1499 63.8438 67.1499C66.3906 67.1499 67.9531 68.8296 67.9531 71.5952C67.9531 74.3687 66.3984 76.0405 63.8438 76.0405ZM63.8438 74.4155C65.1953 74.4155 65.9609 73.3843 65.9609 71.5952C65.9609 69.814 65.1875 68.7749 63.8438 68.7749C62.4922 68.7749 61.7188 69.814 61.7188 71.5952C61.7188 73.3843 62.4922 74.4155 63.8438 74.4155ZM69.9062 75.8687V67.3218H71.7734V68.689H71.9062C72.3125 67.7358 73.1719 67.1499 74.4453 67.1499C76.3516 67.1499 77.3906 68.2983 77.3906 70.3374V75.8687H75.4531V70.7983C75.4531 69.4937 74.9062 68.8374 73.7266 68.8374C72.5703 68.8374 71.8438 69.6343 71.8438 70.8921V75.8687H69.9062ZM79.4922 69.7671C79.4922 68.2202 80.8984 67.1499 82.9141 67.1499C84.9453 67.1499 86.2188 68.0483 86.3594 69.603H84.5391C84.3984 69.0015 83.8281 68.6187 82.9219 68.6187C82.0391 68.6187 81.375 69.0405 81.375 69.6577C81.375 70.1421 81.7812 70.439 82.6406 70.6343L84.1484 70.978C85.7812 71.3452 86.5391 72.0483 86.5391 73.3062C86.5391 74.9468 85.0312 76.0405 82.8984 76.0405C80.7656 76.0405 79.4219 75.1187 79.2734 73.564H81.1875C81.375 74.1968 81.9766 74.5718 82.9453 74.5718C83.9219 74.5718 84.6016 74.1421 84.6016 73.5093C84.6016 73.0249 84.2344 72.7202 83.4219 72.5405L81.9062 72.189C80.2656 71.814 79.4922 71.0562 79.4922 69.7671ZM92.1875 76.0405C89.625 76.0405 88.0781 74.3687 88.0781 71.5952C88.0781 68.8374 89.6484 67.1499 92.1875 67.1499C94.7344 67.1499 96.2969 68.8296 96.2969 71.5952C96.2969 74.3687 94.7422 76.0405 92.1875 76.0405ZM92.1875 74.4155C93.5391 74.4155 94.3047 73.3843 94.3047 71.5952C94.3047 69.814 93.5312 68.7749 92.1875 68.7749C90.8359 68.7749 90.0625 69.814 90.0625 71.5952C90.0625 73.3843 90.8359 74.4155 92.1875 74.4155ZM98.8438 78.9702C98.7266 78.9702 98.2031 78.9624 98.0781 78.939V77.353C98.1875 77.3765 98.4766 77.3843 98.6094 77.3843C99.4297 77.3843 99.8906 77.0718 100.141 76.2827L100.242 75.9077L97.1875 67.3218H99.3125L101.312 73.9937H101.445L103.438 67.3218H105.484L102.398 76.1421C101.672 78.2671 100.758 78.9702 98.8438 78.9702ZM107.234 75.8687V64.0171H109.172V75.8687H107.234ZM111.648 75.8687V67.3218H113.578V75.8687H111.648ZM112.609 65.9312C111.906 65.9312 111.414 65.478 111.414 64.8608C111.414 64.2437 111.906 63.7905 112.609 63.7905C113.32 63.7905 113.805 64.2437 113.805 64.8608C113.805 65.478 113.32 65.9312 112.609 65.9312ZM118.133 70.8062L121.289 67.3218H123.539L120.133 70.9858L123.773 75.8687H121.43L118.688 72.2046L118 72.8921V75.8687H116.062V64.0171H118V70.8062H118.133ZM134.438 76.1499C131.242 76.1499 129.258 73.8843 129.258 70.2358C129.258 66.5718 131.234 64.314 134.43 64.314C136.992 64.314 138.969 65.9858 139.203 68.3374H137.219C136.938 66.9858 135.852 66.1108 134.43 66.1108C132.516 66.1108 131.32 67.689 131.32 70.228C131.32 72.7749 132.516 74.353 134.438 74.353C135.867 74.353 136.953 73.5562 137.227 72.2905H139.211C138.945 74.5952 137.039 76.1499 134.438 76.1499ZM144.172 74.4858C145.344 74.4858 146.219 73.728 146.219 72.7358V72.0562L144.289 72.1812C143.203 72.2515 142.695 72.6421 142.695 73.3374C142.695 74.0562 143.312 74.4858 144.172 74.4858ZM143.602 76.0093C141.953 76.0093 140.773 75.0093 140.773 73.4468C140.773 71.8999 141.938 71.0093 144.016 70.8843L146.219 70.7515V70.0327C146.219 69.1968 145.656 68.728 144.609 68.728C143.719 68.728 143.109 69.0405 142.93 69.6187H141.102C141.258 68.1108 142.672 67.1499 144.703 67.1499C146.898 67.1499 148.133 68.2202 148.133 70.0327V75.8687H146.266V74.6968H146.133C145.656 75.5249 144.719 76.0093 143.602 76.0093ZM150.469 75.8687V67.3218H152.336V68.7046H152.469C152.836 67.728 153.711 67.1499 154.844 67.1499C156.023 67.1499 156.844 67.7437 157.203 68.7046H157.336C157.758 67.7671 158.742 67.1499 159.93 67.1499C161.641 67.1499 162.672 68.2202 162.672 69.9937V75.8687H160.742V70.4858C160.742 69.3843 160.219 68.8374 159.18 68.8374C158.172 68.8374 157.508 69.5718 157.508 70.5483V75.8687H155.625V70.3452C155.625 69.4077 155.031 68.8374 154.078 68.8374C153.117 68.8374 152.406 69.6265 152.406 70.6733V75.8687H150.469ZM169.719 76.0093C168.523 76.0093 167.531 75.4546 167.047 74.5171H166.914V75.8687H165.047V64.0171H166.984V68.6812H167.117C167.562 67.7515 168.547 67.1812 169.719 67.1812C171.883 67.1812 173.227 68.8608 173.227 71.5952C173.227 74.314 171.875 76.0093 169.719 76.0093ZM169.109 68.8296C167.789 68.8296 166.953 69.8921 166.953 71.5952C166.953 73.2983 167.781 74.3608 169.109 74.3608C170.438 74.3608 171.234 73.314 171.234 71.5952C171.234 69.8765 170.43 68.8296 169.109 68.8296ZM175.172 75.8687V67.3218H177.039V68.6499H177.172C177.406 67.8062 178.328 67.1812 179.43 67.1812C179.711 67.1812 180.055 67.2124 180.234 67.2671V69.064C180.086 69.0093 179.57 68.9546 179.242 68.9546C177.984 68.9546 177.109 69.7358 177.109 70.9312V75.8687H175.172ZM181.852 75.8687V67.3218H183.781V75.8687H181.852ZM182.812 65.9312C182.109 65.9312 181.617 65.478 181.617 64.8608C181.617 64.2437 182.109 63.7905 182.812 63.7905C183.523 63.7905 184.008 64.2437 184.008 64.8608C184.008 65.478 183.523 65.9312 182.812 65.9312ZM189.281 76.0093C187.117 76.0093 185.766 74.3062 185.766 71.5874C185.766 68.8843 187.125 67.1812 189.281 67.1812C190.453 67.1812 191.422 67.7437 191.875 68.6812H192.008V64.0171H193.945V75.8687H192.07V74.5171H191.938C191.453 75.4546 190.469 76.0093 189.281 76.0093ZM189.883 68.8296C188.562 68.8296 187.75 69.8765 187.75 71.5952C187.75 73.3218 188.555 74.3608 189.883 74.3608C191.219 74.3608 192.031 73.314 192.031 71.5952C192.031 69.8921 191.211 68.8296 189.883 68.8296ZM200.062 74.1655C201.414 74.1655 202.227 73.1343 202.227 71.5015C202.227 69.8687 201.406 68.8296 200.062 68.8296C198.711 68.8296 197.945 69.8687 197.945 71.5015C197.945 73.1343 198.711 74.1655 200.062 74.1655ZM200.062 79.1187C197.867 79.1187 196.43 78.1499 196.273 76.6812H198.219C198.344 77.2671 199.031 77.6421 200.094 77.6421C201.422 77.6421 202.195 77.0171 202.195 75.9468V74.3296H202.062C201.57 75.2437 200.641 75.7437 199.453 75.7437C197.297 75.7437 195.953 74.0718 195.953 71.5015C195.953 68.8843 197.305 67.1812 199.484 67.1812C200.648 67.1812 201.664 67.7593 202.133 68.689H202.266V67.3218H204.133V75.8999C204.133 77.8765 202.555 79.1187 200.062 79.1187ZM210.102 68.689C208.945 68.689 208.133 69.5171 208.047 70.7671H212.07C212.031 69.5015 211.266 68.689 210.102 68.689ZM212.086 73.5171H213.922C213.555 75.0718 212.141 76.0405 210.125 76.0405C207.609 76.0405 206.094 74.3765 206.094 71.6265C206.094 68.8765 207.633 67.1499 210.109 67.1499C212.547 67.1499 214.008 68.7671 214.008 71.4624V72.0874H208.039V72.189C208.086 73.6108 208.906 74.5015 210.18 74.5015C211.141 74.5015 211.805 74.1499 212.086 73.5171ZM219.727 75.8687L223.414 70.189L219.758 64.5952H222.141L224.711 68.7358H224.844L227.453 64.5952H229.719L225.938 70.2358L229.656 75.8687H227.328L224.711 71.8218H224.578L221.922 75.8687H219.727ZM234.234 74.4858C235.406 74.4858 236.281 73.728 236.281 72.7358V72.0562L234.352 72.1812C233.266 72.2515 232.758 72.6421 232.758 73.3374C232.758 74.0562 233.375 74.4858 234.234 74.4858ZM233.664 76.0093C232.016 76.0093 230.836 75.0093 230.836 73.4468C230.836 71.8999 232 71.0093 234.078 70.8843L236.281 70.7515V70.0327C236.281 69.1968 235.719 68.728 234.672 68.728C233.781 68.728 233.172 69.0405 232.992 69.6187H231.164C231.32 68.1108 232.734 67.1499 234.766 67.1499C236.961 67.1499 238.195 68.2202 238.195 70.0327V75.8687H236.328V74.6968H236.195C235.719 75.5249 234.781 76.0093 233.664 76.0093ZM240.609 75.8687V64.0171H242.547V75.8687H240.609ZM248.102 67.1812C249.258 67.1812 250.273 67.7827 250.742 68.7358H250.875V67.3218H252.758V78.7124H250.805V74.5718H250.672C250.18 75.4858 249.281 76.0093 248.07 76.0093C245.914 76.0093 244.578 74.3062 244.578 71.5874C244.578 68.8921 245.945 67.1812 248.102 67.1812ZM248.68 74.3608C250.016 74.3608 250.844 73.3062 250.844 71.5952C250.844 69.8921 250.008 68.8296 248.688 68.8296C247.359 68.8296 246.562 69.8687 246.562 71.5952C246.562 73.3296 247.352 74.3608 248.68 74.3608ZM258.047 74.4858C259.219 74.4858 260.094 73.728 260.094 72.7358V72.0562L258.164 72.1812C257.078 72.2515 256.57 72.6421 256.57 73.3374C256.57 74.0562 257.188 74.4858 258.047 74.4858ZM257.477 76.0093C255.828 76.0093 254.648 75.0093 254.648 73.4468C254.648 71.8999 255.812 71.0093 257.891 70.8843L260.094 70.7515V70.0327C260.094 69.1968 259.531 68.728 258.484 68.728C257.594 68.728 256.984 69.0405 256.805 69.6187H254.977C255.133 68.1108 256.547 67.1499 258.578 67.1499C260.773 67.1499 262.008 68.2202 262.008 70.0327V75.8687H260.141V74.6968H260.008C259.531 75.5249 258.594 76.0093 257.477 76.0093ZM264.344 75.8687V67.3218H266.211V68.6499H266.344C266.578 67.8062 267.5 67.1812 268.602 67.1812C268.883 67.1812 269.227 67.2124 269.406 67.2671V69.064C269.258 69.0093 268.742 68.9546 268.414 68.9546C267.156 68.9546 266.281 69.7358 266.281 70.9312V75.8687H264.344ZM274.469 76.0405C271.906 76.0405 270.359 74.3687 270.359 71.5952C270.359 68.8374 271.93 67.1499 274.469 67.1499C277.016 67.1499 278.578 68.8296 278.578 71.5952C278.578 74.3687 277.023 76.0405 274.469 76.0405ZM274.469 74.4155C275.82 74.4155 276.586 73.3843 276.586 71.5952C276.586 69.814 275.812 68.7749 274.469 68.7749C273.117 68.7749 272.344 69.814 272.344 71.5952C272.344 73.3843 273.117 74.4155 274.469 74.4155ZM289.867 64.314C293.141 64.314 295.188 66.5874 295.188 70.228C295.188 73.8608 293.156 76.1499 289.867 76.1499C286.555 76.1499 284.523 73.8687 284.523 70.228C284.523 66.5874 286.594 64.314 289.867 64.314ZM289.867 66.103C287.859 66.103 286.586 67.7046 286.586 70.228C286.586 72.7437 287.828 74.3608 289.867 74.3608C291.875 74.3608 293.125 72.7437 293.125 70.228C293.125 67.7046 291.867 66.103 289.867 66.103ZM298.742 69.1655H297.383L298.109 64.5952H300.094L298.742 69.1655ZM304.43 67.1812C305.586 67.1812 306.602 67.7827 307.07 68.7358H307.203V67.3218H309.086V78.7124H307.133V74.5718H307C306.508 75.4858 305.609 76.0093 304.398 76.0093C302.242 76.0093 300.906 74.3062 300.906 71.5874C300.906 68.8921 302.273 67.1812 304.43 67.1812ZM305.008 74.3608C306.344 74.3608 307.172 73.3062 307.172 71.5952C307.172 69.8921 306.336 68.8296 305.016 68.8296C303.688 68.8296 302.891 69.8687 302.891 71.5952C302.891 73.3296 303.68 74.3608 305.008 74.3608ZM311.477 75.8687V67.3218H313.406V75.8687H311.477ZM312.438 65.9312C311.734 65.9312 311.242 65.478 311.242 64.8608C311.242 64.2437 311.734 63.7905 312.438 63.7905C313.148 63.7905 313.633 64.2437 313.633 64.8608C313.633 65.478 313.148 65.9312 312.438 65.9312ZM316.43 65.228H318.359V67.3765H320.188V68.9233H318.359V73.1187C318.359 73.9624 318.719 74.3374 319.531 74.3374C319.805 74.3374 319.953 74.3218 320.188 74.2983V75.814C319.906 75.8687 319.547 75.9077 319.172 75.9077C317.211 75.9077 316.43 75.2437 316.43 73.5874V68.9233H315.078V67.3765H316.43V65.228ZM329.562 67.3218V75.8687H327.695V74.5093H327.562C327.148 75.4858 326.312 76.0405 325.008 76.0405C323.141 76.0405 322.047 74.8765 322.047 72.8765V67.3218H323.984V72.3921C323.984 73.6968 324.523 74.3374 325.68 74.3374C326.938 74.3374 327.625 73.564 327.625 72.2983V67.3218H329.562ZM339.391 67.3218L336.367 75.8687H334.234L331.195 67.3218H333.273L335.25 73.9312H335.383L337.344 67.3218H339.391ZM348.07 70.1968H346.227C346.047 69.3687 345.406 68.7749 344.344 68.7749C343.016 68.7749 342.227 69.7983 342.227 71.5718C342.227 73.3687 343.023 74.4155 344.344 74.4155C345.352 74.4155 346.023 73.939 346.227 73.0483H348.07C347.859 74.8374 346.516 76.0405 344.352 76.0405C341.781 76.0405 340.266 74.3843 340.266 71.5718C340.266 68.7983 341.773 67.1499 344.344 67.1499C346.539 67.1499 347.867 68.3999 348.07 70.1968ZM350 75.8687V64.0171H351.906V68.7046H352.047C352.453 67.7437 353.367 67.1655 354.641 67.1655C356.469 67.1655 357.578 68.3218 357.578 70.353V75.8687H355.641V70.814C355.641 69.5171 355.047 68.853 353.922 68.853C352.648 68.853 351.938 69.6812 351.938 70.9077V75.8687H350ZM359.898 75.8687V67.3218H361.828V75.8687H359.898ZM360.859 65.9312C360.156 65.9312 359.664 65.478 359.664 64.8608C359.664 64.2437 360.156 63.7905 360.859 63.7905C361.57 63.7905 362.055 64.2437 362.055 64.8608C362.055 65.478 361.57 65.9312 360.859 65.9312ZM364.039 69.7671C364.039 68.2202 365.445 67.1499 367.461 67.1499C369.492 67.1499 370.766 68.0483 370.906 69.603H369.086C368.945 69.0015 368.375 68.6187 367.469 68.6187C366.586 68.6187 365.922 69.0405 365.922 69.6577C365.922 70.1421 366.328 70.439 367.188 70.6343L368.695 70.978C370.328 71.3452 371.086 72.0483 371.086 73.3062C371.086 74.9468 369.578 76.0405 367.445 76.0405C365.312 76.0405 363.969 75.1187 363.82 73.564H365.734C365.922 74.1968 366.523 74.5718 367.492 74.5718C368.469 74.5718 369.148 74.1421 369.148 73.5093C369.148 73.0249 368.781 72.7202 367.969 72.5405L366.453 72.189C364.812 71.814 364.039 71.0562 364.039 69.7671ZM373.07 75.8687V67.3218H375V75.8687H373.07ZM374.031 65.9312C373.328 65.9312 372.836 65.478 372.836 64.8608C372.836 64.2437 373.328 63.7905 374.031 63.7905C374.742 63.7905 375.227 64.2437 375.227 64.8608C375.227 65.478 374.742 65.9312 374.031 65.9312Z" fill="white"/>
<circle cx="665" cy="60.8392" r="11.5" transform="rotate(45 665 60.8392)" fill="#304E73" stroke="#F0F7FF"/>
<path d="M659.781 61.506L659.781 60.1727L668.333 60.1727L666.172 58.011L667.114 57.0682L670.886 60.8394L667.114 64.6107L666.172 63.6679L668.333 61.506L659.781 61.506Z" fill="white"/>
<rect y="136.869" width="712" height="120" rx="16" fill="#EDF1F6"/>
<path d="M40.7617 183.869L39.6973 180.509H34.7461L33.6621 183.869H30.7031L35.5957 169.777H39.0625L43.9551 183.869H40.7617ZM37.1484 172.707L35.3809 178.234H39.0723L37.3242 172.707H37.1484ZM52.6855 183.869H46.3574V169.777H52.5195C55.2539 169.777 56.8848 171.115 56.8848 173.292C56.8848 174.787 55.7812 176.085 54.3359 176.3V176.476C56.2012 176.613 57.5586 178.019 57.5586 179.835C57.5586 182.306 55.6934 183.869 52.6855 183.869ZM49.3066 172.033V175.617H51.5234C53.1152 175.617 53.9844 174.962 53.9844 173.83C53.9844 172.707 53.1738 172.033 51.7676 172.033H49.3066ZM49.3066 181.613H51.9336C53.6328 181.613 54.5508 180.9 54.5508 179.582C54.5508 178.292 53.6035 177.609 51.8652 177.609H49.3066V181.613ZM60.2246 169.767H65.7715C69.9609 169.767 72.3828 172.306 72.3828 176.72C72.3828 181.3 69.9902 183.869 65.7715 183.869H60.2246V169.767ZM63.1738 172.287V181.349H65.3027C67.9102 181.349 69.375 179.748 69.375 176.769C69.375 173.917 67.8613 172.287 65.3027 172.287H63.1738ZM78.1445 169.777V178.703C78.1445 180.48 79.209 181.613 81.0938 181.613C82.9883 181.613 84.0527 180.48 84.0527 178.703V169.777H87.002V179.005C87.002 182.13 84.707 184.23 81.0938 184.23C77.4902 184.23 75.1953 182.13 75.1953 179.005V169.777H78.1445ZM102.822 178.117C102.822 181.886 100.42 184.23 96.5723 184.23C92.3828 184.23 89.8145 181.417 89.8145 176.808C89.8145 172.267 92.4023 169.416 96.5039 169.416C99.834 169.416 102.285 171.339 102.695 174.269H99.7656C99.3262 172.843 98.1445 172.013 96.5039 172.013C94.2285 172.013 92.832 173.82 92.832 176.779C92.832 179.796 94.2969 181.632 96.6211 181.632C98.5547 181.632 99.8926 180.49 99.9512 178.791L99.9609 178.537H96.9043V176.32H102.822V178.117ZM107.412 175.744H105.439L106.357 169.777H109.17L107.412 175.744ZM118.828 183.869L117.764 180.509H112.812L111.729 183.869H108.77L113.662 169.777H117.129L122.021 183.869H118.828ZM115.215 172.707L113.447 178.234H117.139L115.391 172.707H115.215ZM127.246 183.869H124.424V169.777H126.885L133.369 178.556H133.545V169.777H136.367V183.869H133.926L127.422 175.05H127.246V183.869ZM142.744 183.869H139.795V169.777H142.744V183.869ZM160.371 183.869L159.307 180.509H154.355L153.271 183.869H150.312L155.205 169.777H158.672L163.564 183.869H160.371ZM156.758 172.707L154.99 178.234H158.682L156.934 172.707H156.758ZM172.295 183.869H165.967V169.777H172.129C174.863 169.777 176.494 171.115 176.494 173.292C176.494 174.787 175.391 176.085 173.945 176.3V176.476C175.811 176.613 177.168 178.019 177.168 179.835C177.168 182.306 175.303 183.869 172.295 183.869ZM168.916 172.033V175.617H171.133C172.725 175.617 173.594 174.962 173.594 173.83C173.594 172.707 172.783 172.033 171.377 172.033H168.916ZM168.916 181.613H171.543C173.242 181.613 174.16 180.9 174.16 179.582C174.16 178.292 173.213 177.609 171.475 177.609H168.916V181.613ZM179.834 169.767H185.381C189.57 169.767 191.992 172.306 191.992 176.72C191.992 181.3 189.6 183.869 185.381 183.869H179.834V169.767ZM182.783 172.287V181.349H184.912C187.52 181.349 188.984 179.748 188.984 176.769C188.984 173.917 187.471 172.287 184.912 172.287H182.783ZM197.754 169.777V178.703C197.754 180.48 198.818 181.613 200.703 181.613C202.598 181.613 203.662 180.48 203.662 178.703V169.777H206.611V179.005C206.611 182.13 204.316 184.23 200.703 184.23C197.1 184.23 194.805 182.13 194.805 179.005V169.777H197.754ZM216.211 169.416C220.371 169.416 222.979 172.257 222.979 176.818C222.979 181.388 220.381 184.23 216.211 184.23C212.031 184.23 209.424 181.388 209.424 176.818C209.424 172.248 212.07 169.416 216.211 169.416ZM216.211 172.003C213.926 172.003 212.441 173.869 212.441 176.818C212.441 179.757 213.896 181.642 216.211 181.642C218.506 181.642 219.971 179.757 219.971 176.818C219.971 173.869 218.506 172.003 216.211 172.003ZM234.99 181.3V183.869H225.771V169.777H228.721V181.3H234.99ZM240.615 183.869H237.666V169.777H240.615V183.869ZM258.955 183.869H256.221V174.445H256.064L252.48 183.058H250.518L246.924 174.445H246.768V183.869H244.033V169.777H247.51L251.406 179.25H251.582L255.488 169.777H258.955V183.869ZM268.535 169.416C272.695 169.416 275.303 172.257 275.303 176.818C275.303 181.388 272.705 184.23 268.535 184.23C264.355 184.23 261.748 181.388 261.748 176.818C261.748 172.248 264.395 169.416 268.535 169.416ZM268.535 172.003C266.25 172.003 264.766 173.869 264.766 176.818C264.766 179.757 266.221 181.642 268.535 181.642C270.83 181.642 272.295 179.757 272.295 176.818C272.295 173.869 270.83 172.003 268.535 172.003ZM284.971 183.869H281.406L276.641 169.777H279.971L283.174 180.548H283.35L286.494 169.777H289.668L284.971 183.869Z" fill="#1C395C"/>
<path opacity="0.7" d="M33.4062 211.869H31.3906V200.595H33.4062V205.783H33.5391L37.9844 200.595H40.2969L36.0391 205.509L40.6328 211.869H38.1719L34.6094 206.892L33.4062 208.275V211.869ZM45.2812 212.041C42.7188 212.041 41.1719 210.369 41.1719 207.595C41.1719 204.837 42.7422 203.15 45.2812 203.15C47.8281 203.15 49.3906 204.83 49.3906 207.595C49.3906 210.369 47.8359 212.041 45.2812 212.041ZM45.2812 210.416C46.6328 210.416 47.3984 209.384 47.3984 207.595C47.3984 205.814 46.625 204.775 45.2812 204.775C43.9297 204.775 43.1562 205.814 43.1562 207.595C43.1562 209.384 43.9297 210.416 45.2812 210.416ZM51.1484 205.767C51.1484 204.22 52.5547 203.15 54.5703 203.15C56.6016 203.15 57.875 204.048 58.0156 205.603H56.1953C56.0547 205.001 55.4844 204.619 54.5781 204.619C53.6953 204.619 53.0312 205.041 53.0312 205.658C53.0312 206.142 53.4375 206.439 54.2969 206.634L55.8047 206.978C57.4375 207.345 58.1953 208.048 58.1953 209.306C58.1953 210.947 56.6875 212.041 54.5547 212.041C52.4219 212.041 51.0781 211.119 50.9297 209.564H52.8438C53.0312 210.197 53.6328 210.572 54.6016 210.572C55.5781 210.572 56.2578 210.142 56.2578 209.509C56.2578 209.025 55.8906 208.72 55.0781 208.541L53.5625 208.189C51.9219 207.814 51.1484 207.056 51.1484 205.767ZM63.8438 212.041C61.2812 212.041 59.7344 210.369 59.7344 207.595C59.7344 204.837 61.3047 203.15 63.8438 203.15C66.3906 203.15 67.9531 204.83 67.9531 207.595C67.9531 210.369 66.3984 212.041 63.8438 212.041ZM63.8438 210.416C65.1953 210.416 65.9609 209.384 65.9609 207.595C65.9609 205.814 65.1875 204.775 63.8438 204.775C62.4922 204.775 61.7188 205.814 61.7188 207.595C61.7188 209.384 62.4922 210.416 63.8438 210.416ZM69.9062 211.869V203.322H71.7734V204.689H71.9062C72.3125 203.736 73.1719 203.15 74.4453 203.15C76.3516 203.15 77.3906 204.298 77.3906 206.337V211.869H75.4531V206.798C75.4531 205.494 74.9062 204.837 73.7266 204.837C72.5703 204.837 71.8438 205.634 71.8438 206.892V211.869H69.9062ZM79.4922 205.767C79.4922 204.22 80.8984 203.15 82.9141 203.15C84.9453 203.15 86.2188 204.048 86.3594 205.603H84.5391C84.3984 205.001 83.8281 204.619 82.9219 204.619C82.0391 204.619 81.375 205.041 81.375 205.658C81.375 206.142 81.7812 206.439 82.6406 206.634L84.1484 206.978C85.7812 207.345 86.5391 208.048 86.5391 209.306C86.5391 210.947 85.0312 212.041 82.8984 212.041C80.7656 212.041 79.4219 211.119 79.2734 209.564H81.1875C81.375 210.197 81.9766 210.572 82.9453 210.572C83.9219 210.572 84.6016 210.142 84.6016 209.509C84.6016 209.025 84.2344 208.72 83.4219 208.541L81.9062 208.189C80.2656 207.814 79.4922 207.056 79.4922 205.767ZM92.1875 212.041C89.625 212.041 88.0781 210.369 88.0781 207.595C88.0781 204.837 89.6484 203.15 92.1875 203.15C94.7344 203.15 96.2969 204.83 96.2969 207.595C96.2969 210.369 94.7422 212.041 92.1875 212.041ZM92.1875 210.416C93.5391 210.416 94.3047 209.384 94.3047 207.595C94.3047 205.814 93.5312 204.775 92.1875 204.775C90.8359 204.775 90.0625 205.814 90.0625 207.595C90.0625 209.384 90.8359 210.416 92.1875 210.416ZM98.8438 214.97C98.7266 214.97 98.2031 214.962 98.0781 214.939V213.353C98.1875 213.376 98.4766 213.384 98.6094 213.384C99.4297 213.384 99.8906 213.072 100.141 212.283L100.242 211.908L97.1875 203.322H99.3125L101.312 209.994H101.445L103.438 203.322H105.484L102.398 212.142C101.672 214.267 100.758 214.97 98.8438 214.97ZM107.234 211.869V200.017H109.172V211.869H107.234ZM111.648 211.869V203.322H113.578V211.869H111.648ZM112.609 201.931C111.906 201.931 111.414 201.478 111.414 200.861C111.414 200.244 111.906 199.791 112.609 199.791C113.32 199.791 113.805 200.244 113.805 200.861C113.805 201.478 113.32 201.931 112.609 201.931ZM118.133 206.806L121.289 203.322H123.539L120.133 206.986L123.773 211.869H121.43L118.688 208.205L118 208.892V211.869H116.062V200.017H118V206.806H118.133ZM134.438 212.15C131.242 212.15 129.258 209.884 129.258 206.236C129.258 202.572 131.234 200.314 134.43 200.314C136.992 200.314 138.969 201.986 139.203 204.337H137.219C136.938 202.986 135.852 202.111 134.43 202.111C132.516 202.111 131.32 203.689 131.32 206.228C131.32 208.775 132.516 210.353 134.438 210.353C135.867 210.353 136.953 209.556 137.227 208.291H139.211C138.945 210.595 137.039 212.15 134.438 212.15ZM144.172 210.486C145.344 210.486 146.219 209.728 146.219 208.736V208.056L144.289 208.181C143.203 208.251 142.695 208.642 142.695 209.337C142.695 210.056 143.312 210.486 144.172 210.486ZM143.602 212.009C141.953 212.009 140.773 211.009 140.773 209.447C140.773 207.9 141.938 207.009 144.016 206.884L146.219 206.751V206.033C146.219 205.197 145.656 204.728 144.609 204.728C143.719 204.728 143.109 205.041 142.93 205.619H141.102C141.258 204.111 142.672 203.15 144.703 203.15C146.898 203.15 148.133 204.22 148.133 206.033V211.869H146.266V210.697H146.133C145.656 211.525 144.719 212.009 143.602 212.009ZM150.469 211.869V203.322H152.336V204.705H152.469C152.836 203.728 153.711 203.15 154.844 203.15C156.023 203.15 156.844 203.744 157.203 204.705H157.336C157.758 203.767 158.742 203.15 159.93 203.15C161.641 203.15 162.672 204.22 162.672 205.994V211.869H160.742V206.486C160.742 205.384 160.219 204.837 159.18 204.837C158.172 204.837 157.508 205.572 157.508 206.548V211.869H155.625V206.345C155.625 205.408 155.031 204.837 154.078 204.837C153.117 204.837 152.406 205.626 152.406 206.673V211.869H150.469ZM169.719 212.009C168.523 212.009 167.531 211.455 167.047 210.517H166.914V211.869H165.047V200.017H166.984V204.681H167.117C167.562 203.751 168.547 203.181 169.719 203.181C171.883 203.181 173.227 204.861 173.227 207.595C173.227 210.314 171.875 212.009 169.719 212.009ZM169.109 204.83C167.789 204.83 166.953 205.892 166.953 207.595C166.953 209.298 167.781 210.361 169.109 210.361C170.438 210.361 171.234 209.314 171.234 207.595C171.234 205.876 170.43 204.83 169.109 204.83ZM175.172 211.869V203.322H177.039V204.65H177.172C177.406 203.806 178.328 203.181 179.43 203.181C179.711 203.181 180.055 203.212 180.234 203.267V205.064C180.086 205.009 179.57 204.955 179.242 204.955C177.984 204.955 177.109 205.736 177.109 206.931V211.869H175.172ZM181.852 211.869V203.322H183.781V211.869H181.852ZM182.812 201.931C182.109 201.931 181.617 201.478 181.617 200.861C181.617 200.244 182.109 199.791 182.812 199.791C183.523 199.791 184.008 200.244 184.008 200.861C184.008 201.478 183.523 201.931 182.812 201.931ZM189.281 212.009C187.117 212.009 185.766 210.306 185.766 207.587C185.766 204.884 187.125 203.181 189.281 203.181C190.453 203.181 191.422 203.744 191.875 204.681H192.008V200.017H193.945V211.869H192.07V210.517H191.938C191.453 211.455 190.469 212.009 189.281 212.009ZM189.883 204.83C188.562 204.83 187.75 205.876 187.75 207.595C187.75 209.322 188.555 210.361 189.883 210.361C191.219 210.361 192.031 209.314 192.031 207.595C192.031 205.892 191.211 204.83 189.883 204.83ZM200.062 210.166C201.414 210.166 202.227 209.134 202.227 207.501C202.227 205.869 201.406 204.83 200.062 204.83C198.711 204.83 197.945 205.869 197.945 207.501C197.945 209.134 198.711 210.166 200.062 210.166ZM200.062 215.119C197.867 215.119 196.43 214.15 196.273 212.681H198.219C198.344 213.267 199.031 213.642 200.094 213.642C201.422 213.642 202.195 213.017 202.195 211.947V210.33H202.062C201.57 211.244 200.641 211.744 199.453 211.744C197.297 211.744 195.953 210.072 195.953 207.501C195.953 204.884 197.305 203.181 199.484 203.181C200.648 203.181 201.664 203.759 202.133 204.689H202.266V203.322H204.133V211.9C204.133 213.876 202.555 215.119 200.062 215.119ZM210.102 204.689C208.945 204.689 208.133 205.517 208.047 206.767H212.07C212.031 205.501 211.266 204.689 210.102 204.689ZM212.086 209.517H213.922C213.555 211.072 212.141 212.041 210.125 212.041C207.609 212.041 206.094 210.376 206.094 207.626C206.094 204.876 207.633 203.15 210.109 203.15C212.547 203.15 214.008 204.767 214.008 207.462V208.087H208.039V208.189C208.086 209.611 208.906 210.501 210.18 210.501C211.141 210.501 211.805 210.15 212.086 209.517ZM219.727 211.869L223.414 206.189L219.758 200.595H222.141L224.711 204.736H224.844L227.453 200.595H229.719L225.938 206.236L229.656 211.869H227.328L224.711 207.822H224.578L221.922 211.869H219.727ZM234.234 210.486C235.406 210.486 236.281 209.728 236.281 208.736V208.056L234.352 208.181C233.266 208.251 232.758 208.642 232.758 209.337C232.758 210.056 233.375 210.486 234.234 210.486ZM233.664 212.009C232.016 212.009 230.836 211.009 230.836 209.447C230.836 207.9 232 207.009 234.078 206.884L236.281 206.751V206.033C236.281 205.197 235.719 204.728 234.672 204.728C233.781 204.728 233.172 205.041 232.992 205.619H231.164C231.32 204.111 232.734 203.15 234.766 203.15C236.961 203.15 238.195 204.22 238.195 206.033V211.869H236.328V210.697H236.195C235.719 211.525 234.781 212.009 233.664 212.009ZM240.609 211.869V200.017H242.547V211.869H240.609ZM248.102 203.181C249.258 203.181 250.273 203.783 250.742 204.736H250.875V203.322H252.758V214.712H250.805V210.572H250.672C250.18 211.486 249.281 212.009 248.07 212.009C245.914 212.009 244.578 210.306 244.578 207.587C244.578 204.892 245.945 203.181 248.102 203.181ZM248.68 210.361C250.016 210.361 250.844 209.306 250.844 207.595C250.844 205.892 250.008 204.83 248.688 204.83C247.359 204.83 246.562 205.869 246.562 207.595C246.562 209.33 247.352 210.361 248.68 210.361ZM258.047 210.486C259.219 210.486 260.094 209.728 260.094 208.736V208.056L258.164 208.181C257.078 208.251 256.57 208.642 256.57 209.337C256.57 210.056 257.188 210.486 258.047 210.486ZM257.477 212.009C255.828 212.009 254.648 211.009 254.648 209.447C254.648 207.9 255.812 207.009 257.891 206.884L260.094 206.751V206.033C260.094 205.197 259.531 204.728 258.484 204.728C257.594 204.728 256.984 205.041 256.805 205.619H254.977C255.133 204.111 256.547 203.15 258.578 203.15C260.773 203.15 262.008 204.22 262.008 206.033V211.869H260.141V210.697H260.008C259.531 211.525 258.594 212.009 257.477 212.009ZM264.344 211.869V203.322H266.211V204.65H266.344C266.578 203.806 267.5 203.181 268.602 203.181C268.883 203.181 269.227 203.212 269.406 203.267V205.064C269.258 205.009 268.742 204.955 268.414 204.955C267.156 204.955 266.281 205.736 266.281 206.931V211.869H264.344ZM274.469 212.041C271.906 212.041 270.359 210.369 270.359 207.595C270.359 204.837 271.93 203.15 274.469 203.15C277.016 203.15 278.578 204.83 278.578 207.595C278.578 210.369 277.023 212.041 274.469 212.041ZM274.469 210.416C275.82 210.416 276.586 209.384 276.586 207.595C276.586 205.814 275.812 204.775 274.469 204.775C273.117 204.775 272.344 205.814 272.344 207.595C272.344 209.384 273.117 210.416 274.469 210.416ZM289.867 200.314C293.141 200.314 295.188 202.587 295.188 206.228C295.188 209.861 293.156 212.15 289.867 212.15C286.555 212.15 284.523 209.869 284.523 206.228C284.523 202.587 286.594 200.314 289.867 200.314ZM289.867 202.103C287.859 202.103 286.586 203.705 286.586 206.228C286.586 208.744 287.828 210.361 289.867 210.361C291.875 210.361 293.125 208.744 293.125 206.228C293.125 203.705 291.867 202.103 289.867 202.103ZM298.742 205.166H297.383L298.109 200.595H300.094L298.742 205.166ZM304.43 203.181C305.586 203.181 306.602 203.783 307.07 204.736H307.203V203.322H309.086V214.712H307.133V210.572H307C306.508 211.486 305.609 212.009 304.398 212.009C302.242 212.009 300.906 210.306 300.906 207.587C300.906 204.892 302.273 203.181 304.43 203.181ZM305.008 210.361C306.344 210.361 307.172 209.306 307.172 207.595C307.172 205.892 306.336 204.83 305.016 204.83C303.688 204.83 302.891 205.869 302.891 207.595C302.891 209.33 303.68 210.361 305.008 210.361ZM311.477 211.869V203.322H313.406V211.869H311.477ZM312.438 201.931C311.734 201.931 311.242 201.478 311.242 200.861C311.242 200.244 311.734 199.791 312.438 199.791C313.148 199.791 313.633 200.244 313.633 200.861C313.633 201.478 313.148 201.931 312.438 201.931ZM316.43 201.228H318.359V203.376H320.188V204.923H318.359V209.119C318.359 209.962 318.719 210.337 319.531 210.337C319.805 210.337 319.953 210.322 320.188 210.298V211.814C319.906 211.869 319.547 211.908 319.172 211.908C317.211 211.908 316.43 211.244 316.43 209.587V204.923H315.078V203.376H316.43V201.228ZM329.562 203.322V211.869H327.695V210.509H327.562C327.148 211.486 326.312 212.041 325.008 212.041C323.141 212.041 322.047 210.876 322.047 208.876V203.322H323.984V208.392C323.984 209.697 324.523 210.337 325.68 210.337C326.938 210.337 327.625 209.564 327.625 208.298V203.322H329.562ZM339.391 203.322L336.367 211.869H334.234L331.195 203.322H333.273L335.25 209.931H335.383L337.344 203.322H339.391ZM348.07 206.197H346.227C346.047 205.369 345.406 204.775 344.344 204.775C343.016 204.775 342.227 205.798 342.227 207.572C342.227 209.369 343.023 210.416 344.344 210.416C345.352 210.416 346.023 209.939 346.227 209.048H348.07C347.859 210.837 346.516 212.041 344.352 212.041C341.781 212.041 340.266 210.384 340.266 207.572C340.266 204.798 341.773 203.15 344.344 203.15C346.539 203.15 347.867 204.4 348.07 206.197ZM350 211.869V200.017H351.906V204.705H352.047C352.453 203.744 353.367 203.166 354.641 203.166C356.469 203.166 357.578 204.322 357.578 206.353V211.869H355.641V206.814C355.641 205.517 355.047 204.853 353.922 204.853C352.648 204.853 351.938 205.681 351.938 206.908V211.869H350ZM359.898 211.869V203.322H361.828V211.869H359.898ZM360.859 201.931C360.156 201.931 359.664 201.478 359.664 200.861C359.664 200.244 360.156 199.791 360.859 199.791C361.57 199.791 362.055 200.244 362.055 200.861C362.055 201.478 361.57 201.931 360.859 201.931ZM364.039 205.767C364.039 204.22 365.445 203.15 367.461 203.15C369.492 203.15 370.766 204.048 370.906 205.603H369.086C368.945 205.001 368.375 204.619 367.469 204.619C366.586 204.619 365.922 205.041 365.922 205.658C365.922 206.142 366.328 206.439 367.188 206.634L368.695 206.978C370.328 207.345 371.086 208.048 371.086 209.306C371.086 210.947 369.578 212.041 367.445 212.041C365.312 212.041 363.969 211.119 363.82 209.564H365.734C365.922 210.197 366.523 210.572 367.492 210.572C368.469 210.572 369.148 210.142 369.148 209.509C369.148 209.025 368.781 208.72 367.969 208.541L366.453 208.189C364.812 207.814 364.039 207.056 364.039 205.767ZM373.07 211.869V203.322H375V211.869H373.07ZM374.031 201.931C373.328 201.931 372.836 201.478 372.836 200.861C372.836 200.244 373.328 199.791 374.031 199.791C374.742 199.791 375.227 200.244 375.227 200.861C375.227 201.478 374.742 201.931 374.031 201.931Z" fill="#1C395C"/>
<circle cx="665" cy="196.839" r="11.5" transform="rotate(45 665 196.839)" fill="#304E73" stroke="#F0F7FF"/>
<path d="M659.781 197.506L659.781 196.173L668.333 196.173L666.172 194.011L667.114 193.068L670.886 196.839L667.114 200.611L666.172 199.668L668.333 197.506L659.781 197.506Z" fill="white"/>
<rect y="272.869" width="712" height="120" rx="16" fill="#EDF1F6"/>
<path d="M34.5312 319.869H31.709V305.777H34.1699L40.6543 314.556H40.8301V305.777H43.6523V319.869H41.2109L34.707 311.05H34.5312V319.869ZM56.1328 319.869L55.0684 316.509H50.1172L49.0332 319.869H46.0742L50.9668 305.777H54.4336L59.3262 319.869H56.1328ZM52.5195 308.707L50.752 314.234H54.4434L52.6953 308.707H52.5195ZM61.0938 315.953H63.9453C64.082 317.095 65.2344 317.828 66.8945 317.828C68.4277 317.828 69.5117 317.085 69.5117 316.021C69.5117 315.123 68.8086 314.605 67.0801 314.234L65.2441 313.843C62.6758 313.306 61.416 311.968 61.416 309.82C61.416 307.164 63.5547 305.416 66.8066 305.416C69.9121 305.416 72.1094 307.154 72.1973 309.664H69.4238C69.2871 308.55 68.252 307.808 66.8262 307.808C65.3516 307.808 64.375 308.492 64.375 309.566C64.375 310.435 65.0488 310.933 66.6992 311.285L68.3984 311.646C71.2305 312.242 72.4512 313.462 72.4512 315.65C72.4512 318.492 70.2734 320.23 66.7383 320.23C63.3789 320.23 61.2012 318.58 61.0938 315.953ZM78.1934 319.869H75.2441V305.777H78.1934V319.869ZM87.9395 319.869H81.6113V305.777H87.7734C90.5078 305.777 92.1387 307.115 92.1387 309.292C92.1387 310.787 91.0352 312.085 89.5898 312.3V312.476C91.4551 312.613 92.8125 314.019 92.8125 315.835C92.8125 318.306 90.9473 319.869 87.9395 319.869ZM84.5605 308.033V311.617H86.7773C88.3691 311.617 89.2383 310.962 89.2383 309.83C89.2383 308.707 88.4277 308.033 87.0215 308.033H84.5605ZM84.5605 317.613H87.1875C88.8867 317.613 89.8047 316.9 89.8047 315.582C89.8047 314.292 88.8574 313.609 87.1191 313.609H84.5605V317.613ZM94.5117 315.728H97.3633C97.3828 316.861 98.125 317.593 99.2578 317.593C100.469 317.593 101.133 316.861 101.133 315.474V305.777H104.082V315.494C104.082 318.531 102.285 320.23 99.2969 320.23C96.4062 320.23 94.5117 318.492 94.5117 315.728ZM113.672 305.416C117.832 305.416 120.439 308.257 120.439 312.818C120.439 317.388 117.842 320.23 113.672 320.23C109.492 320.23 106.885 317.388 106.885 312.818C106.885 308.248 109.531 305.416 113.672 305.416ZM113.672 308.003C111.387 308.003 109.902 309.869 109.902 312.818C109.902 315.757 111.357 317.642 113.672 317.642C115.967 317.642 117.432 315.757 117.432 312.818C117.432 309.869 115.967 308.003 113.672 308.003ZM126.055 319.869H123.232V305.777H125.693L132.178 314.556H132.354V305.777H135.176V319.869H132.734L126.23 311.05H126.055V319.869ZM146.709 319.869H143.76V305.777H146.709V319.869ZM153.076 319.869H150.127V305.777H153.076V312.056H153.252L158.457 305.777H161.738L156.602 311.958L162.1 319.869H158.564L154.473 313.97L153.076 315.621V319.869ZM167.275 308.16V312.496H169.863C171.348 312.496 172.217 311.695 172.217 310.337C172.217 309 171.299 308.16 169.834 308.16H167.275ZM167.275 314.761V319.869H164.326V305.777H170.244C173.34 305.777 175.244 307.496 175.244 310.298C175.244 312.095 174.307 313.658 172.686 314.302L175.654 319.869H172.314L169.688 314.761H167.275ZM184.375 305.416C188.535 305.416 191.143 308.257 191.143 312.818C191.143 317.388 188.545 320.23 184.375 320.23C180.195 320.23 177.588 317.388 177.588 312.818C177.588 308.248 180.234 305.416 184.375 305.416ZM184.375 308.003C182.09 308.003 180.605 309.869 180.605 312.818C180.605 315.757 182.061 317.642 184.375 317.642C186.67 317.642 188.135 315.757 188.135 312.818C188.135 309.869 186.67 308.003 184.375 308.003ZM208.857 319.869H206.123V310.445H205.967L202.383 319.058H200.42L196.826 310.445H196.67V319.869H193.936V305.777H197.412L201.309 315.25H201.484L205.391 305.777H208.857V319.869ZM218.438 305.416C222.598 305.416 225.205 308.257 225.205 312.818C225.205 317.388 222.607 320.23 218.438 320.23C214.258 320.23 211.65 317.388 211.65 312.818C211.65 308.248 214.297 305.416 218.438 305.416ZM218.438 308.003C216.152 308.003 214.668 309.869 214.668 312.818C214.668 315.757 216.123 317.642 218.438 317.642C220.732 317.642 222.197 315.757 222.197 312.818C222.197 309.869 220.732 308.003 218.438 308.003ZM234.873 319.869H231.309L226.543 305.777H229.873L233.076 316.548H233.252L236.396 305.777H239.57L234.873 319.869Z" fill="#1C395C"/>
<path opacity="0.7" d="M33.4062 347.869H31.3906V336.595H33.4062V341.783H33.5391L37.9844 336.595H40.2969L36.0391 341.509L40.6328 347.869H38.1719L34.6094 342.892L33.4062 344.275V347.869ZM45.2812 348.041C42.7188 348.041 41.1719 346.369 41.1719 343.595C41.1719 340.837 42.7422 339.15 45.2812 339.15C47.8281 339.15 49.3906 340.83 49.3906 343.595C49.3906 346.369 47.8359 348.041 45.2812 348.041ZM45.2812 346.416C46.6328 346.416 47.3984 345.384 47.3984 343.595C47.3984 341.814 46.625 340.775 45.2812 340.775C43.9297 340.775 43.1562 341.814 43.1562 343.595C43.1562 345.384 43.9297 346.416 45.2812 346.416ZM51.1484 341.767C51.1484 340.22 52.5547 339.15 54.5703 339.15C56.6016 339.15 57.875 340.048 58.0156 341.603H56.1953C56.0547 341.001 55.4844 340.619 54.5781 340.619C53.6953 340.619 53.0312 341.041 53.0312 341.658C53.0312 342.142 53.4375 342.439 54.2969 342.634L55.8047 342.978C57.4375 343.345 58.1953 344.048 58.1953 345.306C58.1953 346.947 56.6875 348.041 54.5547 348.041C52.4219 348.041 51.0781 347.119 50.9297 345.564H52.8438C53.0312 346.197 53.6328 346.572 54.6016 346.572C55.5781 346.572 56.2578 346.142 56.2578 345.509C56.2578 345.025 55.8906 344.72 55.0781 344.541L53.5625 344.189C51.9219 343.814 51.1484 343.056 51.1484 341.767ZM63.8438 348.041C61.2812 348.041 59.7344 346.369 59.7344 343.595C59.7344 340.837 61.3047 339.15 63.8438 339.15C66.3906 339.15 67.9531 340.83 67.9531 343.595C67.9531 346.369 66.3984 348.041 63.8438 348.041ZM63.8438 346.416C65.1953 346.416 65.9609 345.384 65.9609 343.595C65.9609 341.814 65.1875 340.775 63.8438 340.775C62.4922 340.775 61.7188 341.814 61.7188 343.595C61.7188 345.384 62.4922 346.416 63.8438 346.416ZM69.9062 347.869V339.322H71.7734V340.689H71.9062C72.3125 339.736 73.1719 339.15 74.4453 339.15C76.3516 339.15 77.3906 340.298 77.3906 342.337V347.869H75.4531V342.798C75.4531 341.494 74.9062 340.837 73.7266 340.837C72.5703 340.837 71.8438 341.634 71.8438 342.892V347.869H69.9062ZM79.4922 341.767C79.4922 340.22 80.8984 339.15 82.9141 339.15C84.9453 339.15 86.2188 340.048 86.3594 341.603H84.5391C84.3984 341.001 83.8281 340.619 82.9219 340.619C82.0391 340.619 81.375 341.041 81.375 341.658C81.375 342.142 81.7812 342.439 82.6406 342.634L84.1484 342.978C85.7812 343.345 86.5391 344.048 86.5391 345.306C86.5391 346.947 85.0312 348.041 82.8984 348.041C80.7656 348.041 79.4219 347.119 79.2734 345.564H81.1875C81.375 346.197 81.9766 346.572 82.9453 346.572C83.9219 346.572 84.6016 346.142 84.6016 345.509C84.6016 345.025 84.2344 344.72 83.4219 344.541L81.9062 344.189C80.2656 343.814 79.4922 343.056 79.4922 341.767ZM92.1875 348.041C89.625 348.041 88.0781 346.369 88.0781 343.595C88.0781 340.837 89.6484 339.15 92.1875 339.15C94.7344 339.15 96.2969 340.83 96.2969 343.595C96.2969 346.369 94.7422 348.041 92.1875 348.041ZM92.1875 346.416C93.5391 346.416 94.3047 345.384 94.3047 343.595C94.3047 341.814 93.5312 340.775 92.1875 340.775C90.8359 340.775 90.0625 341.814 90.0625 343.595C90.0625 345.384 90.8359 346.416 92.1875 346.416ZM98.8438 350.97C98.7266 350.97 98.2031 350.962 98.0781 350.939V349.353C98.1875 349.376 98.4766 349.384 98.6094 349.384C99.4297 349.384 99.8906 349.072 100.141 348.283L100.242 347.908L97.1875 339.322H99.3125L101.312 345.994H101.445L103.438 339.322H105.484L102.398 348.142C101.672 350.267 100.758 350.97 98.8438 350.97ZM107.234 347.869V336.017H109.172V347.869H107.234ZM111.648 347.869V339.322H113.578V347.869H111.648ZM112.609 337.931C111.906 337.931 111.414 337.478 111.414 336.861C111.414 336.244 111.906 335.791 112.609 335.791C113.32 335.791 113.805 336.244 113.805 336.861C113.805 337.478 113.32 337.931 112.609 337.931ZM118.133 342.806L121.289 339.322H123.539L120.133 342.986L123.773 347.869H121.43L118.688 344.205L118 344.892V347.869H116.062V336.017H118V342.806H118.133ZM134.438 348.15C131.242 348.15 129.258 345.884 129.258 342.236C129.258 338.572 131.234 336.314 134.43 336.314C136.992 336.314 138.969 337.986 139.203 340.337H137.219C136.938 338.986 135.852 338.111 134.43 338.111C132.516 338.111 131.32 339.689 131.32 342.228C131.32 344.775 132.516 346.353 134.438 346.353C135.867 346.353 136.953 345.556 137.227 344.291H139.211C138.945 346.595 137.039 348.15 134.438 348.15ZM144.172 346.486C145.344 346.486 146.219 345.728 146.219 344.736V344.056L144.289 344.181C143.203 344.251 142.695 344.642 142.695 345.337C142.695 346.056 143.312 346.486 144.172 346.486ZM143.602 348.009C141.953 348.009 140.773 347.009 140.773 345.447C140.773 343.9 141.938 343.009 144.016 342.884L146.219 342.751V342.033C146.219 341.197 145.656 340.728 144.609 340.728C143.719 340.728 143.109 341.041 142.93 341.619H141.102C141.258 340.111 142.672 339.15 144.703 339.15C146.898 339.15 148.133 340.22 148.133 342.033V347.869H146.266V346.697H146.133C145.656 347.525 144.719 348.009 143.602 348.009ZM150.469 347.869V339.322H152.336V340.705H152.469C152.836 339.728 153.711 339.15 154.844 339.15C156.023 339.15 156.844 339.744 157.203 340.705H157.336C157.758 339.767 158.742 339.15 159.93 339.15C161.641 339.15 162.672 340.22 162.672 341.994V347.869H160.742V342.486C160.742 341.384 160.219 340.837 159.18 340.837C158.172 340.837 157.508 341.572 157.508 342.548V347.869H155.625V342.345C155.625 341.408 155.031 340.837 154.078 340.837C153.117 340.837 152.406 341.626 152.406 342.673V347.869H150.469ZM169.719 348.009C168.523 348.009 167.531 347.455 167.047 346.517H166.914V347.869H165.047V336.017H166.984V340.681H167.117C167.562 339.751 168.547 339.181 169.719 339.181C171.883 339.181 173.227 340.861 173.227 343.595C173.227 346.314 171.875 348.009 169.719 348.009ZM169.109 340.83C167.789 340.83 166.953 341.892 166.953 343.595C166.953 345.298 167.781 346.361 169.109 346.361C170.438 346.361 171.234 345.314 171.234 343.595C171.234 341.876 170.43 340.83 169.109 340.83ZM175.172 347.869V339.322H177.039V340.65H177.172C177.406 339.806 178.328 339.181 179.43 339.181C179.711 339.181 180.055 339.212 180.234 339.267V341.064C180.086 341.009 179.57 340.955 179.242 340.955C177.984 340.955 177.109 341.736 177.109 342.931V347.869H175.172ZM181.852 347.869V339.322H183.781V347.869H181.852ZM182.812 337.931C182.109 337.931 181.617 337.478 181.617 336.861C181.617 336.244 182.109 335.791 182.812 335.791C183.523 335.791 184.008 336.244 184.008 336.861C184.008 337.478 183.523 337.931 182.812 337.931ZM189.281 348.009C187.117 348.009 185.766 346.306 185.766 343.587C185.766 340.884 187.125 339.181 189.281 339.181C190.453 339.181 191.422 339.744 191.875 340.681H192.008V336.017H193.945V347.869H192.07V346.517H191.938C191.453 347.455 190.469 348.009 189.281 348.009ZM189.883 340.83C188.562 340.83 187.75 341.876 187.75 343.595C187.75 345.322 188.555 346.361 189.883 346.361C191.219 346.361 192.031 345.314 192.031 343.595C192.031 341.892 191.211 340.83 189.883 340.83ZM200.062 346.166C201.414 346.166 202.227 345.134 202.227 343.501C202.227 341.869 201.406 340.83 200.062 340.83C198.711 340.83 197.945 341.869 197.945 343.501C197.945 345.134 198.711 346.166 200.062 346.166ZM200.062 351.119C197.867 351.119 196.43 350.15 196.273 348.681H198.219C198.344 349.267 199.031 349.642 200.094 349.642C201.422 349.642 202.195 349.017 202.195 347.947V346.33H202.062C201.57 347.244 200.641 347.744 199.453 347.744C197.297 347.744 195.953 346.072 195.953 343.501C195.953 340.884 197.305 339.181 199.484 339.181C200.648 339.181 201.664 339.759 202.133 340.689H202.266V339.322H204.133V347.9C204.133 349.876 202.555 351.119 200.062 351.119ZM210.102 340.689C208.945 340.689 208.133 341.517 208.047 342.767H212.07C212.031 341.501 211.266 340.689 210.102 340.689ZM212.086 345.517H213.922C213.555 347.072 212.141 348.041 210.125 348.041C207.609 348.041 206.094 346.376 206.094 343.626C206.094 340.876 207.633 339.15 210.109 339.15C212.547 339.15 214.008 340.767 214.008 343.462V344.087H208.039V344.189C208.086 345.611 208.906 346.501 210.18 346.501C211.141 346.501 211.805 346.15 212.086 345.517ZM219.727 347.869L223.414 342.189L219.758 336.595H222.141L224.711 340.736H224.844L227.453 336.595H229.719L225.938 342.236L229.656 347.869H227.328L224.711 343.822H224.578L221.922 347.869H219.727ZM234.234 346.486C235.406 346.486 236.281 345.728 236.281 344.736V344.056L234.352 344.181C233.266 344.251 232.758 344.642 232.758 345.337C232.758 346.056 233.375 346.486 234.234 346.486ZM233.664 348.009C232.016 348.009 230.836 347.009 230.836 345.447C230.836 343.9 232 343.009 234.078 342.884L236.281 342.751V342.033C236.281 341.197 235.719 340.728 234.672 340.728C233.781 340.728 233.172 341.041 232.992 341.619H231.164C231.32 340.111 232.734 339.15 234.766 339.15C236.961 339.15 238.195 340.22 238.195 342.033V347.869H236.328V346.697H236.195C235.719 347.525 234.781 348.009 233.664 348.009ZM240.609 347.869V336.017H242.547V347.869H240.609ZM248.102 339.181C249.258 339.181 250.273 339.783 250.742 340.736H250.875V339.322H252.758V350.712H250.805V346.572H250.672C250.18 347.486 249.281 348.009 248.07 348.009C245.914 348.009 244.578 346.306 244.578 343.587C244.578 340.892 245.945 339.181 248.102 339.181ZM248.68 346.361C250.016 346.361 250.844 345.306 250.844 343.595C250.844 341.892 250.008 340.83 248.688 340.83C247.359 340.83 246.562 341.869 246.562 343.595C246.562 345.33 247.352 346.361 248.68 346.361ZM258.047 346.486C259.219 346.486 260.094 345.728 260.094 344.736V344.056L258.164 344.181C257.078 344.251 256.57 344.642 256.57 345.337C256.57 346.056 257.188 346.486 258.047 346.486ZM257.477 348.009C255.828 348.009 254.648 347.009 254.648 345.447C254.648 343.9 255.812 343.009 257.891 342.884L260.094 342.751V342.033C260.094 341.197 259.531 340.728 258.484 340.728C257.594 340.728 256.984 341.041 256.805 341.619H254.977C255.133 340.111 256.547 339.15 258.578 339.15C260.773 339.15 262.008 340.22 262.008 342.033V347.869H260.141V346.697H260.008C259.531 347.525 258.594 348.009 257.477 348.009ZM264.344 347.869V339.322H266.211V340.65H266.344C266.578 339.806 267.5 339.181 268.602 339.181C268.883 339.181 269.227 339.212 269.406 339.267V341.064C269.258 341.009 268.742 340.955 268.414 340.955C267.156 340.955 266.281 341.736 266.281 342.931V347.869H264.344ZM274.469 348.041C271.906 348.041 270.359 346.369 270.359 343.595C270.359 340.837 271.93 339.15 274.469 339.15C277.016 339.15 278.578 340.83 278.578 343.595C278.578 346.369 277.023 348.041 274.469 348.041ZM274.469 346.416C275.82 346.416 276.586 345.384 276.586 343.595C276.586 341.814 275.812 340.775 274.469 340.775C273.117 340.775 272.344 341.814 272.344 343.595C272.344 345.384 273.117 346.416 274.469 346.416ZM289.867 336.314C293.141 336.314 295.188 338.587 295.188 342.228C295.188 345.861 293.156 348.15 289.867 348.15C286.555 348.15 284.523 345.869 284.523 342.228C284.523 338.587 286.594 336.314 289.867 336.314ZM289.867 338.103C287.859 338.103 286.586 339.705 286.586 342.228C286.586 344.744 287.828 346.361 289.867 346.361C291.875 346.361 293.125 344.744 293.125 342.228C293.125 339.705 291.867 338.103 289.867 338.103ZM298.742 341.166H297.383L298.109 336.595H300.094L298.742 341.166ZM304.43 339.181C305.586 339.181 306.602 339.783 307.07 340.736H307.203V339.322H309.086V350.712H307.133V346.572H307C306.508 347.486 305.609 348.009 304.398 348.009C302.242 348.009 300.906 346.306 300.906 343.587C300.906 340.892 302.273 339.181 304.43 339.181ZM305.008 346.361C306.344 346.361 307.172 345.306 307.172 343.595C307.172 341.892 306.336 340.83 305.016 340.83C303.688 340.83 302.891 341.869 302.891 343.595C302.891 345.33 303.68 346.361 305.008 346.361ZM311.477 347.869V339.322H313.406V347.869H311.477ZM312.438 337.931C311.734 337.931 311.242 337.478 311.242 336.861C311.242 336.244 311.734 335.791 312.438 335.791C313.148 335.791 313.633 336.244 313.633 336.861C313.633 337.478 313.148 337.931 312.438 337.931ZM316.43 337.228H318.359V339.376H320.188V340.923H318.359V345.119C318.359 345.962 318.719 346.337 319.531 346.337C319.805 346.337 319.953 346.322 320.188 346.298V347.814C319.906 347.869 319.547 347.908 319.172 347.908C317.211 347.908 316.43 347.244 316.43 345.587V340.923H315.078V339.376H316.43V337.228ZM329.562 339.322V347.869H327.695V346.509H327.562C327.148 347.486 326.312 348.041 325.008 348.041C323.141 348.041 322.047 346.876 322.047 344.876V339.322H323.984V344.392C323.984 345.697 324.523 346.337 325.68 346.337C326.938 346.337 327.625 345.564 327.625 344.298V339.322H329.562ZM339.391 339.322L336.367 347.869H334.234L331.195 339.322H333.273L335.25 345.931H335.383L337.344 339.322H339.391ZM348.07 342.197H346.227C346.047 341.369 345.406 340.775 344.344 340.775C343.016 340.775 342.227 341.798 342.227 343.572C342.227 345.369 343.023 346.416 344.344 346.416C345.352 346.416 346.023 345.939 346.227 345.048H348.07C347.859 346.837 346.516 348.041 344.352 348.041C341.781 348.041 340.266 346.384 340.266 343.572C340.266 340.798 341.773 339.15 344.344 339.15C346.539 339.15 347.867 340.4 348.07 342.197ZM350 347.869V336.017H351.906V340.705H352.047C352.453 339.744 353.367 339.166 354.641 339.166C356.469 339.166 357.578 340.322 357.578 342.353V347.869H355.641V342.814C355.641 341.517 355.047 340.853 353.922 340.853C352.648 340.853 351.938 341.681 351.938 342.908V347.869H350ZM359.898 347.869V339.322H361.828V347.869H359.898ZM360.859 337.931C360.156 337.931 359.664 337.478 359.664 336.861C359.664 336.244 360.156 335.791 360.859 335.791C361.57 335.791 362.055 336.244 362.055 336.861C362.055 337.478 361.57 337.931 360.859 337.931ZM364.039 341.767C364.039 340.22 365.445 339.15 367.461 339.15C369.492 339.15 370.766 340.048 370.906 341.603H369.086C368.945 341.001 368.375 340.619 367.469 340.619C366.586 340.619 365.922 341.041 365.922 341.658C365.922 342.142 366.328 342.439 367.188 342.634L368.695 342.978C370.328 343.345 371.086 344.048 371.086 345.306C371.086 346.947 369.578 348.041 367.445 348.041C365.312 348.041 363.969 347.119 363.82 345.564H365.734C365.922 346.197 366.523 346.572 367.492 346.572C368.469 346.572 369.148 346.142 369.148 345.509C369.148 345.025 368.781 344.72 367.969 344.541L366.453 344.189C364.812 343.814 364.039 343.056 364.039 341.767ZM373.07 347.869V339.322H375V347.869H373.07ZM374.031 337.931C373.328 337.931 372.836 337.478 372.836 336.861C372.836 336.244 373.328 335.791 374.031 335.791C374.742 335.791 375.227 336.244 375.227 336.861C375.227 337.478 374.742 337.931 374.031 337.931Z" fill="#1C395C"/>
<circle cx="665" cy="332.839" r="11.5" transform="rotate(45 665 332.839)" fill="#304E73" stroke="#F0F7FF"/>
<path d="M659.781 333.506L659.781 332.173L668.333 332.173L666.172 330.011L667.114 329.068L670.886 332.839L667.114 336.611L666.172 335.668L668.333 333.506L659.781 333.506Z" fill="white"/>
<rect y="408.869" width="712" height="120" rx="16" fill="#EDF1F6"/>
<path d="M34.6582 444.16V448.496H37.2461C38.7305 448.496 39.5996 447.695 39.5996 446.337C39.5996 445 38.6816 444.16 37.2168 444.16H34.6582ZM34.6582 450.761V455.869H31.709V441.777H37.627C40.7227 441.777 42.627 443.496 42.627 446.298C42.627 448.095 41.6895 449.658 40.0684 450.302L43.0371 455.869H39.6973L37.0703 450.761H34.6582ZM54.6484 455.869L53.584 452.509H48.6328L47.5488 455.869H44.5898L49.4824 441.777H52.9492L57.8418 455.869H54.6484ZM51.0352 444.707L49.2676 450.234H52.959L51.2109 444.707H51.0352ZM66.2988 455.869H62.7344L57.9688 441.777H61.2988L64.502 452.548H64.6777L67.8223 441.777H70.9961L66.2988 455.869ZM72.6758 451.953H75.5273C75.6641 453.095 76.8164 453.828 78.4766 453.828C80.0098 453.828 81.0938 453.085 81.0938 452.021C81.0938 451.123 80.3906 450.605 78.6621 450.234L76.8262 449.843C74.2578 449.306 72.998 447.968 72.998 445.82C72.998 443.164 75.1367 441.416 78.3887 441.416C81.4941 441.416 83.6914 443.154 83.7793 445.664H81.0059C80.8691 444.55 79.834 443.808 78.4082 443.808C76.9336 443.808 75.957 444.492 75.957 445.566C75.957 446.435 76.6309 446.933 78.2812 447.285L79.9805 447.646C82.8125 448.242 84.0332 449.462 84.0332 451.65C84.0332 454.492 81.8555 456.23 78.3203 456.23C74.9609 456.23 72.7832 454.58 72.6758 451.953ZM99.0723 455.869H96.123V449.98H89.7754V455.869H86.8262V441.777H89.7754V447.46H96.123V441.777H99.0723V455.869ZM111.543 455.869L110.479 452.509H105.527L104.443 455.869H101.484L106.377 441.777H109.844L114.736 455.869H111.543ZM107.93 444.707L106.162 450.234H109.854L108.105 444.707H107.93ZM119.961 455.869H117.139V441.777H119.6L126.084 450.556H126.26V441.777H129.082V455.869H126.641L120.137 447.05H119.961V455.869ZM152.588 455.869H149.854V446.445H149.697L146.113 455.058H144.15L140.557 446.445H140.4V455.869H137.666V441.777H141.143L145.039 451.25H145.215L149.121 441.777H152.588V455.869ZM158.984 441.777V450.703C158.984 452.48 160.049 453.613 161.934 453.613C163.828 453.613 164.893 452.48 164.893 450.703V441.777H167.842V451.005C167.842 454.13 165.547 456.23 161.934 456.23C158.33 456.23 156.035 454.13 156.035 451.005V441.777H158.984ZM177.607 455.869H171.279V441.777H177.441C180.176 441.777 181.807 443.115 181.807 445.292C181.807 446.787 180.703 448.085 179.258 448.3V448.476C181.123 448.613 182.48 450.019 182.48 451.835C182.48 454.306 180.615 455.869 177.607 455.869ZM174.229 444.033V447.617H176.445C178.037 447.617 178.906 446.962 178.906 445.83C178.906 444.707 178.096 444.033 176.689 444.033H174.229ZM174.229 453.613H176.855C178.555 453.613 179.473 452.9 179.473 451.582C179.473 450.292 178.525 449.609 176.787 449.609H174.229V453.613ZM194.199 455.869L193.135 452.509H188.184L187.1 455.869H184.141L189.033 441.777H192.5L197.393 455.869H194.199ZM190.586 444.707L188.818 450.234H192.51L190.762 444.707H190.586ZM199.16 451.953H202.012C202.148 453.095 203.301 453.828 204.961 453.828C206.494 453.828 207.578 453.085 207.578 452.021C207.578 451.123 206.875 450.605 205.146 450.234L203.311 449.843C200.742 449.306 199.482 447.968 199.482 445.82C199.482 443.164 201.621 441.416 204.873 441.416C207.979 441.416 210.176 443.154 210.264 445.664H207.49C207.354 444.55 206.318 443.808 204.893 443.808C203.418 443.808 202.441 444.492 202.441 445.566C202.441 446.435 203.115 446.933 204.766 447.285L206.465 447.646C209.297 448.242 210.518 449.462 210.518 451.65C210.518 454.492 208.34 456.23 204.805 456.23C201.445 456.23 199.268 454.58 199.16 451.953ZM225.557 455.869H222.607V449.98H216.26V455.869H213.311V441.777H216.26V447.46H222.607V441.777H225.557V455.869ZM238.311 453.349V455.869H228.975V441.777H238.311V444.296H231.924V447.587H237.949V449.921H231.924V453.349H238.311ZM244.365 444.16V448.496H246.953C248.438 448.496 249.307 447.695 249.307 446.337C249.307 445 248.389 444.16 246.924 444.16H244.365ZM244.365 450.761V455.869H241.416V441.777H247.334C250.43 441.777 252.334 443.496 252.334 446.298C252.334 448.095 251.396 449.658 249.775 450.302L252.744 455.869H249.404L246.777 450.761H244.365ZM254.453 455.869L258.955 448.769L254.482 441.777H257.949L260.889 446.708H261.064L264.033 441.777H267.334L262.695 448.818L267.266 455.869H263.906L260.879 451.093H260.703L257.637 455.869H254.453ZM275.469 441.416C279.629 441.416 282.236 444.257 282.236 448.818C282.236 453.388 279.639 456.23 275.469 456.23C271.289 456.23 268.682 453.388 268.682 448.818C268.682 444.248 271.328 441.416 275.469 441.416ZM275.469 444.003C273.184 444.003 271.699 445.869 271.699 448.818C271.699 451.757 273.154 453.642 275.469 453.642C277.764 453.642 279.229 451.757 279.229 448.818C279.229 445.869 277.764 444.003 275.469 444.003ZM287.852 455.869H285.029V441.777H287.49L293.975 450.556H294.15V441.777H296.973V455.869H294.531L288.027 447.05H287.852V455.869ZM306.562 441.416C310.723 441.416 313.33 444.257 313.33 448.818C313.33 453.388 310.732 456.23 306.562 456.23C302.383 456.23 299.775 453.388 299.775 448.818C299.775 444.248 302.422 441.416 306.562 441.416ZM306.562 444.003C304.277 444.003 302.793 445.869 302.793 448.818C302.793 451.757 304.248 453.642 306.562 453.642C308.857 453.642 310.322 451.757 310.322 448.818C310.322 445.869 308.857 444.003 306.562 444.003ZM322.998 455.869H319.434L314.668 441.777H317.998L321.201 452.548H321.377L324.521 441.777H327.695L322.998 455.869Z" fill="#1C395C"/>
<path opacity="0.7" d="M33.4062 483.869H31.3906V472.595H33.4062V477.783H33.5391L37.9844 472.595H40.2969L36.0391 477.509L40.6328 483.869H38.1719L34.6094 478.892L33.4062 480.275V483.869ZM45.2812 484.041C42.7188 484.041 41.1719 482.369 41.1719 479.595C41.1719 476.837 42.7422 475.15 45.2812 475.15C47.8281 475.15 49.3906 476.83 49.3906 479.595C49.3906 482.369 47.8359 484.041 45.2812 484.041ZM45.2812 482.416C46.6328 482.416 47.3984 481.384 47.3984 479.595C47.3984 477.814 46.625 476.775 45.2812 476.775C43.9297 476.775 43.1562 477.814 43.1562 479.595C43.1562 481.384 43.9297 482.416 45.2812 482.416ZM51.1484 477.767C51.1484 476.22 52.5547 475.15 54.5703 475.15C56.6016 475.15 57.875 476.048 58.0156 477.603H56.1953C56.0547 477.001 55.4844 476.619 54.5781 476.619C53.6953 476.619 53.0312 477.041 53.0312 477.658C53.0312 478.142 53.4375 478.439 54.2969 478.634L55.8047 478.978C57.4375 479.345 58.1953 480.048 58.1953 481.306C58.1953 482.947 56.6875 484.041 54.5547 484.041C52.4219 484.041 51.0781 483.119 50.9297 481.564H52.8438C53.0312 482.197 53.6328 482.572 54.6016 482.572C55.5781 482.572 56.2578 482.142 56.2578 481.509C56.2578 481.025 55.8906 480.72 55.0781 480.541L53.5625 480.189C51.9219 479.814 51.1484 479.056 51.1484 477.767ZM63.8438 484.041C61.2812 484.041 59.7344 482.369 59.7344 479.595C59.7344 476.837 61.3047 475.15 63.8438 475.15C66.3906 475.15 67.9531 476.83 67.9531 479.595C67.9531 482.369 66.3984 484.041 63.8438 484.041ZM63.8438 482.416C65.1953 482.416 65.9609 481.384 65.9609 479.595C65.9609 477.814 65.1875 476.775 63.8438 476.775C62.4922 476.775 61.7188 477.814 61.7188 479.595C61.7188 481.384 62.4922 482.416 63.8438 482.416ZM69.9062 483.869V475.322H71.7734V476.689H71.9062C72.3125 475.736 73.1719 475.15 74.4453 475.15C76.3516 475.15 77.3906 476.298 77.3906 478.337V483.869H75.4531V478.798C75.4531 477.494 74.9062 476.837 73.7266 476.837C72.5703 476.837 71.8438 477.634 71.8438 478.892V483.869H69.9062ZM79.4922 477.767C79.4922 476.22 80.8984 475.15 82.9141 475.15C84.9453 475.15 86.2188 476.048 86.3594 477.603H84.5391C84.3984 477.001 83.8281 476.619 82.9219 476.619C82.0391 476.619 81.375 477.041 81.375 477.658C81.375 478.142 81.7812 478.439 82.6406 478.634L84.1484 478.978C85.7812 479.345 86.5391 480.048 86.5391 481.306C86.5391 482.947 85.0312 484.041 82.8984 484.041C80.7656 484.041 79.4219 483.119 79.2734 481.564H81.1875C81.375 482.197 81.9766 482.572 82.9453 482.572C83.9219 482.572 84.6016 482.142 84.6016 481.509C84.6016 481.025 84.2344 480.72 83.4219 480.541L81.9062 480.189C80.2656 479.814 79.4922 479.056 79.4922 477.767ZM92.1875 484.041C89.625 484.041 88.0781 482.369 88.0781 479.595C88.0781 476.837 89.6484 475.15 92.1875 475.15C94.7344 475.15 96.2969 476.83 96.2969 479.595C96.2969 482.369 94.7422 484.041 92.1875 484.041ZM92.1875 482.416C93.5391 482.416 94.3047 481.384 94.3047 479.595C94.3047 477.814 93.5312 476.775 92.1875 476.775C90.8359 476.775 90.0625 477.814 90.0625 479.595C90.0625 481.384 90.8359 482.416 92.1875 482.416ZM98.8438 486.97C98.7266 486.97 98.2031 486.962 98.0781 486.939V485.353C98.1875 485.376 98.4766 485.384 98.6094 485.384C99.4297 485.384 99.8906 485.072 100.141 484.283L100.242 483.908L97.1875 475.322H99.3125L101.312 481.994H101.445L103.438 475.322H105.484L102.398 484.142C101.672 486.267 100.758 486.97 98.8438 486.97ZM107.234 483.869V472.017H109.172V483.869H107.234ZM111.648 483.869V475.322H113.578V483.869H111.648ZM112.609 473.931C111.906 473.931 111.414 473.478 111.414 472.861C111.414 472.244 111.906 471.791 112.609 471.791C113.32 471.791 113.805 472.244 113.805 472.861C113.805 473.478 113.32 473.931 112.609 473.931ZM118.133 478.806L121.289 475.322H123.539L120.133 478.986L123.773 483.869H121.43L118.688 480.205L118 480.892V483.869H116.062V472.017H118V478.806H118.133ZM134.438 484.15C131.242 484.15 129.258 481.884 129.258 478.236C129.258 474.572 131.234 472.314 134.43 472.314C136.992 472.314 138.969 473.986 139.203 476.337H137.219C136.938 474.986 135.852 474.111 134.43 474.111C132.516 474.111 131.32 475.689 131.32 478.228C131.32 480.775 132.516 482.353 134.438 482.353C135.867 482.353 136.953 481.556 137.227 480.291H139.211C138.945 482.595 137.039 484.15 134.438 484.15ZM144.172 482.486C145.344 482.486 146.219 481.728 146.219 480.736V480.056L144.289 480.181C143.203 480.251 142.695 480.642 142.695 481.337C142.695 482.056 143.312 482.486 144.172 482.486ZM143.602 484.009C141.953 484.009 140.773 483.009 140.773 481.447C140.773 479.9 141.938 479.009 144.016 478.884L146.219 478.751V478.033C146.219 477.197 145.656 476.728 144.609 476.728C143.719 476.728 143.109 477.041 142.93 477.619H141.102C141.258 476.111 142.672 475.15 144.703 475.15C146.898 475.15 148.133 476.22 148.133 478.033V483.869H146.266V482.697H146.133C145.656 483.525 144.719 484.009 143.602 484.009ZM150.469 483.869V475.322H152.336V476.705H152.469C152.836 475.728 153.711 475.15 154.844 475.15C156.023 475.15 156.844 475.744 157.203 476.705H157.336C157.758 475.767 158.742 475.15 159.93 475.15C161.641 475.15 162.672 476.22 162.672 477.994V483.869H160.742V478.486C160.742 477.384 160.219 476.837 159.18 476.837C158.172 476.837 157.508 477.572 157.508 478.548V483.869H155.625V478.345C155.625 477.408 155.031 476.837 154.078 476.837C153.117 476.837 152.406 477.626 152.406 478.673V483.869H150.469ZM169.719 484.009C168.523 484.009 167.531 483.455 167.047 482.517H166.914V483.869H165.047V472.017H166.984V476.681H167.117C167.562 475.751 168.547 475.181 169.719 475.181C171.883 475.181 173.227 476.861 173.227 479.595C173.227 482.314 171.875 484.009 169.719 484.009ZM169.109 476.83C167.789 476.83 166.953 477.892 166.953 479.595C166.953 481.298 167.781 482.361 169.109 482.361C170.438 482.361 171.234 481.314 171.234 479.595C171.234 477.876 170.43 476.83 169.109 476.83ZM175.172 483.869V475.322H177.039V476.65H177.172C177.406 475.806 178.328 475.181 179.43 475.181C179.711 475.181 180.055 475.212 180.234 475.267V477.064C180.086 477.009 179.57 476.955 179.242 476.955C177.984 476.955 177.109 477.736 177.109 478.931V483.869H175.172ZM181.852 483.869V475.322H183.781V483.869H181.852ZM182.812 473.931C182.109 473.931 181.617 473.478 181.617 472.861C181.617 472.244 182.109 471.791 182.812 471.791C183.523 471.791 184.008 472.244 184.008 472.861C184.008 473.478 183.523 473.931 182.812 473.931ZM189.281 484.009C187.117 484.009 185.766 482.306 185.766 479.587C185.766 476.884 187.125 475.181 189.281 475.181C190.453 475.181 191.422 475.744 191.875 476.681H192.008V472.017H193.945V483.869H192.07V482.517H191.938C191.453 483.455 190.469 484.009 189.281 484.009ZM189.883 476.83C188.562 476.83 187.75 477.876 187.75 479.595C187.75 481.322 188.555 482.361 189.883 482.361C191.219 482.361 192.031 481.314 192.031 479.595C192.031 477.892 191.211 476.83 189.883 476.83ZM200.062 482.166C201.414 482.166 202.227 481.134 202.227 479.501C202.227 477.869 201.406 476.83 200.062 476.83C198.711 476.83 197.945 477.869 197.945 479.501C197.945 481.134 198.711 482.166 200.062 482.166ZM200.062 487.119C197.867 487.119 196.43 486.15 196.273 484.681H198.219C198.344 485.267 199.031 485.642 200.094 485.642C201.422 485.642 202.195 485.017 202.195 483.947V482.33H202.062C201.57 483.244 200.641 483.744 199.453 483.744C197.297 483.744 195.953 482.072 195.953 479.501C195.953 476.884 197.305 475.181 199.484 475.181C200.648 475.181 201.664 475.759 202.133 476.689H202.266V475.322H204.133V483.9C204.133 485.876 202.555 487.119 200.062 487.119ZM210.102 476.689C208.945 476.689 208.133 477.517 208.047 478.767H212.07C212.031 477.501 211.266 476.689 210.102 476.689ZM212.086 481.517H213.922C213.555 483.072 212.141 484.041 210.125 484.041C207.609 484.041 206.094 482.376 206.094 479.626C206.094 476.876 207.633 475.15 210.109 475.15C212.547 475.15 214.008 476.767 214.008 479.462V480.087H208.039V480.189C208.086 481.611 208.906 482.501 210.18 482.501C211.141 482.501 211.805 482.15 212.086 481.517ZM219.727 483.869L223.414 478.189L219.758 472.595H222.141L224.711 476.736H224.844L227.453 472.595H229.719L225.938 478.236L229.656 483.869H227.328L224.711 479.822H224.578L221.922 483.869H219.727ZM234.234 482.486C235.406 482.486 236.281 481.728 236.281 480.736V480.056L234.352 480.181C233.266 480.251 232.758 480.642 232.758 481.337C232.758 482.056 233.375 482.486 234.234 482.486ZM233.664 484.009C232.016 484.009 230.836 483.009 230.836 481.447C230.836 479.9 232 479.009 234.078 478.884L236.281 478.751V478.033C236.281 477.197 235.719 476.728 234.672 476.728C233.781 476.728 233.172 477.041 232.992 477.619H231.164C231.32 476.111 232.734 475.15 234.766 475.15C236.961 475.15 238.195 476.22 238.195 478.033V483.869H236.328V482.697H236.195C235.719 483.525 234.781 484.009 233.664 484.009ZM240.609 483.869V472.017H242.547V483.869H240.609ZM248.102 475.181C249.258 475.181 250.273 475.783 250.742 476.736H250.875V475.322H252.758V486.712H250.805V482.572H250.672C250.18 483.486 249.281 484.009 248.07 484.009C245.914 484.009 244.578 482.306 244.578 479.587C244.578 476.892 245.945 475.181 248.102 475.181ZM248.68 482.361C250.016 482.361 250.844 481.306 250.844 479.595C250.844 477.892 250.008 476.83 248.688 476.83C247.359 476.83 246.562 477.869 246.562 479.595C246.562 481.33 247.352 482.361 248.68 482.361ZM258.047 482.486C259.219 482.486 260.094 481.728 260.094 480.736V480.056L258.164 480.181C257.078 480.251 256.57 480.642 256.57 481.337C256.57 482.056 257.188 482.486 258.047 482.486ZM257.477 484.009C255.828 484.009 254.648 483.009 254.648 481.447C254.648 479.9 255.812 479.009 257.891 478.884L260.094 478.751V478.033C260.094 477.197 259.531 476.728 258.484 476.728C257.594 476.728 256.984 477.041 256.805 477.619H254.977C255.133 476.111 256.547 475.15 258.578 475.15C260.773 475.15 262.008 476.22 262.008 478.033V483.869H260.141V482.697H260.008C259.531 483.525 258.594 484.009 257.477 484.009ZM264.344 483.869V475.322H266.211V476.65H266.344C266.578 475.806 267.5 475.181 268.602 475.181C268.883 475.181 269.227 475.212 269.406 475.267V477.064C269.258 477.009 268.742 476.955 268.414 476.955C267.156 476.955 266.281 477.736 266.281 478.931V483.869H264.344ZM274.469 484.041C271.906 484.041 270.359 482.369 270.359 479.595C270.359 476.837 271.93 475.15 274.469 475.15C277.016 475.15 278.578 476.83 278.578 479.595C278.578 482.369 277.023 484.041 274.469 484.041ZM274.469 482.416C275.82 482.416 276.586 481.384 276.586 479.595C276.586 477.814 275.812 476.775 274.469 476.775C273.117 476.775 272.344 477.814 272.344 479.595C272.344 481.384 273.117 482.416 274.469 482.416ZM289.867 472.314C293.141 472.314 295.188 474.587 295.188 478.228C295.188 481.861 293.156 484.15 289.867 484.15C286.555 484.15 284.523 481.869 284.523 478.228C284.523 474.587 286.594 472.314 289.867 472.314ZM289.867 474.103C287.859 474.103 286.586 475.705 286.586 478.228C286.586 480.744 287.828 482.361 289.867 482.361C291.875 482.361 293.125 480.744 293.125 478.228C293.125 475.705 291.867 474.103 289.867 474.103ZM298.742 477.166H297.383L298.109 472.595H300.094L298.742 477.166ZM304.43 475.181C305.586 475.181 306.602 475.783 307.07 476.736H307.203V475.322H309.086V486.712H307.133V482.572H307C306.508 483.486 305.609 484.009 304.398 484.009C302.242 484.009 300.906 482.306 300.906 479.587C300.906 476.892 302.273 475.181 304.43 475.181ZM305.008 482.361C306.344 482.361 307.172 481.306 307.172 479.595C307.172 477.892 306.336 476.83 305.016 476.83C303.688 476.83 302.891 477.869 302.891 479.595C302.891 481.33 303.68 482.361 305.008 482.361ZM311.477 483.869V475.322H313.406V483.869H311.477ZM312.438 473.931C311.734 473.931 311.242 473.478 311.242 472.861C311.242 472.244 311.734 471.791 312.438 471.791C313.148 471.791 313.633 472.244 313.633 472.861C313.633 473.478 313.148 473.931 312.438 473.931ZM316.43 473.228H318.359V475.376H320.188V476.923H318.359V481.119C318.359 481.962 318.719 482.337 319.531 482.337C319.805 482.337 319.953 482.322 320.188 482.298V483.814C319.906 483.869 319.547 483.908 319.172 483.908C317.211 483.908 316.43 483.244 316.43 481.587V476.923H315.078V475.376H316.43V473.228ZM329.562 475.322V483.869H327.695V482.509H327.562C327.148 483.486 326.312 484.041 325.008 484.041C323.141 484.041 322.047 482.876 322.047 480.876V475.322H323.984V480.392C323.984 481.697 324.523 482.337 325.68 482.337C326.938 482.337 327.625 481.564 327.625 480.298V475.322H329.562ZM339.391 475.322L336.367 483.869H334.234L331.195 475.322H333.273L335.25 481.931H335.383L337.344 475.322H339.391ZM348.07 478.197H346.227C346.047 477.369 345.406 476.775 344.344 476.775C343.016 476.775 342.227 477.798 342.227 479.572C342.227 481.369 343.023 482.416 344.344 482.416C345.352 482.416 346.023 481.939 346.227 481.048H348.07C347.859 482.837 346.516 484.041 344.352 484.041C341.781 484.041 340.266 482.384 340.266 479.572C340.266 476.798 341.773 475.15 344.344 475.15C346.539 475.15 347.867 476.4 348.07 478.197ZM350 483.869V472.017H351.906V476.705H352.047C352.453 475.744 353.367 475.166 354.641 475.166C356.469 475.166 357.578 476.322 357.578 478.353V483.869H355.641V478.814C355.641 477.517 355.047 476.853 353.922 476.853C352.648 476.853 351.938 477.681 351.938 478.908V483.869H350ZM359.898 483.869V475.322H361.828V483.869H359.898ZM360.859 473.931C360.156 473.931 359.664 473.478 359.664 472.861C359.664 472.244 360.156 471.791 360.859 471.791C361.57 471.791 362.055 472.244 362.055 472.861C362.055 473.478 361.57 473.931 360.859 473.931ZM364.039 477.767C364.039 476.22 365.445 475.15 367.461 475.15C369.492 475.15 370.766 476.048 370.906 477.603H369.086C368.945 477.001 368.375 476.619 367.469 476.619C366.586 476.619 365.922 477.041 365.922 477.658C365.922 478.142 366.328 478.439 367.188 478.634L368.695 478.978C370.328 479.345 371.086 480.048 371.086 481.306C371.086 482.947 369.578 484.041 367.445 484.041C365.312 484.041 363.969 483.119 363.82 481.564H365.734C365.922 482.197 366.523 482.572 367.492 482.572C368.469 482.572 369.148 482.142 369.148 481.509C369.148 481.025 368.781 480.72 367.969 480.541L366.453 480.189C364.812 479.814 364.039 479.056 364.039 477.767ZM373.07 483.869V475.322H375V483.869H373.07ZM374.031 473.931C373.328 473.931 372.836 473.478 372.836 472.861C372.836 472.244 373.328 471.791 374.031 471.791C374.742 471.791 375.227 472.244 375.227 472.861C375.227 473.478 374.742 473.931 374.031 473.931Z" fill="#1C395C"/>
<circle cx="665" cy="468.839" r="11.5" transform="rotate(45 665 468.839)" fill="#304E73" stroke="#F0F7FF"/>
<path d="M659.781 469.506L659.781 468.173L668.333 468.173L666.172 466.011L667.114 465.068L670.886 468.839L667.114 472.611L666.172 471.668L668.333 469.506L659.781 469.506Z" fill="white"/>
</svg>
