<svg width="633" height="79" viewBox="0 0 633 79" fill="none" xmlns="http://www.w3.org/2000/svg">
<g filter="url(#filter0_b_580_1115)">
<rect y="0.868652" width="633" height="78" rx="8" fill="white" fill-opacity="0.15"/>
<rect x="1" y="1.86865" width="631" height="76" rx="7" stroke="white" stroke-width="2"/>
</g>
<circle cx="65" cy="39.8687" r="5" fill="white"/>
<circle cx="65" cy="39.8687" r="3" fill="#1C395C"/>
<path d="M82.3281 50.8687H78.8281V28.3218H82.3281V50.8687ZM102.297 47.6812V50.8687H87.9844V28.3218H102.297V31.5093H91.4844V37.8843H101.719V40.9155H91.4844V47.6812H102.297ZM121.422 47.6499V50.8687H107.359V28.3218H110.859V47.6499H121.422ZM132.109 50.8687H128.609V31.5093H121.516V28.3218H139.188V31.5093H132.109V50.8687ZM142.422 44.8062H145.891C146.188 46.9468 148.281 48.3062 151.297 48.3062C154.109 48.3062 156.172 46.853 156.172 44.853C156.172 43.1343 154.859 42.103 151.875 41.3999L148.969 40.6968C144.891 39.7437 143.031 37.7749 143.031 34.4624C143.031 30.4468 146.312 27.7749 151.234 27.7749C155.812 27.7749 159.156 30.4468 159.359 34.2437H155.953C155.625 32.1655 153.812 30.8687 151.188 30.8687C148.422 30.8687 146.578 32.1968 146.578 34.228C146.578 35.8374 147.766 36.7593 150.703 37.4468L153.188 38.0562C157.812 39.1343 159.719 41.0093 159.719 44.3999C159.719 48.7124 156.375 51.4155 151.031 51.4155C146.031 51.4155 142.672 48.8374 142.422 44.8062ZM173.641 50.8687L183.578 31.6812V31.4312H171.766V28.3218H187.125V31.4937L177.312 50.8687H173.641ZM190.047 51.1343C188.734 51.1343 187.75 50.1187 187.75 48.8062C187.75 47.4937 188.734 46.478 190.047 46.478C191.375 46.478 192.344 47.4937 192.344 48.8062C192.344 50.1187 191.375 51.1343 190.047 51.1343ZM204.344 51.4155C199.859 51.4155 196.688 48.6499 196.484 44.6968H199.812C200.078 46.8843 201.906 48.3374 204.375 48.3374C207.188 48.3374 209.078 46.478 209.078 43.6655C209.078 40.8374 207.172 38.9155 204.422 38.9155C202.484 38.9155 200.922 39.7749 200.047 41.228H196.844L198.031 28.3218H211.188V31.4468H200.766L200.172 38.0562H200.438C201.469 36.728 203.062 36.0093 205.203 36.0093C209.484 36.0093 212.5 39.1343 212.5 43.5718C212.5 48.2437 209.203 51.4155 204.344 51.4155Z" fill="white"/>
<circle cx="260" cy="39.8687" r="5" fill="white"/>
<circle cx="260" cy="39.8687" r="3" fill="#1C395C"/>
<path d="M283.078 51.4155C276.812 51.4155 272.906 46.8999 272.906 39.603C272.906 32.2905 276.797 27.7749 283.062 27.7749C288.031 27.7749 291.875 30.9937 292.438 35.5874H288.953C288.297 32.8218 286.031 31.0405 283.062 31.0405C279.016 31.0405 276.484 34.3374 276.484 39.603C276.484 44.853 279.016 48.1499 283.078 48.1499C286.062 48.1499 288.328 46.5405 288.953 43.9937H292.438C291.812 48.4468 288.109 51.4155 283.078 51.4155ZM311.359 47.6812V50.8687H297.047V28.3218H311.359V31.5093H300.547V37.8843H310.781V40.9155H300.547V47.6812H311.359ZM330.484 47.6499V50.8687H316.422V28.3218H319.922V47.6499H330.484ZM341.172 50.8687H337.672V31.5093H330.578V28.3218H348.25V31.5093H341.172V50.8687ZM364.547 50.8687L362.484 44.8843H353.891L351.812 50.8687H348.219L356.359 28.3218H360.125L368.266 50.8687H364.547ZM358.062 32.4155L354.781 41.9468H361.594L358.328 32.4155H358.062Z" fill="white"/>
<circle cx="415" cy="39.8687" r="5" fill="white"/>
<circle cx="415" cy="39.8687" r="3" fill="#1C395C"/>
<path d="M428.828 28.3218H436.969C443.656 28.3218 447.578 32.4312 447.578 39.5249C447.578 46.728 443.688 50.8687 436.969 50.8687H428.828V28.3218ZM432.328 31.5093V47.6812H436.578C441.297 47.6812 444.016 44.7437 444.016 39.5718C444.016 34.478 441.25 31.5093 436.578 31.5093H432.328ZM455.797 50.8687H452.297V28.3218H455.797V50.8687ZM461.453 28.3218H470.281C474.688 28.3218 477.719 31.3687 477.719 35.8374C477.719 40.2437 474.594 43.2749 470.172 43.2749H464.953V50.8687H461.453V28.3218ZM464.953 31.4155V40.1968H469.359C472.375 40.1968 474.141 38.6343 474.141 35.8374C474.141 32.978 472.438 31.4155 469.359 31.4155H464.953ZM496.297 47.6499V50.8687H482.234V28.3218H485.734V47.6499H496.297ZM509.5 27.7749C516 27.7749 520 32.3218 520 39.5874C520 46.8374 516.031 51.4155 509.5 51.4155C502.953 51.4155 498.969 46.853 498.969 39.5874C498.969 32.3062 503.031 27.7749 509.5 27.7749ZM509.5 31.0405C505.25 31.0405 502.547 34.353 502.547 39.5874C502.547 44.7905 505.172 48.1499 509.5 48.1499C513.781 48.1499 516.422 44.7905 516.422 39.5874C516.422 34.353 513.781 31.0405 509.5 31.0405ZM547.547 50.8687H544.297V34.5874H544.078L537.469 50.2124H534.812L528.203 34.5874H527.984V50.8687H524.734V28.3218H528.828L536 45.4468H536.266L543.453 28.3218H547.547V50.8687ZM567.797 50.8687L565.734 44.8843H557.141L555.062 50.8687H551.469L559.609 28.3218H563.375L571.516 50.8687H567.797ZM561.312 32.4155L558.031 41.9468H564.844L561.578 32.4155H561.312Z" fill="white"/>
<defs>
<filter id="filter0_b_580_1115" x="-64" y="-63.1313" width="761" height="206" filterUnits="userSpaceOnUse" color-interpolation-filters="sRGB">
<feFlood flood-opacity="0" result="BackgroundImageFix"/>
<feGaussianBlur in="BackgroundImageFix" stdDeviation="32"/>
<feComposite in2="SourceAlpha" operator="in" result="effect1_backgroundBlur_580_1115"/>
<feBlend mode="normal" in="SourceGraphic" in2="effect1_backgroundBlur_580_1115" result="shape"/>
</filter>
</defs>
</svg>
