<svg width="120" height="29" viewBox="0 0 120 29" fill="none" xmlns="http://www.w3.org/2000/svg">
<path d="M0 16.0965H22.9138V23.8526H0.0475699V28.8687H27.8692V11.013H4.90783V5.87721H27.8692V0.868652H0V16.0965Z" fill="#1C3A5C"/>
<path d="M31.4609 28.8687H36.3766V23.7777H59.33V0.868652H31.4609V28.8687ZM36.3687 5.87721H54.3667V18.8066H36.3687V5.87721Z" fill="#1C3A5C"/>
<path d="M76.2101 24.137L71.2071 28.8686H90.331V23.8525H76.5034L76.2101 24.137Z" fill="#1C3A5C"/>
<path d="M67.3776 17.3018V5.87721H90.331V0.868652H62.4698V21.936L64.777 19.7574L67.3776 17.3018Z" fill="#1C3A5C"/>
<path d="M67.3773 22.0933L67.3063 22.1606L67.3773 22.0933Z" fill="#1C3A5C"/>
<path d="M105.546 13.9852H109.066V0.891113H94.6759V4.22267H102.565L90.9415 15.1981H74.6798L74.4499 15.4152L67.3776 22.0932L67.3142 22.1532L62.4697 26.7275L60.226 28.8462H62.4697H66.1486L71.4291 23.8526L76.4162 19.151H92.6779L92.9078 18.9339L93.7641 18.1178L105.546 7.0002V13.9852Z" fill="#40DDDD"/>
<path d="M99.3221 21.1052C98.9891 21.1052 98.6482 20.9929 98.4341 20.8282L98.2597 21.1951C98.4817 21.3747 98.9019 21.502 99.3221 21.502C100.06 21.502 100.408 21.1501 100.408 20.7459C100.408 19.81 98.8068 20.1619 98.8068 19.6229C98.8068 19.4282 98.9733 19.2785 99.3935 19.2785C99.6314 19.2785 99.893 19.3459 100.139 19.4806L100.297 19.1138C100.059 18.9715 99.7265 18.8892 99.4014 18.8892C98.6641 18.8892 98.3152 19.241 98.3152 19.6453C98.3152 20.5886 99.9168 20.2293 99.9168 20.7758C99.9168 20.963 99.7424 21.1052 99.3221 21.1052Z" fill="#1C3A5C"/>
<path d="M103.223 21.0745L102.898 20.7825C102.7 20.9846 102.462 21.0819 102.176 21.0819C101.621 21.0819 101.217 20.7076 101.217 20.1835C101.217 19.6595 101.621 19.2926 102.176 19.2926C102.454 19.2926 102.7 19.39 102.898 19.5921L103.223 19.3076C102.969 19.0306 102.597 18.8809 102.153 18.8809C101.328 18.8809 100.71 19.4274 100.71 20.191C100.71 20.9547 101.328 21.5012 102.153 21.5012C102.597 21.4937 102.977 21.3515 103.223 21.0745Z" fill="#1C3A5C"/>
<path d="M104.206 18.9189H103.707V21.4644H104.206V18.9189Z" fill="#1C3A5C"/>
<path d="M106.902 19.3157V18.9189H104.928V21.4644H106.949V21.0676H105.435V20.3639H106.735V19.9746H105.435V19.3157H106.902Z" fill="#1C3A5C"/>
<path d="M107.512 18.9189V21.4644H108.004V19.735L109.494 21.4644H109.907V18.9189H109.407V20.6409L107.917 18.9189H107.512Z" fill="#1C3A5C"/>
<path d="M111.873 21.4937C112.317 21.4937 112.69 21.344 112.943 21.067L112.618 20.775C112.42 20.9771 112.182 21.0745 111.897 21.0745C111.342 21.0745 110.938 20.7076 110.938 20.1835C110.938 19.6595 111.342 19.2926 111.897 19.2926C112.174 19.2926 112.42 19.39 112.618 19.5921L112.943 19.3076C112.69 19.0306 112.317 18.8809 111.873 18.8809C111.049 18.8809 110.43 19.4274 110.43 20.191C110.43 20.9472 111.049 21.4937 111.873 21.4937Z" fill="#1C3A5C"/>
<path d="M115.441 21.0676H113.927V20.3639H115.227V19.9746H113.927V19.3157H115.393V18.9189H113.419V21.4644H115.441V21.0676Z" fill="#1C3A5C"/>
<path d="M98.4895 22.4302V24.9756H98.989V24.2419H99.5995C100.305 24.2419 100.749 23.8975 100.749 23.3361C100.749 22.7746 100.313 22.4302 99.5995 22.4302H98.4895ZM100.242 23.3361C100.242 23.658 100.012 23.8451 99.5757 23.8451H98.989V22.8345H99.5757C100.012 22.827 100.242 23.0141 100.242 23.3361Z" fill="#1C3A5C"/>
<path d="M103.5 23.3361C103.5 22.7746 103.064 22.4302 102.351 22.4302H101.241V24.9756H101.74V24.2345H102.351C102.383 24.2345 102.422 24.2344 102.454 24.227L103.001 24.9681H103.54L102.922 24.1296C103.286 24.0024 103.5 23.7179 103.5 23.3361ZM102.327 23.8451H101.74V22.8345H102.327C102.763 22.8345 102.993 23.0216 102.993 23.3361C102.993 23.658 102.763 23.8451 102.327 23.8451Z" fill="#1C3A5C"/>
<path d="M105.316 22.3931C104.484 22.3931 103.865 22.9471 103.865 23.7032C103.865 24.4519 104.484 25.0134 105.316 25.0134C106.149 25.0134 106.767 24.4594 106.767 23.7032C106.767 22.9471 106.149 22.3931 105.316 22.3931ZM105.316 24.5941C104.769 24.5941 104.365 24.2198 104.365 23.7032C104.365 23.1792 104.769 22.8048 105.316 22.8048C105.855 22.8048 106.26 23.1792 106.26 23.7032C106.26 24.2198 105.855 24.5941 105.316 24.5941Z" fill="#1C3A5C"/>
<path d="M108.583 22.8048C108.868 22.8048 109.114 22.8947 109.328 23.0968L109.645 22.8048C109.391 22.5353 109.011 22.3931 108.567 22.3931C107.726 22.3931 107.108 22.9396 107.108 23.7032C107.108 24.4669 107.726 25.0134 108.559 25.0134C108.94 25.0134 109.336 24.9086 109.613 24.6915V23.6808H109.138V24.4743C108.963 24.5717 108.773 24.6016 108.583 24.6016C108.012 24.6016 107.607 24.2198 107.607 23.7032C107.607 23.1717 108.012 22.8048 108.583 22.8048Z" fill="#1C3A5C"/>
<path d="M112.563 24.9756L111.944 24.1371C112.309 24.0024 112.515 23.7179 112.515 23.3361C112.515 22.7746 112.079 22.4302 111.366 22.4302H110.256V24.9756H110.755V24.2345H111.366C111.397 24.2345 111.437 24.2344 111.469 24.227L112.024 24.9681H112.563V24.9756ZM111.35 23.8451H110.763V22.8345H111.35C111.786 22.8345 112.016 23.0216 112.016 23.3361C112.016 23.658 111.786 23.8451 111.35 23.8451Z" fill="#1C3A5C"/>
<path d="M113.578 23.8751H114.878V23.4858H113.578V22.827H115.045V22.4302H113.078V24.9756H115.1V24.5788H113.578V23.8751Z" fill="#1C3A5C"/>
<path d="M115.98 23.1336C115.98 22.9389 116.147 22.7892 116.567 22.7892C116.805 22.7892 117.066 22.8566 117.312 22.9914L117.471 22.6245C117.233 22.4822 116.9 22.3999 116.575 22.3999C115.837 22.3999 115.489 22.7518 115.489 23.1635C115.489 24.1068 117.09 23.7475 117.09 24.294C117.09 24.4812 116.916 24.6234 116.496 24.6234C116.163 24.6234 115.822 24.5111 115.607 24.3464L115.433 24.7133C115.655 24.8929 116.075 25.0202 116.496 25.0202C117.233 25.0202 117.582 24.6683 117.582 24.2641C117.582 23.3208 115.98 23.6726 115.98 23.1336Z" fill="#1C3A5C"/>
<path d="M118.398 23.1336C118.398 22.9389 118.565 22.7892 118.985 22.7892C119.223 22.7892 119.485 22.8566 119.73 22.9914L119.889 22.6245C119.651 22.4822 119.318 22.3999 118.993 22.3999C118.256 22.3999 117.907 22.7518 117.907 23.1635C117.907 24.1068 119.508 23.7475 119.508 24.294C119.508 24.4812 119.334 24.6234 118.914 24.6234C118.581 24.6234 118.24 24.5111 118.026 24.3464L117.851 24.7133C118.073 24.8929 118.494 25.0202 118.914 25.0202C119.651 25.0202 120 24.6683 120 24.2641C120 23.3208 118.398 23.6726 118.398 23.1336Z" fill="#1C3A5C"/>
<path d="M99.7581 26.3239C100.036 26.3239 100.281 26.4212 100.48 26.6233L100.805 26.3389C100.551 26.0618 100.178 25.9121 99.7343 25.9121C98.9098 25.9121 98.2913 26.4586 98.2913 27.2223C98.2913 27.9859 98.9098 28.5324 99.7343 28.5324C100.178 28.5324 100.551 28.3827 100.805 28.1057L100.48 27.8137C100.281 28.0159 100.044 28.1132 99.7581 28.1132C99.2031 28.1132 98.7988 27.7388 98.7988 27.2148C98.7988 26.6907 99.2031 26.3239 99.7581 26.3239Z" fill="#1C3A5C"/>
<path d="M101.788 27.3863H103.088V26.997H101.788V26.3382H103.255V25.9414H101.28V28.4869H103.302V28.0901H101.788V27.3863Z" fill="#1C3A5C"/>
<path d="M105.76 27.6633L104.277 25.9414H103.865V28.4869H104.357V26.7649L105.847 28.4869H106.26V25.9414H105.76V27.6633Z" fill="#1C3A5C"/>
<path d="M106.632 26.3457H107.528V28.4869H108.028V26.3457H108.916V25.9414H106.632V26.3457Z" fill="#1C3A5C"/>
<path d="M113.942 26.8473C113.942 26.2858 113.506 25.9414 112.793 25.9414H111.683V28.4869H112.182V27.7457H112.793C112.825 27.7457 112.864 27.7457 112.896 27.7382L113.443 28.4794H113.982L113.364 27.6409C113.736 27.5136 113.942 27.2291 113.942 26.8473ZM112.777 27.3564H112.19V26.3457H112.777C113.213 26.3457 113.443 26.5328 113.443 26.8473C113.443 27.1617 113.213 27.3564 112.777 27.3564Z" fill="#1C3A5C"/>
<path d="M109.756 27.3863H111.057V26.997H109.756V26.3382H111.223V25.9414H109.257V28.4869H111.271V28.0901H109.756V27.3863Z" fill="#1C3A5C"/>
</svg>
