<svg width="712" height="501" viewBox="0 0 712 501" fill="none" xmlns="http://www.w3.org/2000/svg">
<rect y="0.869141" width="712" height="500" rx="16" fill="#EDF1F7"/>
<path d="M50.8887 59.8687L49.5996 56.1284H44.2285L42.9297 59.8687H40.6836L45.7715 45.7769H48.125L53.2129 59.8687H50.8887ZM46.8359 48.3354L44.7852 54.2925H49.043L47.002 48.3354H46.8359ZM61.4648 59.8687H55.6738V45.7769H61.3379C63.9844 45.7769 65.5762 47.1245 65.5762 49.2925C65.5762 50.7671 64.4922 52.0854 63.1055 52.3198V52.4858C65.0098 52.6812 66.2793 54.0386 66.2793 55.8745C66.2793 58.355 64.4727 59.8687 61.4648 59.8687ZM57.8613 47.6323V51.7437H60.459C62.3926 51.7437 63.3984 51.0308 63.3984 49.6929C63.3984 48.394 62.4512 47.6323 60.8301 47.6323H57.8613ZM57.8613 58.0132H61.0254C62.998 58.0132 64.043 57.2124 64.043 55.7183C64.043 54.2437 62.959 53.4722 60.8984 53.4722H57.8613V58.0132ZM75.0977 45.4351C79.1602 45.4351 81.6602 48.2769 81.6602 52.8179C81.6602 57.3491 79.1797 60.2104 75.0977 60.2104C71.0059 60.2104 68.5156 57.3589 68.5156 52.8179C68.5156 48.2671 71.0547 45.4351 75.0977 45.4351ZM75.0977 47.4761C72.4414 47.4761 70.752 49.5464 70.752 52.8179C70.752 56.0698 72.3926 58.1694 75.0977 58.1694C77.7734 58.1694 79.4238 56.0698 79.4238 52.8179C79.4238 49.5464 77.7734 47.4761 75.0977 47.4761ZM86.8457 45.7769V54.8198C86.8457 56.7925 88.125 58.1597 90.3613 58.1597C92.6074 58.1597 93.8867 56.7925 93.8867 54.8198V45.7769H96.0742V55.0151C96.0742 58.0718 93.8965 60.2104 90.3613 60.2104C86.8262 60.2104 84.6582 58.0718 84.6582 55.0151V45.7769H86.8457ZM105.4 59.8687H103.213V47.769H98.7793V45.7769H109.824V47.769H105.4V59.8687Z" fill="#1C395C"/>
<path d="M57.0801 266.869H51.5371V240.658H41.998V235.867H66.6406V240.658H57.0801V266.869ZM89.0059 266.869L86.3848 258.941H74.9766L72.3125 266.869H66.7051L77.7051 235.867H83.9355L94.957 266.869H89.0059ZM80.5195 241.775L76.2656 254.558H85.0957L80.8848 241.775H80.5195ZM99.9199 248.435H96.1816L98.1797 235.867H103.637L99.9199 248.435ZM130.062 262.013V266.869H110.297V235.867H115.84V262.013H130.062ZM141.578 266.869H136.035V235.867H141.578V266.869ZM181.238 266.869H176.082V245.062H175.781L167.209 265.666H163.256L154.684 245.062H154.383V266.869H149.227V235.867H155.715L165.039 258.447H165.426L174.75 235.867H181.238V266.869ZM206.16 266.869H200.617V235.867H206.16V266.869ZM219.158 266.869H213.809V235.867H218.621L233.832 256.943H234.197V235.867H239.525V266.869H234.734L219.523 245.771H219.158V266.869ZM260.451 266.869H254.908V240.658H245.369V235.867H270.012V240.658H260.451V266.869ZM281.355 266.869H275.812V235.867H281.355V266.869ZM288.145 266.869V263.087L304.451 241.023V240.658H288.596V235.867H311.305V239.648L295.062 261.712V262.078H311.713V266.869H288.145ZM330.748 235.093C339.75 235.093 345.379 241.345 345.379 251.357C345.379 261.347 339.793 267.642 330.748 267.642C321.639 267.642 316.053 261.369 316.053 251.357C316.053 241.345 321.746 235.093 330.748 235.093ZM330.748 240.013C325.227 240.013 321.725 244.417 321.725 251.357C321.725 258.275 325.141 262.722 330.748 262.722C336.27 262.722 339.707 258.275 339.707 251.357C339.707 244.417 336.248 240.013 330.748 240.013ZM383.75 266.869H378.594V245.062H378.293L369.721 265.666H365.768L357.195 245.062H356.895V266.869H351.738V235.867H358.227L367.551 258.447H367.938L377.262 235.867H383.75V266.869ZM391.398 235.867H403.021C412.238 235.867 417.609 241.496 417.609 251.228C417.609 261.175 412.303 266.869 403.021 266.869H391.398V235.867ZM396.941 240.658V262.078H402.291C408.457 262.078 411.959 258.232 411.959 251.314C411.959 244.546 408.371 240.658 402.291 240.658H396.941ZM442.467 266.869L439.846 258.941H428.438L425.773 266.869H420.166L431.166 235.867H437.396L448.418 266.869H442.467ZM433.98 241.775L429.727 254.558H438.557L434.346 241.775H433.98ZM459.096 266.869H453.746V235.867H458.559L473.77 256.943H474.135V235.867H479.463V266.869H474.672L459.461 245.771H459.096V266.869ZM57.0801 319.869H43.8242V288.867H56.7793C62.666 288.867 66.2109 291.832 66.2109 296.601C66.2109 299.867 63.8047 302.746 60.6895 303.24V303.626C64.8574 304.013 67.7363 307.021 67.7363 311.06C67.7363 316.496 63.6973 319.869 57.0801 319.869ZM49.3672 293.271V301.908H54.7168C58.6484 301.908 60.7324 300.382 60.7324 297.589C60.7324 294.861 58.7773 293.271 55.4258 293.271H49.3672ZM49.3672 315.464H55.8125C59.8945 315.464 62.0645 313.789 62.0645 310.63C62.0645 307.537 59.8301 305.904 55.5977 305.904H49.3672V315.464ZM87.1582 288.093C96.1602 288.093 101.789 294.345 101.789 304.357C101.789 314.347 96.2031 320.642 87.1582 320.642C78.0488 320.642 72.4629 314.369 72.4629 304.357C72.4629 294.345 78.1562 288.093 87.1582 288.093ZM87.1582 293.013C81.6367 293.013 78.1348 297.417 78.1348 304.357C78.1348 311.275 81.5508 315.722 87.1582 315.722C92.6797 315.722 96.1172 311.275 96.1172 304.357C96.1172 297.417 92.6582 293.013 87.1582 293.013ZM106.73 311.447H112.145C112.488 314.218 115.238 316.001 119.17 316.001C122.822 316.001 125.465 314.132 125.465 311.533C125.465 309.298 123.768 307.988 119.793 307.064L115.775 306.14C110.146 304.873 107.504 302.08 107.504 297.46C107.504 291.832 112.102 288.093 119.041 288.093C125.551 288.093 130.256 291.832 130.514 297.16H125.207C124.82 294.431 122.414 292.712 119.02 292.712C115.453 292.712 113.09 294.431 113.09 297.074C113.09 299.158 114.658 300.382 118.504 301.263L122.07 302.08C128.365 303.498 131.008 306.119 131.008 310.845C131.008 316.882 126.346 320.642 118.826 320.642C111.715 320.642 107.01 317.076 106.73 311.447ZM163.385 319.869H157.863V306.484H142.781V319.869H137.238V288.867H142.781V301.693H157.863V288.867H163.385V319.869ZM190.82 315.013V319.869H171.055V288.867H176.598V315.013H190.82ZM216.795 319.869L214.174 311.941H202.766L200.102 319.869H194.494L205.494 288.867H211.725L222.746 319.869H216.795ZM208.309 294.775L204.055 307.558H212.885L208.674 294.775H208.309ZM233.424 319.869H228.074V288.867H232.887L248.098 309.943H248.463V288.867H253.791V319.869H249L233.789 298.771H233.424V319.869ZM281.463 319.869L278.842 311.941H267.434L264.77 319.869H259.162L270.162 288.867H276.393L287.414 319.869H281.463ZM272.977 294.775L268.723 307.558H277.553L273.342 294.775H272.977ZM292.742 288.867H304.365C313.582 288.867 318.953 294.496 318.953 304.228C318.953 314.175 313.646 319.869 304.365 319.869H292.742V288.867ZM298.285 293.658V315.078H303.635C309.801 315.078 313.303 311.232 313.303 304.314C313.303 297.546 309.715 293.658 303.635 293.658H298.285ZM330.812 319.869H325.27V288.867H330.812V319.869ZM339.127 288.845H345.078L344.584 309.621H339.621L339.127 288.845ZM342.113 320.427C339.943 320.427 338.547 319.074 338.547 317.011C338.547 314.927 339.943 313.574 342.113 313.574C344.283 313.574 345.68 314.927 345.68 317.011C345.68 319.074 344.283 320.427 342.113 320.427Z" fill="#1C395C"/>
<path opacity="0.8" d="M48.2812 368.665V369.93H41.4375V358.657H42.8438V368.665H48.2812ZM54.0697 370.079C51.6713 370.079 50.1869 368.422 50.1869 365.719C50.1869 363.008 51.6713 361.36 54.0697 361.36C56.4681 361.36 57.9525 363.008 57.9525 365.719C57.9525 368.422 56.4681 370.079 54.0697 370.079ZM54.0697 368.868C55.6634 368.868 56.5619 367.711 56.5619 365.719C56.5619 363.719 55.6634 362.571 54.0697 362.571C52.4759 362.571 51.5775 363.719 51.5775 365.719C51.5775 367.711 52.4759 368.868 54.0697 368.868ZM60.7019 369.93V361.508H61.9831V362.758H62.1081C62.3581 361.938 63.3269 361.36 64.4441 361.36C64.6628 361.36 64.9441 361.375 65.1159 361.399V362.743C65.0066 362.711 64.5222 362.665 64.2566 362.665C62.9753 362.665 62.0456 363.524 62.0456 364.711V369.93H60.7019ZM70.5606 362.547C69.2169 362.547 68.2794 363.532 68.1778 365.024H72.8184C72.7872 363.532 71.8966 362.547 70.5606 362.547ZM72.7794 367.75H74.1231C73.7169 369.196 72.42 370.079 70.5763 370.079C68.2403 370.079 66.7794 368.391 66.7794 365.727C66.7794 363.079 68.2638 361.36 70.5763 361.36C72.8497 361.36 74.2325 362.977 74.2325 365.594V366.11H68.1778V366.172C68.2481 367.836 69.1778 368.891 70.6075 368.891C71.6934 368.891 72.4278 368.493 72.7794 367.75ZM76.9819 369.93V361.508H78.2631V362.836H78.3881C78.7709 361.899 79.6147 361.36 80.7397 361.36C81.8803 361.36 82.6772 361.961 83.0678 362.836H83.1928C83.6459 361.946 84.6069 361.36 85.7709 361.36C87.4897 361.36 88.4506 362.344 88.4506 364.11V369.93H87.1069V364.422C87.1069 363.18 86.5209 362.571 85.3334 362.571C84.1616 362.571 83.3803 363.446 83.3803 364.516V369.93H82.0366V364.211C82.0366 363.211 81.3413 362.571 80.2788 362.571C79.1772 362.571 78.3256 363.524 78.3256 364.711V369.93H76.9819ZM96.7306 369.93V361.508H98.0744V369.93H96.7306ZM97.4025 359.797C96.8869 359.797 96.465 359.375 96.465 358.86C96.465 358.344 96.8869 357.922 97.4025 357.922C97.9181 357.922 98.34 358.344 98.34 358.86C98.34 359.375 97.9181 359.797 97.4025 359.797ZM105.378 361.36C107.527 361.36 108.917 363.071 108.917 365.719C108.917 368.352 107.519 370.079 105.378 370.079C104.175 370.079 103.207 369.555 102.746 368.665H102.621V372.743H101.277V361.508H102.558V362.915H102.683C103.222 361.946 104.23 361.36 105.378 361.36ZM105.058 368.868C106.605 368.868 107.527 367.688 107.527 365.719C107.527 363.75 106.605 362.571 105.066 362.571C103.542 362.571 102.582 363.782 102.582 365.719C102.582 367.649 103.542 368.868 105.058 368.868ZM111.472 363.813C111.472 362.415 112.823 361.36 114.612 361.36C116.378 361.36 117.604 362.235 117.784 363.618H116.456C116.276 362.946 115.62 362.5 114.604 362.5C113.604 362.5 112.823 363.008 112.823 363.758C112.823 364.336 113.292 364.696 114.284 364.938L115.581 365.25C117.167 365.633 117.933 366.321 117.933 367.532C117.933 369.04 116.472 370.079 114.558 370.079C112.683 370.079 111.393 369.18 111.245 367.782H112.628C112.854 368.493 113.526 368.946 114.604 368.946C115.737 368.946 116.55 368.407 116.55 367.633C116.55 367.055 116.112 366.665 115.214 366.446L113.768 366.094C112.19 365.711 111.472 365.032 111.472 363.813ZM127.494 361.508V369.93H126.213V368.61H126.088C125.666 369.547 124.768 370.079 123.479 370.079C121.588 370.079 120.604 368.954 120.604 366.961V361.508H121.948V366.633C121.948 368.149 122.51 368.852 123.854 368.852C125.338 368.852 126.151 367.969 126.151 366.493V361.508H127.494ZM130.666 369.93V361.508H131.947V362.836H132.072C132.455 361.899 133.298 361.36 134.423 361.36C135.564 361.36 136.361 361.961 136.752 362.836H136.877C137.33 361.946 138.291 361.36 139.455 361.36C141.173 361.36 142.134 362.344 142.134 364.11V369.93H140.791V364.422C140.791 363.18 140.205 362.571 139.017 362.571C137.845 362.571 137.064 363.446 137.064 364.516V369.93H135.72V364.211C135.72 363.211 135.025 362.571 133.963 362.571C132.861 362.571 132.009 363.524 132.009 364.711V369.93H130.666ZM153.5 370.079C151.344 370.079 149.961 368.368 149.961 365.719C149.961 363.079 151.36 361.36 153.5 361.36C154.672 361.36 155.664 361.915 156.141 362.836H156.258V358.165H157.602V369.93H156.321V368.586H156.196C155.664 369.524 154.664 370.079 153.5 370.079ZM153.813 362.571C152.282 362.571 151.352 363.758 151.352 365.719C151.352 367.688 152.274 368.868 153.813 368.868C155.344 368.868 156.289 367.665 156.289 365.719C156.289 363.79 155.336 362.571 153.813 362.571ZM164.312 370.079C161.914 370.079 160.429 368.422 160.429 365.719C160.429 363.008 161.914 361.36 164.312 361.36C166.711 361.36 168.195 363.008 168.195 365.719C168.195 368.422 166.711 370.079 164.312 370.079ZM164.312 368.868C165.906 368.868 166.804 367.711 166.804 365.719C166.804 363.719 165.906 362.571 164.312 362.571C162.718 362.571 161.82 363.719 161.82 365.719C161.82 367.711 162.718 368.868 164.312 368.868ZM171.023 369.93V358.165H172.366V369.93H171.023ZM179.077 370.079C176.678 370.079 175.194 368.422 175.194 365.719C175.194 363.008 176.678 361.36 179.077 361.36C181.475 361.36 182.959 363.008 182.959 365.719C182.959 368.422 181.475 370.079 179.077 370.079ZM179.077 368.868C180.67 368.868 181.569 367.711 181.569 365.719C181.569 363.719 180.67 362.571 179.077 362.571C177.483 362.571 176.584 363.719 176.584 365.719C176.584 367.711 177.483 368.868 179.077 368.868ZM185.709 369.93V361.508H186.99V362.758H187.115C187.365 361.938 188.334 361.36 189.451 361.36C189.67 361.36 189.951 361.375 190.123 361.399V362.743C190.013 362.711 189.529 362.665 189.263 362.665C187.982 362.665 187.053 363.524 187.053 364.711V369.93H185.709ZM197.403 363.813C197.403 362.415 198.754 361.36 200.543 361.36C202.309 361.36 203.536 362.235 203.715 363.618H202.387C202.208 362.946 201.551 362.5 200.536 362.5C199.536 362.5 198.754 363.008 198.754 363.758C198.754 364.336 199.223 364.696 200.215 364.938L201.512 365.25C203.098 365.633 203.864 366.321 203.864 367.532C203.864 369.04 202.403 370.079 200.489 370.079C198.614 370.079 197.325 369.18 197.176 367.782H198.559C198.786 368.493 199.458 368.946 200.536 368.946C201.668 368.946 202.481 368.407 202.481 367.633C202.481 367.055 202.043 366.665 201.145 366.446L199.7 366.094C198.122 365.711 197.403 365.032 197.403 363.813ZM206.644 369.93V361.508H207.988V369.93H206.644ZM207.316 359.797C206.801 359.797 206.379 359.375 206.379 358.86C206.379 358.344 206.801 357.922 207.316 357.922C207.832 357.922 208.254 358.344 208.254 358.86C208.254 359.375 207.832 359.797 207.316 359.797ZM211.753 359.329H213.097V361.508H214.972V362.633H213.097V367.399C213.097 368.391 213.472 368.813 214.347 368.813C214.589 368.813 214.722 368.805 214.972 368.782V369.915C214.706 369.961 214.448 369.993 214.183 369.993C212.448 369.993 211.753 369.352 211.753 367.743V362.633H210.394V361.508H211.753V359.329ZM225.393 368.899C226.775 368.899 227.799 367.993 227.799 366.79V366.016L225.533 366.165C224.252 366.25 223.689 366.696 223.689 367.54C223.689 368.399 224.416 368.899 225.393 368.899ZM225.143 370.079C223.51 370.079 222.299 369.11 222.299 367.571C222.299 366.063 223.408 365.196 225.369 365.079L227.799 364.93V364.165C227.799 363.125 227.15 362.555 225.893 362.555C224.885 362.555 224.182 362.938 223.994 363.602H222.635C222.814 362.25 224.143 361.36 225.939 361.36C227.994 361.36 229.143 362.415 229.143 364.165V369.93H227.861V368.688H227.736C227.189 369.586 226.268 370.079 225.143 370.079ZM232.267 369.93V361.508H233.548V362.836H233.673C234.056 361.899 234.9 361.36 236.025 361.36C237.165 361.36 237.962 361.961 238.353 362.836H238.478C238.931 361.946 239.892 361.36 241.056 361.36C242.775 361.36 243.736 362.344 243.736 364.11V369.93H242.392V364.422C242.392 363.18 241.806 362.571 240.618 362.571C239.447 362.571 238.665 363.446 238.665 364.516V369.93H237.322V364.211C237.322 363.211 236.626 362.571 235.564 362.571C234.462 362.571 233.611 363.524 233.611 364.711V369.93H232.267ZM250.188 362.547C248.844 362.547 247.907 363.532 247.805 365.024H252.446C252.415 363.532 251.524 362.547 250.188 362.547ZM252.407 367.75H253.751C253.344 369.196 252.048 370.079 250.204 370.079C247.868 370.079 246.407 368.391 246.407 365.727C246.407 363.079 247.891 361.36 250.204 361.36C252.477 361.36 253.86 362.977 253.86 365.594V366.11H247.805V366.172C247.876 367.836 248.805 368.891 250.235 368.891C251.321 368.891 252.055 368.493 252.407 367.75ZM257.172 359.329H258.516V361.508H260.391V362.633H258.516V367.399C258.516 368.391 258.891 368.813 259.766 368.813C260.008 368.813 260.141 368.805 260.391 368.782V369.915C260.125 369.961 259.867 369.993 259.602 369.993C257.867 369.993 257.172 369.352 257.172 367.743V362.633H255.812V361.508H257.172V359.329ZM48.2344 383.086H46.875C46.6562 382.25 45.9141 381.571 44.7031 381.571C43.1875 381.571 42.2344 382.782 42.2344 384.688C42.2344 386.633 43.2031 387.868 44.7031 387.868C45.8359 387.868 46.625 387.344 46.875 386.391H48.2344C47.9922 387.938 46.7344 389.079 44.7109 389.079C42.3516 389.079 40.8438 387.368 40.8438 384.688C40.8438 382.063 42.3438 380.36 44.7031 380.36C46.75 380.36 48 381.586 48.2344 383.086ZM54.3197 389.079C51.9213 389.079 50.4369 387.422 50.4369 384.719C50.4369 382.008 51.9213 380.36 54.3197 380.36C56.7181 380.36 58.2025 382.008 58.2025 384.719C58.2025 387.422 56.7181 389.079 54.3197 389.079ZM54.3197 387.868C55.9134 387.868 56.8119 386.711 56.8119 384.719C56.8119 382.719 55.9134 381.571 54.3197 381.571C52.7259 381.571 51.8275 382.719 51.8275 384.719C51.8275 386.711 52.7259 387.868 54.3197 387.868ZM60.9519 388.93V380.508H62.2331V381.836H62.3581C62.78 380.907 63.6003 380.36 64.8894 380.36C66.78 380.36 67.8347 381.477 67.8347 383.477V388.93H66.4909V383.805C66.4909 382.29 65.8503 381.571 64.5066 381.571C63.1628 381.571 62.2956 382.469 62.2956 383.946V388.93H60.9519ZM70.7403 382.813C70.7403 381.415 72.0919 380.36 73.8809 380.36C75.6466 380.36 76.8731 381.235 77.0528 382.618H75.7247C75.545 381.946 74.8888 381.5 73.8731 381.5C72.8731 381.5 72.0919 382.008 72.0919 382.758C72.0919 383.336 72.5606 383.696 73.5528 383.938L74.8497 384.25C76.4356 384.633 77.2013 385.321 77.2013 386.532C77.2013 388.04 75.7403 389.079 73.8263 389.079C71.9513 389.079 70.6622 388.18 70.5138 386.782H71.8966C72.1231 387.493 72.795 387.946 73.8731 387.946C75.0059 387.946 75.8184 387.407 75.8184 386.633C75.8184 386.055 75.3809 385.665 74.4825 385.446L73.0372 385.094C71.4591 384.711 70.7403 384.032 70.7403 382.813ZM83.31 381.547C81.9663 381.547 81.0288 382.532 80.9272 384.024H85.5678C85.5366 382.532 84.6459 381.547 83.31 381.547ZM85.5288 386.75H86.8725C86.4663 388.196 85.1694 389.079 83.3256 389.079C80.9897 389.079 79.5288 387.391 79.5288 384.727C79.5288 382.079 81.0131 380.36 83.3256 380.36C85.5991 380.36 86.9819 381.977 86.9819 384.594V385.11H80.9272V385.172C80.9975 386.836 81.9272 387.891 83.3569 387.891C84.4428 387.891 85.1772 387.493 85.5288 386.75ZM96.7 383.086H95.3406C95.1219 382.25 94.3797 381.571 93.1688 381.571C91.6531 381.571 90.7 382.782 90.7 384.688C90.7 386.633 91.6688 387.868 93.1688 387.868C94.3016 387.868 95.0906 387.344 95.3406 386.391H96.7C96.4578 387.938 95.2 389.079 93.1766 389.079C90.8172 389.079 89.3094 387.368 89.3094 384.688C89.3094 382.063 90.8094 380.36 93.1688 380.36C95.2156 380.36 96.4656 381.586 96.7 383.086ZM100.043 378.329H101.387V380.508H103.262V381.633H101.387V386.399C101.387 387.391 101.762 387.813 102.637 387.813C102.879 387.813 103.012 387.805 103.262 387.782V388.915C102.996 388.961 102.738 388.993 102.473 388.993C100.738 388.993 100.043 388.352 100.043 386.743V381.633H98.6838V380.508H100.043V378.329ZM109.168 381.547C107.824 381.547 106.886 382.532 106.785 384.024H111.425C111.394 382.532 110.503 381.547 109.168 381.547ZM111.386 386.75H112.73C112.324 388.196 111.027 389.079 109.183 389.079C106.847 389.079 105.386 387.391 105.386 384.727C105.386 382.079 106.871 380.36 109.183 380.36C111.457 380.36 112.839 381.977 112.839 384.594V385.11H106.785V385.172C106.855 386.836 107.785 387.891 109.214 387.891C110.3 387.891 111.035 387.493 111.386 386.75ZM116.151 378.329H117.495V380.508H119.37V381.633H117.495V386.399C117.495 387.391 117.87 387.813 118.745 387.813C118.987 387.813 119.12 387.805 119.37 387.782V388.915C119.104 388.961 118.847 388.993 118.581 388.993C116.847 388.993 116.151 388.352 116.151 386.743V381.633H114.792V380.508H116.151V378.329ZM128.854 380.508V388.93H127.573V387.61H127.448C127.026 388.547 126.127 389.079 124.838 389.079C122.948 389.079 121.963 387.954 121.963 385.961V380.508H123.307V385.633C123.307 387.149 123.869 387.852 125.213 387.852C126.698 387.852 127.51 386.969 127.51 385.493V380.508H128.854ZM132.025 388.93V380.508H133.306V381.758H133.431C133.681 380.938 134.65 380.36 135.767 380.36C135.986 380.36 136.267 380.375 136.439 380.399V381.743C136.33 381.711 135.845 381.665 135.58 381.665C134.298 381.665 133.369 382.524 133.369 383.711V388.93H132.025ZM138.853 389.008C138.298 389.008 137.837 388.547 137.837 387.993C137.837 387.43 138.298 386.977 138.853 386.977C139.415 386.977 139.868 387.43 139.868 387.993C139.868 388.547 139.415 389.008 138.853 389.008ZM155.789 388.93L154.656 385.704H150.172L149.039 388.93H147.562L151.718 377.657H153.109L157.265 388.93H155.789ZM152.351 379.477L150.586 384.508H154.242L152.476 379.477H152.351ZM159.804 378.329H161.147V380.508H163.022V381.633H161.147V386.399C161.147 387.391 161.522 387.813 162.397 387.813C162.64 387.813 162.772 387.805 163.022 387.782V388.915C162.757 388.961 162.499 388.993 162.233 388.993C160.499 388.993 159.804 388.352 159.804 386.743V381.633H158.444V380.508H159.804V378.329ZM170.849 388.93V380.508H172.131V381.836H172.256C172.678 380.907 173.498 380.36 174.787 380.36C176.678 380.36 177.732 381.477 177.732 383.477V388.93H176.388V383.805C176.388 382.29 175.748 381.571 174.404 381.571C173.06 381.571 172.193 382.469 172.193 383.946V388.93H170.849ZM187.646 380.508V388.93H186.364V387.61H186.239C185.818 388.547 184.919 389.079 183.63 389.079C181.739 389.079 180.755 387.954 180.755 385.961V380.508H182.099V385.633C182.099 387.149 182.661 387.852 184.005 387.852C185.489 387.852 186.302 386.969 186.302 385.493V380.508H187.646ZM190.895 388.93V377.165H192.239V388.93H190.895ZM195.566 388.93V377.165H196.91V388.93H195.566ZM202.753 387.899C204.136 387.899 205.159 386.993 205.159 385.79V385.016L202.894 385.165C201.613 385.25 201.05 385.696 201.05 386.54C201.05 387.399 201.777 387.899 202.753 387.899ZM202.503 389.079C200.87 389.079 199.659 388.11 199.659 386.571C199.659 385.063 200.769 384.196 202.73 384.079L205.159 383.93V383.165C205.159 382.125 204.511 381.555 203.253 381.555C202.245 381.555 201.542 381.938 201.355 382.602H199.995C200.175 381.25 201.503 380.36 203.3 380.36C205.355 380.36 206.503 381.415 206.503 383.165V388.93H205.222V387.688H205.097C204.55 388.586 203.628 389.079 202.503 389.079ZM221.658 380.508L218.541 388.93H217.166L214.049 380.508H215.486L217.791 387.446H217.916L220.221 380.508H221.658ZM227.142 381.547C225.798 381.547 224.861 382.532 224.759 384.024H229.4C229.368 382.532 228.478 381.547 227.142 381.547ZM229.361 386.75H230.704C230.298 388.196 229.001 389.079 227.158 389.079C224.822 389.079 223.361 387.391 223.361 384.727C223.361 382.079 224.845 380.36 227.158 380.36C229.431 380.36 230.814 381.977 230.814 384.594V385.11H224.759V385.172C224.829 386.836 225.759 387.891 227.189 387.891C228.275 387.891 229.009 387.493 229.361 386.75ZM233.563 388.93V380.508H234.844V381.836H234.969C235.391 380.907 236.212 380.36 237.501 380.36C239.391 380.36 240.446 381.477 240.446 383.477V388.93H239.102V383.805C239.102 382.29 238.462 381.571 237.118 381.571C235.774 381.571 234.907 382.469 234.907 383.946V388.93H233.563ZM246.906 381.547C245.562 381.547 244.625 382.532 244.523 384.024H249.164C249.133 382.532 248.242 381.547 246.906 381.547ZM249.125 386.75H250.469C250.062 388.196 248.766 389.079 246.922 389.079C244.586 389.079 243.125 387.391 243.125 384.727C243.125 382.079 244.609 380.36 246.922 380.36C249.195 380.36 250.578 381.977 250.578 384.594V385.11H244.523V385.172C244.594 386.836 245.523 387.891 246.953 387.891C248.039 387.891 248.773 387.493 249.125 386.75ZM253.327 388.93V380.508H254.609V381.836H254.734C255.156 380.907 255.976 380.36 257.265 380.36C259.156 380.36 260.21 381.477 260.21 383.477V388.93H258.867V383.805C258.867 382.29 258.226 381.571 256.882 381.571C255.538 381.571 254.671 382.469 254.671 383.946V388.93H253.327ZM265.905 387.899C267.288 387.899 268.311 386.993 268.311 385.79V385.016L266.046 385.165C264.764 385.25 264.202 385.696 264.202 386.54C264.202 387.399 264.928 387.899 265.905 387.899ZM265.655 389.079C264.022 389.079 262.811 388.11 262.811 386.571C262.811 385.063 263.921 384.196 265.882 384.079L268.311 383.93V383.165C268.311 382.125 267.663 381.555 266.405 381.555C265.397 381.555 264.694 381.938 264.507 382.602H263.147C263.327 381.25 264.655 380.36 266.452 380.36C268.507 380.36 269.655 381.415 269.655 383.165V388.93H268.374V387.688H268.249C267.702 388.586 266.78 389.079 265.655 389.079ZM273.342 378.329H274.686V380.508H276.561V381.633H274.686V386.399C274.686 387.391 275.061 387.813 275.936 387.813C276.178 387.813 276.311 387.805 276.561 387.782V388.915C276.295 388.961 276.037 388.993 275.772 388.993C274.037 388.993 273.342 388.352 273.342 386.743V381.633H271.982V380.508H273.342V378.329ZM279.263 388.93V380.508H280.607V388.93H279.263ZM279.935 378.797C279.419 378.797 278.997 378.375 278.997 377.86C278.997 377.344 279.419 376.922 279.935 376.922C280.451 376.922 280.872 377.344 280.872 377.86C280.872 378.375 280.451 378.797 279.935 378.797ZM283.614 382.813C283.614 381.415 284.966 380.36 286.755 380.36C288.52 380.36 289.747 381.235 289.927 382.618H288.598C288.419 381.946 287.762 381.5 286.747 381.5C285.747 381.5 284.966 382.008 284.966 382.758C284.966 383.336 285.434 383.696 286.427 383.938L287.723 384.25C289.309 384.633 290.075 385.321 290.075 386.532C290.075 388.04 288.614 389.079 286.7 389.079C284.825 389.079 283.536 388.18 283.387 386.782H284.77C284.997 387.493 285.669 387.946 286.747 387.946C287.88 387.946 288.692 387.407 288.692 386.633C288.692 386.055 288.255 385.665 287.356 385.446L285.911 385.094C284.333 384.711 283.614 384.032 283.614 382.813ZM41.8281 397.329H43.1719V399.508H45.0469V400.633H43.1719V405.399C43.1719 406.391 43.5469 406.813 44.4219 406.813C44.6641 406.813 44.7969 406.805 45.0469 406.782V407.915C44.7812 407.961 44.5234 407.993 44.2578 407.993C42.5234 407.993 41.8281 407.352 41.8281 405.743V400.633H40.4688V399.508H41.8281V397.329ZM47.7494 407.93V399.508H49.0931V407.93H47.7494ZM48.4212 397.797C47.9056 397.797 47.4837 397.375 47.4837 396.86C47.4837 396.344 47.9056 395.922 48.4212 395.922C48.9369 395.922 49.3587 396.344 49.3587 396.86C49.3587 397.375 48.9369 397.797 48.4212 397.797ZM52.2956 407.93V399.508H53.5769V400.836H53.7019C54.1237 399.907 54.9441 399.36 56.2331 399.36C58.1237 399.36 59.1784 400.477 59.1784 402.477V407.93H57.8347V402.805C57.8347 401.29 57.1941 400.571 55.8503 400.571C54.5066 400.571 53.6394 401.469 53.6394 402.946V407.93H52.2956ZM69.2481 402.086H67.8888C67.67 401.25 66.9278 400.571 65.7169 400.571C64.2013 400.571 63.2481 401.782 63.2481 403.688C63.2481 405.633 64.2169 406.868 65.7169 406.868C66.8497 406.868 67.6388 406.344 67.8888 405.391H69.2481C69.0059 406.938 67.7481 408.079 65.7247 408.079C63.3653 408.079 61.8575 406.368 61.8575 403.688C61.8575 401.063 63.3575 399.36 65.7169 399.36C67.7638 399.36 69.0138 400.586 69.2481 402.086ZM71.9037 407.93V399.508H73.2475V407.93H71.9037ZM72.5756 397.797C72.06 397.797 71.6381 397.375 71.6381 396.86C71.6381 396.344 72.06 395.922 72.5756 395.922C73.0912 395.922 73.5131 396.344 73.5131 396.86C73.5131 397.375 73.0912 397.797 72.5756 397.797ZM79.5672 408.079C77.4109 408.079 76.0281 406.368 76.0281 403.719C76.0281 401.079 77.4266 399.36 79.5672 399.36C80.7391 399.36 81.7313 399.915 82.2078 400.836H82.325V396.165H83.6688V407.93H82.3875V406.586H82.2625C81.7313 407.524 80.7313 408.079 79.5672 408.079ZM79.8797 400.571C78.3484 400.571 77.4188 401.758 77.4188 403.719C77.4188 405.688 78.3406 406.868 79.8797 406.868C81.4109 406.868 82.3563 405.665 82.3563 403.719C82.3563 401.79 81.4031 400.571 79.8797 400.571ZM93.7306 399.508V407.93H92.4494V406.61H92.3244C91.9025 407.547 91.0041 408.079 89.715 408.079C87.8244 408.079 86.84 406.954 86.84 404.961V399.508H88.1838V404.633C88.1838 406.149 88.7463 406.852 90.09 406.852C91.5744 406.852 92.3869 405.969 92.3869 404.493V399.508H93.7306ZM96.9019 407.93V399.508H98.1831V400.836H98.3081C98.73 399.907 99.5503 399.36 100.839 399.36C102.73 399.36 103.785 400.477 103.785 402.477V407.93H102.441V402.805C102.441 401.29 101.8 400.571 100.457 400.571C99.1128 400.571 98.2456 401.469 98.2456 402.946V407.93H96.9019ZM107.448 397.329H108.792V399.508H110.667V400.633H108.792V405.399C108.792 406.391 109.167 406.813 110.042 406.813C110.284 406.813 110.417 406.805 110.667 406.782V407.915C110.401 407.961 110.143 407.993 109.878 407.993C108.143 407.993 107.448 407.352 107.448 405.743V400.633H106.089V399.508H107.448V397.329ZM118.494 407.93V399.508H119.775V400.836H119.9C120.283 399.899 121.127 399.36 122.252 399.36C123.392 399.36 124.189 399.961 124.58 400.836H124.705C125.158 399.946 126.119 399.36 127.283 399.36C129.002 399.36 129.963 400.344 129.963 402.11V407.93H128.619V402.422C128.619 401.18 128.033 400.571 126.845 400.571C125.673 400.571 124.892 401.446 124.892 402.516V407.93H123.548V402.211C123.548 401.211 122.853 400.571 121.791 400.571C120.689 400.571 119.838 401.524 119.838 402.711V407.93H118.494ZM135.649 406.899C137.032 406.899 138.056 405.993 138.056 404.79V404.016L135.79 404.165C134.509 404.25 133.946 404.696 133.946 405.54C133.946 406.399 134.673 406.899 135.649 406.899ZM135.399 408.079C133.767 408.079 132.556 407.11 132.556 405.571C132.556 404.063 133.665 403.196 135.626 403.079L138.056 402.93V402.165C138.056 401.125 137.407 400.555 136.149 400.555C135.142 400.555 134.438 400.938 134.251 401.602H132.892C133.071 400.25 134.399 399.36 136.196 399.36C138.251 399.36 139.399 400.415 139.399 402.165V407.93H138.118V406.688H137.993C137.446 407.586 136.524 408.079 135.399 408.079ZM142.328 401.813C142.328 400.415 143.68 399.36 145.469 399.36C147.235 399.36 148.461 400.235 148.641 401.618H147.313C147.133 400.946 146.477 400.5 145.461 400.5C144.461 400.5 143.68 401.008 143.68 401.758C143.68 402.336 144.149 402.696 145.141 402.938L146.438 403.25C148.024 403.633 148.789 404.321 148.789 405.532C148.789 407.04 147.328 408.079 145.414 408.079C143.539 408.079 142.25 407.18 142.102 405.782H143.485C143.711 406.493 144.383 406.946 145.461 406.946C146.594 406.946 147.407 406.407 147.407 405.633C147.407 405.055 146.969 404.665 146.071 404.446L144.625 404.094C143.047 403.711 142.328 403.032 142.328 401.813ZM151.187 401.813C151.187 400.415 152.539 399.36 154.328 399.36C156.093 399.36 157.32 400.235 157.5 401.618H156.172C155.992 400.946 155.336 400.5 154.32 400.5C153.32 400.5 152.539 401.008 152.539 401.758C152.539 402.336 153.007 402.696 154 402.938L155.297 403.25C156.882 403.633 157.648 404.321 157.648 405.532C157.648 407.04 156.187 408.079 154.273 408.079C152.398 408.079 151.109 407.18 150.961 405.782H152.343C152.57 406.493 153.242 406.946 154.32 406.946C155.453 406.946 156.265 406.407 156.265 405.633C156.265 405.055 155.828 404.665 154.929 404.446L153.484 404.094C151.906 403.711 151.187 403.032 151.187 401.813ZM162.991 406.899C164.374 406.899 165.397 405.993 165.397 404.79V404.016L163.132 404.165C161.851 404.25 161.288 404.696 161.288 405.54C161.288 406.399 162.015 406.899 162.991 406.899ZM162.741 408.079C161.108 408.079 159.897 407.11 159.897 405.571C159.897 404.063 161.007 403.196 162.968 403.079L165.397 402.93V402.165C165.397 401.125 164.749 400.555 163.491 400.555C162.483 400.555 161.78 400.938 161.593 401.602H160.233C160.413 400.25 161.741 399.36 163.538 399.36C165.593 399.36 166.741 400.415 166.741 402.165V407.93H165.46V406.688H165.335C164.788 407.586 163.866 408.079 162.741 408.079ZM177.615 406.899C178.998 406.899 180.021 405.993 180.021 404.79V404.016L177.756 404.165C176.474 404.25 175.912 404.696 175.912 405.54C175.912 406.399 176.638 406.899 177.615 406.899ZM177.365 408.079C175.732 408.079 174.521 407.11 174.521 405.571C174.521 404.063 175.631 403.196 177.592 403.079L180.021 402.93V402.165C180.021 401.125 179.373 400.555 178.115 400.555C177.107 400.555 176.404 400.938 176.217 401.602H174.857C175.037 400.25 176.365 399.36 178.162 399.36C180.217 399.36 181.365 400.415 181.365 402.165V407.93H180.084V406.688H179.959C179.412 407.586 178.49 408.079 177.365 408.079ZM191.302 399.508V407.93H190.021V406.61H189.896C189.474 407.547 188.575 408.079 187.286 408.079C185.396 408.079 184.411 406.954 184.411 404.961V399.508H185.755V404.633C185.755 406.149 186.318 406.852 187.661 406.852C189.146 406.852 189.958 405.969 189.958 404.493V399.508H191.302ZM201.442 402.086H200.083C199.864 401.25 199.122 400.571 197.911 400.571C196.395 400.571 195.442 401.782 195.442 403.688C195.442 405.633 196.411 406.868 197.911 406.868C199.043 406.868 199.833 406.344 200.083 405.391H201.442C201.2 406.938 199.942 408.079 197.918 408.079C195.559 408.079 194.051 406.368 194.051 403.688C194.051 401.063 195.551 399.36 197.911 399.36C199.958 399.36 201.208 400.586 201.442 402.086ZM204.785 397.329H206.129V399.508H208.004V400.633H206.129V405.399C206.129 406.391 206.504 406.813 207.379 406.813C207.621 406.813 207.754 406.805 208.004 406.782V407.915C207.738 407.961 207.48 407.993 207.215 407.993C205.48 407.993 204.785 407.352 204.785 405.743V400.633H203.426V399.508H204.785V397.329ZM214.011 408.079C211.613 408.079 210.128 406.422 210.128 403.719C210.128 401.008 211.613 399.36 214.011 399.36C216.409 399.36 217.894 401.008 217.894 403.719C217.894 406.422 216.409 408.079 214.011 408.079ZM214.011 406.868C215.605 406.868 216.503 405.711 216.503 403.719C216.503 401.719 215.605 400.571 214.011 400.571C212.417 400.571 211.519 401.719 211.519 403.719C211.519 405.711 212.417 406.868 214.011 406.868ZM220.643 407.93V399.508H221.924V400.758H222.049C222.299 399.938 223.268 399.36 224.385 399.36C224.604 399.36 224.885 399.375 225.057 399.399V400.743C224.948 400.711 224.463 400.665 224.198 400.665C222.917 400.665 221.987 401.524 221.987 402.711V407.93H220.643ZM235.892 400.547C234.548 400.547 233.611 401.532 233.509 403.024H238.15C238.118 401.532 237.228 400.547 235.892 400.547ZM238.111 405.75H239.454C239.048 407.196 237.751 408.079 235.908 408.079C233.572 408.079 232.111 406.391 232.111 403.727C232.111 401.079 233.595 399.36 235.908 399.36C238.181 399.36 239.564 400.977 239.564 403.594V404.11H233.509V404.172C233.579 405.836 234.509 406.891 235.939 406.891C237.025 406.891 237.759 406.493 238.111 405.75ZM242.391 407.93V396.165H243.735V407.93H242.391ZM250.344 400.547C249 400.547 248.062 401.532 247.961 403.024H252.602C252.57 401.532 251.68 400.547 250.344 400.547ZM252.562 405.75H253.906C253.5 407.196 252.203 408.079 250.359 408.079C248.023 408.079 246.562 406.391 246.562 403.727C246.562 401.079 248.047 399.36 250.359 399.36C252.633 399.36 254.016 400.977 254.016 403.594V404.11H247.961V404.172C248.031 405.836 248.961 406.891 250.391 406.891C251.477 406.891 252.211 406.493 252.562 405.75ZM256.765 407.93V399.508H258.046V400.836H258.171C258.554 399.899 259.398 399.36 260.523 399.36C261.663 399.36 262.46 399.961 262.851 400.836H262.976C263.429 399.946 264.39 399.36 265.554 399.36C267.273 399.36 268.234 400.344 268.234 402.11V407.93H266.89V402.422C266.89 401.18 266.304 400.571 265.117 400.571C263.945 400.571 263.163 401.446 263.163 402.516V407.93H261.82V402.211C261.82 401.211 261.124 400.571 260.062 400.571C258.96 400.571 258.109 401.524 258.109 402.711V407.93H256.765ZM274.686 400.547C273.342 400.547 272.405 401.532 272.303 403.024H276.944C276.913 401.532 276.022 400.547 274.686 400.547ZM276.905 405.75H278.249C277.842 407.196 276.546 408.079 274.702 408.079C272.366 408.079 270.905 406.391 270.905 403.727C270.905 401.079 272.389 399.36 274.702 399.36C276.975 399.36 278.358 400.977 278.358 403.594V404.11H272.303V404.172C272.374 405.836 273.303 406.891 274.733 406.891C275.819 406.891 276.553 406.493 276.905 405.75ZM281.107 407.93V399.508H282.389V400.836H282.514C282.936 399.907 283.756 399.36 285.045 399.36C286.936 399.36 287.99 400.477 287.99 402.477V407.93H286.647V402.805C286.647 401.29 286.006 400.571 284.662 400.571C283.318 400.571 282.451 401.469 282.451 402.946V407.93H281.107ZM291.654 397.329H292.997V399.508H294.872V400.633H292.997V405.399C292.997 406.391 293.372 406.813 294.247 406.813C294.49 406.813 294.622 406.805 294.872 406.782V407.915C294.607 407.961 294.349 407.993 294.083 407.993C292.349 407.993 291.654 407.352 291.654 405.743V400.633H290.294V399.508H291.654V397.329ZM304.356 399.508V407.93H303.075V406.61H302.95C302.528 407.547 301.63 408.079 300.341 408.079C298.45 408.079 297.466 406.954 297.466 404.961V399.508H298.809V404.633C298.809 406.149 299.372 406.852 300.716 406.852C302.2 406.852 303.013 405.969 303.013 404.493V399.508H304.356ZM307.527 407.93V399.508H308.809V400.836H308.934C309.317 399.899 310.16 399.36 311.285 399.36C312.426 399.36 313.223 399.961 313.613 400.836H313.738C314.192 399.946 315.152 399.36 316.317 399.36C318.035 399.36 318.996 400.344 318.996 402.11V407.93H317.652V402.422C317.652 401.18 317.067 400.571 315.879 400.571C314.707 400.571 313.926 401.446 313.926 402.516V407.93H312.582V402.211C312.582 401.211 311.887 400.571 310.824 400.571C309.723 400.571 308.871 401.524 308.871 402.711V407.93H307.527ZM41.3438 426.93V415.165H42.6875V426.93H41.3438ZM49.2962 419.547C47.9525 419.547 47.015 420.532 46.9134 422.024H51.5541C51.5228 420.532 50.6322 419.547 49.2962 419.547ZM51.515 424.75H52.8587C52.4525 426.196 51.1556 427.079 49.3119 427.079C46.9759 427.079 45.515 425.391 45.515 422.727C45.515 420.079 46.9994 418.36 49.3119 418.36C51.5853 418.36 52.9681 419.977 52.9681 422.594V423.11H46.9134V423.172C46.9837 424.836 47.9134 425.891 49.3431 425.891C50.4291 425.891 51.1634 425.493 51.515 424.75ZM62.6862 421.086H61.3269C61.1081 420.25 60.3659 419.571 59.155 419.571C57.6394 419.571 56.6862 420.782 56.6862 422.688C56.6862 424.633 57.655 425.868 59.155 425.868C60.2878 425.868 61.0769 425.344 61.3269 424.391H62.6862C62.4441 425.938 61.1862 427.079 59.1628 427.079C56.8034 427.079 55.2956 425.368 55.2956 422.688C55.2956 420.063 56.7956 418.36 59.155 418.36C61.2019 418.36 62.4519 419.586 62.6862 421.086ZM66.0294 416.329H67.3731V418.508H69.2481V419.633H67.3731V424.399C67.3731 425.391 67.7481 425.813 68.6231 425.813C68.8653 425.813 68.9981 425.805 69.2481 425.782V426.915C68.9825 426.961 68.7247 426.993 68.4591 426.993C66.7247 426.993 66.0294 426.352 66.0294 424.743V419.633H64.67V418.508H66.0294V416.329ZM78.7319 418.508V426.93H77.4506V425.61H77.3256C76.9037 426.547 76.0053 427.079 74.7162 427.079C72.8256 427.079 71.8412 425.954 71.8412 423.961V418.508H73.185V423.633C73.185 425.149 73.7475 425.852 75.0912 425.852C76.5756 425.852 77.3881 424.969 77.3881 423.493V418.508H78.7319ZM81.7078 420.813C81.7078 419.415 83.0594 418.36 84.8484 418.36C86.6141 418.36 87.8406 419.235 88.0203 420.618H86.6922C86.5125 419.946 85.8563 419.5 84.8406 419.5C83.8406 419.5 83.0594 420.008 83.0594 420.758C83.0594 421.336 83.5281 421.696 84.5203 421.938L85.8172 422.25C87.4031 422.633 88.1688 423.321 88.1688 424.532C88.1688 426.04 86.7078 427.079 84.7938 427.079C82.9188 427.079 81.6297 426.18 81.4813 424.782H82.8641C83.0906 425.493 83.7625 425.946 84.8406 425.946C85.9734 425.946 86.7859 425.407 86.7859 424.633C86.7859 424.055 86.3484 423.665 85.45 423.446L84.0047 423.094C82.4266 422.711 81.7078 422.032 81.7078 420.813ZM98.6675 425.899C100.05 425.899 101.074 424.993 101.074 423.79V423.016L98.8081 423.165C97.5269 423.25 96.9644 423.696 96.9644 424.54C96.9644 425.399 97.6909 425.899 98.6675 425.899ZM98.4175 427.079C96.7847 427.079 95.5737 426.11 95.5737 424.571C95.5737 423.063 96.6831 422.196 98.6441 422.079L101.074 421.93V421.165C101.074 420.125 100.425 419.555 99.1675 419.555C98.1597 419.555 97.4566 419.938 97.2691 420.602H95.9097C96.0894 419.25 97.4175 418.36 99.2144 418.36C101.269 418.36 102.417 419.415 102.417 421.165V426.93H101.136V425.688H101.011C100.464 426.586 99.5425 427.079 98.4175 427.079ZM106.104 416.329H107.448V418.508H109.323V419.633H107.448V424.399C107.448 425.391 107.823 425.813 108.698 425.813C108.94 425.813 109.073 425.805 109.323 425.782V426.915C109.058 426.961 108.8 426.993 108.534 426.993C106.8 426.993 106.104 426.352 106.104 424.743V419.633H104.745V418.508H106.104V416.329ZM119.744 425.899C121.127 425.899 122.15 424.993 122.15 423.79V423.016L119.884 423.165C118.603 423.25 118.041 423.696 118.041 424.54C118.041 425.399 118.767 425.899 119.744 425.899ZM119.494 427.079C117.861 427.079 116.65 426.11 116.65 424.571C116.65 423.063 117.759 422.196 119.72 422.079L122.15 421.93V421.165C122.15 420.125 121.502 419.555 120.244 419.555C119.236 419.555 118.533 419.938 118.345 420.602H116.986C117.166 419.25 118.494 418.36 120.291 418.36C122.345 418.36 123.494 419.415 123.494 421.165V426.93H122.213V425.688H122.088C121.541 426.586 120.619 427.079 119.494 427.079ZM126.618 426.93V418.508H127.899V419.836H128.024C128.407 418.899 129.251 418.36 130.376 418.36C131.517 418.36 132.313 418.961 132.704 419.836H132.829C133.282 418.946 134.243 418.36 135.407 418.36C137.126 418.36 138.087 419.344 138.087 421.11V426.93H136.743V421.422C136.743 420.18 136.157 419.571 134.97 419.571C133.798 419.571 133.017 420.446 133.017 421.516V426.93H131.673V421.211C131.673 420.211 130.978 419.571 129.915 419.571C128.813 419.571 127.962 420.524 127.962 421.711V426.93H126.618ZM144.539 419.547C143.196 419.547 142.258 420.532 142.157 422.024H146.797C146.766 420.532 145.875 419.547 144.539 419.547ZM146.758 424.75H148.102C147.696 426.196 146.399 427.079 144.555 427.079C142.219 427.079 140.758 425.391 140.758 422.727C140.758 420.079 142.243 418.36 144.555 418.36C146.828 418.36 148.211 419.977 148.211 422.594V423.11H142.157V423.172C142.227 424.836 143.157 425.891 144.586 425.891C145.672 425.891 146.407 425.493 146.758 424.75ZM151.523 416.329H152.867V418.508H154.742V419.633H152.867V424.399C152.867 425.391 153.242 425.813 154.117 425.813C154.359 425.813 154.492 425.805 154.742 425.782V426.915C154.476 426.961 154.218 426.993 153.953 426.993C152.218 426.993 151.523 426.352 151.523 424.743V419.633H150.164V418.508H151.523V416.329ZM158.522 427.008C157.968 427.008 157.507 426.547 157.507 425.993C157.507 425.43 157.968 424.977 158.522 424.977C159.085 424.977 159.538 425.43 159.538 425.993C159.538 426.547 159.085 427.008 158.522 427.008ZM179.24 426.93H177.927V418.321H177.834L174.279 426.852H173.092L169.537 418.321H169.443V426.93H168.131V415.657H169.763L173.623 424.985H173.748L177.607 415.657H179.24V426.93ZM182.614 426.93V418.508H183.958V426.93H182.614ZM183.286 416.797C182.771 416.797 182.349 416.375 182.349 415.86C182.349 415.344 182.771 414.922 183.286 414.922C183.802 414.922 184.224 415.344 184.224 415.86C184.224 416.375 183.802 416.797 183.286 416.797ZM199.285 421.086H197.926C197.707 420.25 196.965 419.571 195.754 419.571C194.238 419.571 193.285 420.782 193.285 422.688C193.285 424.633 194.254 425.868 195.754 425.868C196.887 425.868 197.676 425.344 197.926 424.391H199.285C199.043 425.938 197.785 427.079 195.762 427.079C193.402 427.079 191.894 425.368 191.894 422.688C191.894 420.063 193.394 418.36 195.754 418.36C197.801 418.36 199.051 419.586 199.285 421.086ZM205.37 427.079C202.972 427.079 201.488 425.422 201.488 422.719C201.488 420.008 202.972 418.36 205.37 418.36C207.769 418.36 209.253 420.008 209.253 422.719C209.253 425.422 207.769 427.079 205.37 427.079ZM205.37 425.868C206.964 425.868 207.863 424.711 207.863 422.719C207.863 420.719 206.964 419.571 205.37 419.571C203.777 419.571 202.878 420.719 202.878 422.719C202.878 424.711 203.777 425.868 205.37 425.868ZM212.003 426.93V418.508H213.284V419.836H213.409C213.831 418.907 214.651 418.36 215.94 418.36C217.831 418.36 218.885 419.477 218.885 421.477V426.93H217.542V421.805C217.542 420.29 216.901 419.571 215.557 419.571C214.213 419.571 213.346 420.469 213.346 421.946V426.93H212.003ZM221.791 420.813C221.791 419.415 223.143 418.36 224.932 418.36C226.697 418.36 227.924 419.235 228.103 420.618H226.775C226.596 419.946 225.939 419.5 224.924 419.5C223.924 419.5 223.143 420.008 223.143 420.758C223.143 421.336 223.611 421.696 224.603 421.938L225.9 422.25C227.486 422.633 228.252 423.321 228.252 424.532C228.252 426.04 226.791 427.079 224.877 427.079C223.002 427.079 221.713 426.18 221.564 424.782H222.947C223.174 425.493 223.846 425.946 224.924 425.946C226.057 425.946 226.869 425.407 226.869 424.633C226.869 424.055 226.432 423.665 225.533 423.446L224.088 423.094C222.51 422.711 221.791 422.032 221.791 420.813ZM234.361 419.547C233.017 419.547 232.079 420.532 231.978 422.024H236.618C236.587 420.532 235.697 419.547 234.361 419.547ZM236.579 424.75H237.923C237.517 426.196 236.22 427.079 234.376 427.079C232.04 427.079 230.579 425.391 230.579 422.727C230.579 420.079 232.064 418.36 234.376 418.36C236.65 418.36 238.033 419.977 238.033 422.594V423.11H231.978V423.172C232.048 424.836 232.978 425.891 234.408 425.891C235.493 425.891 236.228 425.493 236.579 424.75ZM247.751 421.086H246.391C246.173 420.25 245.43 419.571 244.219 419.571C242.704 419.571 241.751 420.782 241.751 422.688C241.751 424.633 242.719 425.868 244.219 425.868C245.352 425.868 246.141 425.344 246.391 424.391H247.751C247.508 425.938 246.251 427.079 244.227 427.079C241.868 427.079 240.36 425.368 240.36 422.688C240.36 420.063 241.86 418.36 244.219 418.36C246.266 418.36 247.516 419.586 247.751 421.086ZM251.094 416.329H252.438V418.508H254.312V419.633H252.438V424.399C252.438 425.391 252.812 425.813 253.688 425.813C253.93 425.813 254.062 425.805 254.312 425.782V426.915C254.047 426.961 253.789 426.993 253.523 426.993C251.789 426.993 251.094 426.352 251.094 424.743V419.633H249.734V418.508H251.094V416.329ZM260.218 419.547C258.874 419.547 257.937 420.532 257.835 422.024H262.476C262.445 420.532 261.554 419.547 260.218 419.547ZM262.437 424.75H263.781C263.374 426.196 262.077 427.079 260.234 427.079C257.898 427.079 256.437 425.391 256.437 422.727C256.437 420.079 257.921 418.36 260.234 418.36C262.507 418.36 263.89 419.977 263.89 422.594V423.11H257.835V423.172C257.906 424.836 258.835 425.891 260.265 425.891C261.351 425.891 262.085 425.493 262.437 424.75ZM267.202 416.329H268.546V418.508H270.421V419.633H268.546V424.399C268.546 425.391 268.921 425.813 269.796 425.813C270.038 425.813 270.171 425.805 270.421 425.782V426.915C270.155 426.961 269.897 426.993 269.632 426.993C267.897 426.993 267.202 426.352 267.202 424.743V419.633H265.842V418.508H267.202V416.329ZM279.904 418.508V426.93H278.623V425.61H278.498C278.076 426.547 277.178 427.079 275.889 427.079C273.998 427.079 273.014 425.954 273.014 423.961V418.508H274.357V423.633C274.357 425.149 274.92 425.852 276.264 425.852C277.748 425.852 278.561 424.969 278.561 423.493V418.508H279.904ZM283.076 426.93V418.508H284.357V419.758H284.482C284.732 418.938 285.701 418.36 286.818 418.36C287.037 418.36 287.318 418.375 287.49 418.399V419.743C287.38 419.711 286.896 419.665 286.63 419.665C285.349 419.665 284.419 420.524 284.419 421.711V426.93H283.076ZM301.777 418.508V426.93H300.496V425.61H300.371C299.949 426.547 299.051 427.079 297.762 427.079C295.871 427.079 294.887 425.954 294.887 423.961V418.508H296.231V423.633C296.231 425.149 296.793 425.852 298.137 425.852C299.621 425.852 300.434 424.969 300.434 423.493V418.508H301.777ZM304.949 426.93V418.508H306.23V419.758H306.355C306.605 418.938 307.574 418.36 308.691 418.36C308.91 418.36 309.191 418.375 309.363 418.399V419.743C309.253 419.711 308.769 419.665 308.503 419.665C307.222 419.665 306.293 420.524 306.293 421.711V426.93H304.949ZM311.839 426.93V418.508H313.12V419.836H313.245C313.667 418.907 314.487 418.36 315.776 418.36C317.667 418.36 318.722 419.477 318.722 421.477V426.93H317.378V421.805C317.378 420.29 316.737 419.571 315.393 419.571C314.05 419.571 313.182 420.469 313.182 421.946V426.93H311.839ZM324.416 425.899C325.799 425.899 326.823 424.993 326.823 423.79V423.016L324.557 423.165C323.276 423.25 322.713 423.696 322.713 424.54C322.713 425.399 323.44 425.899 324.416 425.899ZM324.166 427.079C322.533 427.079 321.323 426.11 321.323 424.571C321.323 423.063 322.432 422.196 324.393 422.079L326.823 421.93V421.165C326.823 420.125 326.174 419.555 324.916 419.555C323.908 419.555 323.205 419.938 323.018 420.602H321.658C321.838 419.25 323.166 418.36 324.963 418.36C327.018 418.36 328.166 419.415 328.166 421.165V426.93H326.885V425.688H326.76C326.213 426.586 325.291 427.079 324.166 427.079ZM41.2656 445.93V437.508H42.5469V438.836H42.6719C43.0938 437.907 43.9141 437.36 45.2031 437.36C47.0938 437.36 48.1484 438.477 48.1484 440.477V445.93H46.8047V440.805C46.8047 439.29 46.1641 438.571 44.8203 438.571C43.4766 438.571 42.6094 439.469 42.6094 440.946V445.93H41.2656ZM58.0619 437.508V445.93H56.7806V444.61H56.6556C56.2338 445.547 55.3353 446.079 54.0463 446.079C52.1556 446.079 51.1713 444.954 51.1713 442.961V437.508H52.515V442.633C52.515 444.149 53.0775 444.852 54.4213 444.852C55.9056 444.852 56.7181 443.969 56.7181 442.493V437.508H58.0619ZM61.3113 445.93V434.165H62.655V445.93H61.3113ZM65.9825 445.93V434.165H67.3263V445.93H65.9825ZM73.1694 444.899C74.5522 444.899 75.5756 443.993 75.5756 442.79V442.016L73.31 442.165C72.0287 442.25 71.4662 442.696 71.4662 443.54C71.4662 444.399 72.1928 444.899 73.1694 444.899ZM72.9194 446.079C71.2866 446.079 70.0756 445.11 70.0756 443.571C70.0756 442.063 71.185 441.196 73.1459 441.079L75.5756 440.93V440.165C75.5756 439.125 74.9272 438.555 73.6694 438.555C72.6616 438.555 71.9584 438.938 71.7709 439.602H70.4116C70.5912 438.25 71.9194 437.36 73.7162 437.36C75.7709 437.36 76.9194 438.415 76.9194 440.165V445.93H75.6381V444.688H75.5131C74.9662 445.586 74.0444 446.079 72.9194 446.079ZM88.5588 438.547C87.215 438.547 86.2775 439.532 86.1759 441.024H90.8166C90.7853 439.532 89.8947 438.547 88.5588 438.547ZM90.7775 443.75H92.1213C91.715 445.196 90.4181 446.079 88.5744 446.079C86.2384 446.079 84.7775 444.391 84.7775 441.727C84.7775 439.079 86.2619 437.36 88.5744 437.36C90.8478 437.36 92.2306 438.977 92.2306 441.594V442.11H86.1759V442.172C86.2463 443.836 87.1759 444.891 88.6056 444.891C89.6916 444.891 90.4259 444.493 90.7775 443.75ZM101.792 437.508V445.93H100.511V444.61H100.386C99.9644 445.547 99.0659 446.079 97.7769 446.079C95.8862 446.079 94.9019 444.954 94.9019 442.961V437.508H96.2456V442.633C96.2456 444.149 96.8081 444.852 98.1519 444.852C99.6362 444.852 100.449 443.969 100.449 442.493V437.508H101.792ZM104.995 445.93V437.508H106.339V445.93H104.995ZM105.667 435.797C105.151 435.797 104.729 435.375 104.729 434.86C104.729 434.344 105.151 433.922 105.667 433.922C106.182 433.922 106.604 434.344 106.604 434.86C106.604 435.375 106.182 435.797 105.667 435.797ZM109.346 439.813C109.346 438.415 110.698 437.36 112.487 437.36C114.252 437.36 115.479 438.235 115.658 439.618H114.33C114.151 438.946 113.494 438.5 112.479 438.5C111.479 438.5 110.698 439.008 110.698 439.758C110.698 440.336 111.166 440.696 112.158 440.938L113.455 441.25C115.041 441.633 115.807 442.321 115.807 443.532C115.807 445.04 114.346 446.079 112.432 446.079C110.557 446.079 109.268 445.18 109.119 443.782H110.502C110.729 444.493 111.401 444.946 112.479 444.946C113.612 444.946 114.424 444.407 114.424 443.633C114.424 443.055 113.987 442.665 113.088 442.446L111.643 442.094C110.065 441.711 109.346 441.032 109.346 439.813ZM118.556 445.93V437.508H119.838V438.836H119.963C120.345 437.899 121.189 437.36 122.314 437.36C123.455 437.36 124.252 437.961 124.642 438.836H124.767C125.22 437.946 126.181 437.36 127.345 437.36C129.064 437.36 130.025 438.344 130.025 440.11V445.93H128.681V440.422C128.681 439.18 128.095 438.571 126.908 438.571C125.736 438.571 124.955 439.446 124.955 440.516V445.93H123.611V440.211C123.611 439.211 122.916 438.571 121.853 438.571C120.752 438.571 119.9 439.524 119.9 440.711V445.93H118.556ZM136.579 446.079C134.181 446.079 132.696 444.422 132.696 441.719C132.696 439.008 134.181 437.36 136.579 437.36C138.978 437.36 140.462 439.008 140.462 441.719C140.462 444.422 138.978 446.079 136.579 446.079ZM136.579 444.868C138.173 444.868 139.071 443.711 139.071 441.719C139.071 439.719 138.173 438.571 136.579 438.571C134.985 438.571 134.087 439.719 134.087 441.719C134.087 443.711 134.985 444.868 136.579 444.868ZM146.328 446.079C144.172 446.079 142.789 444.368 142.789 441.719C142.789 439.079 144.188 437.36 146.328 437.36C147.5 437.36 148.493 437.915 148.969 438.836H149.086V434.165H150.43V445.93H149.149V444.586H149.024C148.493 445.524 147.493 446.079 146.328 446.079ZM146.641 438.571C145.11 438.571 144.18 439.758 144.18 441.719C144.18 443.688 145.102 444.868 146.641 444.868C148.172 444.868 149.118 443.665 149.118 441.719C149.118 439.79 148.164 438.571 146.641 438.571ZM163.022 446.079C161.851 446.079 160.851 445.524 160.319 444.586H160.194V445.93H158.913V434.165H160.257V438.836H160.382C160.843 437.93 161.866 437.36 163.022 437.36C165.163 437.36 166.554 439.071 166.554 441.719C166.554 444.352 165.155 446.079 163.022 446.079ZM162.71 438.571C161.179 438.571 160.226 439.774 160.226 441.719C160.226 443.665 161.179 444.868 162.71 444.868C164.249 444.868 165.163 443.688 165.163 441.719C165.163 439.75 164.249 438.571 162.71 438.571ZM169.381 445.93V434.165H170.725V445.93H169.381ZM176.568 444.899C177.951 444.899 178.974 443.993 178.974 442.79V442.016L176.709 442.165C175.428 442.25 174.865 442.696 174.865 443.54C174.865 444.399 175.592 444.899 176.568 444.899ZM176.318 446.079C174.685 446.079 173.474 445.11 173.474 443.571C173.474 442.063 174.584 441.196 176.545 441.079L178.974 440.93V440.165C178.974 439.125 178.326 438.555 177.068 438.555C176.06 438.555 175.357 438.938 175.17 439.602H173.81C173.99 438.25 175.318 437.36 177.115 437.36C179.17 437.36 180.318 438.415 180.318 440.165V445.93H179.037V444.688H178.912C178.365 445.586 177.443 446.079 176.318 446.079ZM183.443 445.93V437.508H184.724V438.836H184.849C185.271 437.907 186.091 437.36 187.38 437.36C189.271 437.36 190.325 438.477 190.325 440.477V445.93H188.982V440.805C188.982 439.29 188.341 438.571 186.997 438.571C185.653 438.571 184.786 439.469 184.786 440.946V445.93H183.443ZM196.543 446.079C194.387 446.079 193.004 444.368 193.004 441.719C193.004 439.079 194.403 437.36 196.543 437.36C197.715 437.36 198.708 437.915 199.184 438.836H199.301V434.165H200.645V445.93H199.364V444.586H199.239C198.708 445.524 197.708 446.079 196.543 446.079ZM196.856 438.571C195.325 438.571 194.395 439.758 194.395 441.719C194.395 443.688 195.317 444.868 196.856 444.868C198.387 444.868 199.333 443.665 199.333 441.719C199.333 439.79 198.379 438.571 196.856 438.571ZM203.926 445.93V437.508H205.269V445.93H203.926ZM204.598 435.797C204.082 435.797 203.66 435.375 203.66 434.86C203.66 434.344 204.082 433.922 204.598 433.922C205.113 433.922 205.535 434.344 205.535 434.86C205.535 435.375 205.113 435.797 204.598 435.797ZM209.034 435.329H210.378V437.508H212.253V438.633H210.378V443.399C210.378 444.391 210.753 444.813 211.628 444.813C211.87 444.813 212.003 444.805 212.253 444.782V445.915C211.988 445.961 211.73 445.993 211.464 445.993C209.73 445.993 209.034 445.352 209.034 443.743V438.633H207.675V437.508H209.034V435.329ZM220.158 445.93V434.165H221.502V445.93H220.158ZM228.212 446.079C225.814 446.079 224.329 444.422 224.329 441.719C224.329 439.008 225.814 437.36 228.212 437.36C230.611 437.36 232.095 439.008 232.095 441.719C232.095 444.422 230.611 446.079 228.212 446.079ZM228.212 444.868C229.806 444.868 230.704 443.711 230.704 441.719C230.704 439.719 229.806 438.571 228.212 438.571C226.618 438.571 225.72 439.719 225.72 441.719C225.72 443.711 226.618 444.868 228.212 444.868ZM234.844 445.93V437.508H236.126V438.758H236.251C236.501 437.938 237.469 437.36 238.587 437.36C238.805 437.36 239.087 437.375 239.258 437.399V438.743C239.149 438.711 238.665 438.665 238.399 438.665C237.118 438.665 236.188 439.524 236.188 440.711V445.93H234.844ZM244.703 438.547C243.359 438.547 242.422 439.532 242.32 441.024H246.961C246.93 439.532 246.039 438.547 244.703 438.547ZM246.922 443.75H248.266C247.859 445.196 246.562 446.079 244.719 446.079C242.383 446.079 240.922 444.391 240.922 441.727C240.922 439.079 242.406 437.36 244.719 437.36C246.992 437.36 248.375 438.977 248.375 441.594V442.11H242.32V442.172C242.391 443.836 243.32 444.891 244.75 444.891C245.836 444.891 246.57 444.493 246.922 443.75ZM251.124 445.93V437.508H252.406V438.836H252.531C252.913 437.899 253.757 437.36 254.882 437.36C256.023 437.36 256.82 437.961 257.21 438.836H257.335C257.788 437.946 258.749 437.36 259.913 437.36C261.632 437.36 262.593 438.344 262.593 440.11V445.93H261.249V440.422C261.249 439.18 260.663 438.571 259.476 438.571C258.304 438.571 257.523 439.446 257.523 440.516V445.93H256.179V440.211C256.179 439.211 255.484 438.571 254.421 438.571C253.32 438.571 252.468 439.524 252.468 440.711V445.93H251.124ZM266.796 446.008C266.241 446.008 265.78 445.547 265.78 444.993C265.78 444.43 266.241 443.977 266.796 443.977C267.358 443.977 267.811 444.43 267.811 444.993C267.811 445.547 267.358 446.008 266.796 446.008Z" fill="#1C395C"/>
<path opacity="0.8" d="M372.766 369.9L371.633 366.674H367.148L366.016 369.9H364.539L368.695 358.627H370.086L374.242 369.9H372.766ZM369.328 360.447L367.562 365.479H371.219L369.453 360.447H369.328ZM376.781 359.299H378.124V361.479H379.999V362.604H378.124V367.369C378.124 368.361 378.499 368.783 379.374 368.783C379.617 368.783 379.749 368.775 379.999 368.752V369.885C379.734 369.932 379.476 369.963 379.21 369.963C377.476 369.963 376.781 369.322 376.781 367.713V362.604H375.421V361.479H376.781V359.299ZM387.826 369.9V361.479H389.108V362.807H389.233C389.654 361.877 390.475 361.33 391.764 361.33C393.654 361.33 394.709 362.447 394.709 364.447V369.9H393.365V364.775C393.365 363.26 392.725 362.541 391.381 362.541C390.037 362.541 389.17 363.439 389.17 364.916V369.9H387.826ZM404.623 361.479V369.9H403.341V368.58H403.216C402.794 369.518 401.896 370.049 400.607 370.049C398.716 370.049 397.732 368.924 397.732 366.932V361.479H399.076V366.604C399.076 368.119 399.638 368.822 400.982 368.822C402.466 368.822 403.279 367.939 403.279 366.463V361.479H404.623ZM407.872 369.9V358.135H409.216V369.9H407.872ZM412.543 369.9V358.135H413.887V369.9H412.543ZM419.73 368.869C421.113 368.869 422.136 367.963 422.136 366.76V365.986L419.871 366.135C418.589 366.221 418.027 366.666 418.027 367.51C418.027 368.369 418.753 368.869 419.73 368.869ZM419.48 370.049C417.847 370.049 416.636 369.08 416.636 367.541C416.636 366.033 417.746 365.166 419.707 365.049L422.136 364.9V364.135C422.136 363.096 421.488 362.525 420.23 362.525C419.222 362.525 418.519 362.908 418.332 363.572H416.972C417.152 362.221 418.48 361.33 420.277 361.33C422.332 361.33 423.48 362.385 423.48 364.135V369.9H422.199V368.658H422.074C421.527 369.557 420.605 370.049 419.48 370.049ZM438.635 361.479L435.518 369.9H434.143L431.026 361.479H432.463L434.768 368.416H434.893L437.198 361.479H438.635ZM444.119 362.518C442.775 362.518 441.838 363.502 441.736 364.994H446.377C446.345 363.502 445.455 362.518 444.119 362.518ZM446.338 367.721H447.681C447.275 369.166 445.978 370.049 444.134 370.049C441.798 370.049 440.338 368.361 440.338 365.697C440.338 363.049 441.822 361.33 444.134 361.33C446.408 361.33 447.791 362.947 447.791 365.564V366.08H441.736V366.143C441.806 367.807 442.736 368.861 444.166 368.861C445.252 368.861 445.986 368.463 446.338 367.721ZM450.54 369.9V361.479H451.821V362.807H451.946C452.368 361.877 453.188 361.33 454.478 361.33C456.368 361.33 457.423 362.447 457.423 364.447V369.9H456.079V364.775C456.079 363.26 455.438 362.541 454.095 362.541C452.751 362.541 451.884 363.439 451.884 364.916V369.9H450.54ZM463.883 362.518C462.539 362.518 461.602 363.502 461.5 364.994H466.141C466.11 363.502 465.219 362.518 463.883 362.518ZM466.102 367.721H467.446C467.039 369.166 465.743 370.049 463.899 370.049C461.563 370.049 460.102 368.361 460.102 365.697C460.102 363.049 461.586 361.33 463.899 361.33C466.172 361.33 467.555 362.947 467.555 365.564V366.08H461.5V366.143C461.571 367.807 462.5 368.861 463.93 368.861C465.016 368.861 465.75 368.463 466.102 367.721ZM470.304 369.9V361.479H471.586V362.807H471.711C472.132 361.877 472.953 361.33 474.242 361.33C476.132 361.33 477.187 362.447 477.187 364.447V369.9H475.843V364.775C475.843 363.26 475.203 362.541 473.859 362.541C472.515 362.541 471.648 363.439 471.648 364.916V369.9H470.304ZM482.882 368.869C484.265 368.869 485.288 367.963 485.288 366.76V365.986L483.022 366.135C481.741 366.221 481.179 366.666 481.179 367.51C481.179 368.369 481.905 368.869 482.882 368.869ZM482.632 370.049C480.999 370.049 479.788 369.08 479.788 367.541C479.788 366.033 480.897 365.166 482.858 365.049L485.288 364.9V364.135C485.288 363.096 484.64 362.525 483.382 362.525C482.374 362.525 481.671 362.908 481.483 363.572H480.124C480.304 362.221 481.632 361.33 483.429 361.33C485.483 361.33 486.632 362.385 486.632 364.135V369.9H485.351V368.658H485.226C484.679 369.557 483.757 370.049 482.632 370.049ZM490.319 359.299H491.662V361.479H493.537V362.604H491.662V367.369C491.662 368.361 492.037 368.783 492.912 368.783C493.155 368.783 493.287 368.775 493.537 368.752V369.885C493.272 369.932 493.014 369.963 492.748 369.963C491.014 369.963 490.319 369.322 490.319 367.713V362.604H488.959V361.479H490.319V359.299ZM496.24 369.9V361.479H497.584V369.9H496.24ZM496.912 359.768C496.396 359.768 495.974 359.346 495.974 358.83C495.974 358.314 496.396 357.893 496.912 357.893C497.428 357.893 497.849 358.314 497.849 358.83C497.849 359.346 497.428 359.768 496.912 359.768ZM500.591 363.783C500.591 362.385 501.943 361.33 503.732 361.33C505.497 361.33 506.724 362.205 506.903 363.588H505.575C505.396 362.916 504.739 362.471 503.724 362.471C502.724 362.471 501.943 362.979 501.943 363.729C501.943 364.307 502.411 364.666 503.403 364.908L504.7 365.221C506.286 365.604 507.052 366.291 507.052 367.502C507.052 369.01 505.591 370.049 503.677 370.049C501.802 370.049 500.513 369.15 500.364 367.752H501.747C501.974 368.463 502.646 368.916 503.724 368.916C504.857 368.916 505.669 368.377 505.669 367.604C505.669 367.025 505.232 366.635 504.333 366.416L502.888 366.064C501.31 365.682 500.591 365.002 500.591 363.783ZM515.519 359.299H516.863V361.479H518.738V362.604H516.863V367.369C516.863 368.361 517.238 368.783 518.113 368.783C518.355 368.783 518.488 368.775 518.738 368.752V369.885C518.473 369.932 518.215 369.963 517.949 369.963C516.215 369.963 515.519 369.322 515.519 367.713V362.604H514.16V361.479H515.519V359.299ZM521.441 369.9V361.479H522.784V369.9H521.441ZM522.113 359.768C521.597 359.768 521.175 359.346 521.175 358.83C521.175 358.314 521.597 357.893 522.113 357.893C522.628 357.893 523.05 358.314 523.05 358.83C523.05 359.346 522.628 359.768 522.113 359.768ZM525.987 369.9V361.479H527.268V362.807H527.393C527.815 361.877 528.635 361.33 529.924 361.33C531.815 361.33 532.87 362.447 532.87 364.447V369.9H531.526V364.775C531.526 363.26 530.885 362.541 529.542 362.541C528.198 362.541 527.331 363.439 527.331 364.916V369.9H525.987ZM542.939 364.057H541.58C541.361 363.221 540.619 362.541 539.408 362.541C537.893 362.541 536.939 363.752 536.939 365.658C536.939 367.604 537.908 368.838 539.408 368.838C540.541 368.838 541.33 368.314 541.58 367.361H542.939C542.697 368.908 541.439 370.049 539.416 370.049C537.057 370.049 535.549 368.338 535.549 365.658C535.549 363.033 537.049 361.33 539.408 361.33C541.455 361.33 542.705 362.557 542.939 364.057ZM545.595 369.9V361.479H546.939V369.9H545.595ZM546.267 359.768C545.751 359.768 545.329 359.346 545.329 358.83C545.329 358.314 545.751 357.893 546.267 357.893C546.783 357.893 547.204 358.314 547.204 358.83C547.204 359.346 546.783 359.768 546.267 359.768ZM553.258 370.049C551.102 370.049 549.719 368.338 549.719 365.689C549.719 363.049 551.118 361.33 553.258 361.33C554.43 361.33 555.423 361.885 555.899 362.807H556.016V358.135H557.36V369.9H556.079V368.557H555.954C555.423 369.494 554.423 370.049 553.258 370.049ZM553.571 362.541C552.04 362.541 551.11 363.729 551.11 365.689C551.11 367.658 552.032 368.838 553.571 368.838C555.102 368.838 556.048 367.635 556.048 365.689C556.048 363.76 555.094 362.541 553.571 362.541ZM567.422 361.479V369.9H566.141V368.58H566.016C565.594 369.518 564.695 370.049 563.406 370.049C561.516 370.049 560.531 368.924 560.531 366.932V361.479H561.875V366.604C561.875 368.119 562.438 368.822 563.781 368.822C565.266 368.822 566.078 367.939 566.078 366.463V361.479H567.422ZM570.593 369.9V361.479H571.874V362.807H571.999C572.421 361.877 573.242 361.33 574.531 361.33C576.421 361.33 577.476 362.447 577.476 364.447V369.9H576.132V364.775C576.132 363.26 575.492 362.541 574.148 362.541C572.804 362.541 571.937 363.439 571.937 364.916V369.9H570.593ZM581.139 359.299H582.483V361.479H584.358V362.604H582.483V367.369C582.483 368.361 582.858 368.783 583.733 368.783C583.975 368.783 584.108 368.775 584.358 368.752V369.885C584.092 369.932 583.835 369.963 583.569 369.963C581.835 369.963 581.139 369.322 581.139 367.713V362.604H579.78V361.479H581.139V359.299ZM592.185 369.9V361.479H593.466V362.807H593.591C593.974 361.869 594.818 361.33 595.943 361.33C597.083 361.33 597.88 361.932 598.271 362.807H598.396C598.849 361.916 599.81 361.33 600.974 361.33C602.693 361.33 603.654 362.314 603.654 364.08V369.9H602.31V364.393C602.31 363.15 601.724 362.541 600.537 362.541C599.365 362.541 598.583 363.416 598.583 364.486V369.9H597.24V364.182C597.24 363.182 596.544 362.541 595.482 362.541C594.38 362.541 593.529 363.494 593.529 364.682V369.9H592.185ZM609.341 368.869C610.723 368.869 611.747 367.963 611.747 366.76V365.986L609.481 366.135C608.2 366.221 607.637 366.666 607.637 367.51C607.637 368.369 608.364 368.869 609.341 368.869ZM609.091 370.049C607.458 370.049 606.247 369.08 606.247 367.541C606.247 366.033 607.356 365.166 609.317 365.049L611.747 364.9V364.135C611.747 363.096 611.098 362.525 609.841 362.525C608.833 362.525 608.13 362.908 607.942 363.572H606.583C606.762 362.221 608.091 361.33 609.887 361.33C611.942 361.33 613.091 362.385 613.091 364.135V369.9H611.809V368.658H611.684C611.137 369.557 610.216 370.049 609.091 370.049ZM616.02 363.783C616.02 362.385 617.371 361.33 619.16 361.33C620.926 361.33 622.152 362.205 622.332 363.588H621.004C620.824 362.916 620.168 362.471 619.152 362.471C618.152 362.471 617.371 362.979 617.371 363.729C617.371 364.307 617.84 364.666 618.832 364.908L620.129 365.221C621.715 365.604 622.481 366.291 622.481 367.502C622.481 369.01 621.02 370.049 619.106 370.049C617.231 370.049 615.942 369.15 615.793 367.752H617.176C617.402 368.463 618.074 368.916 619.152 368.916C620.285 368.916 621.098 368.377 621.098 367.604C621.098 367.025 620.66 366.635 619.762 366.416L618.317 366.064C616.738 365.682 616.02 365.002 616.02 363.783ZM624.878 363.783C624.878 362.385 626.23 361.33 628.019 361.33C629.785 361.33 631.011 362.205 631.191 363.588H629.863C629.683 362.916 629.027 362.471 628.011 362.471C627.011 362.471 626.23 362.979 626.23 363.729C626.23 364.307 626.699 364.666 627.691 364.908L628.988 365.221C630.574 365.604 631.339 366.291 631.339 367.502C631.339 369.01 629.878 370.049 627.964 370.049C626.089 370.049 624.8 369.15 624.652 367.752H626.035C626.261 368.463 626.933 368.916 628.011 368.916C629.144 368.916 629.957 368.377 629.957 367.604C629.957 367.025 629.519 366.635 628.621 366.416L627.175 366.064C625.597 365.682 624.878 365.002 624.878 363.783ZM636.682 368.869C638.065 368.869 639.089 367.963 639.089 366.76V365.986L636.823 366.135C635.542 366.221 634.979 366.666 634.979 367.51C634.979 368.369 635.706 368.869 636.682 368.869ZM636.432 370.049C634.8 370.049 633.589 369.08 633.589 367.541C633.589 366.033 634.698 365.166 636.659 365.049L639.089 364.9V364.135C639.089 363.096 638.44 362.525 637.182 362.525C636.175 362.525 635.472 362.908 635.284 363.572H633.925C634.104 362.221 635.432 361.33 637.229 361.33C639.284 361.33 640.432 362.385 640.432 364.135V369.9H639.151V368.658H639.026C638.479 369.557 637.557 370.049 636.432 370.049ZM367.859 387.869C369.242 387.869 370.266 386.963 370.266 385.76V384.986L368 385.135C366.719 385.221 366.156 385.666 366.156 386.51C366.156 387.369 366.883 387.869 367.859 387.869ZM367.609 389.049C365.977 389.049 364.766 388.08 364.766 386.541C364.766 385.033 365.875 384.166 367.836 384.049L370.266 383.9V383.135C370.266 382.096 369.617 381.525 368.359 381.525C367.352 381.525 366.648 381.908 366.461 382.572H365.102C365.281 381.221 366.609 380.33 368.406 380.33C370.461 380.33 371.609 381.385 371.609 383.135V388.9H370.328V387.658H370.203C369.656 388.557 368.734 389.049 367.609 389.049ZM381.546 380.479V388.9H380.265V387.58H380.14C379.718 388.518 378.82 389.049 377.531 389.049C375.64 389.049 374.656 387.924 374.656 385.932V380.479H375.999V385.604C375.999 387.119 376.562 387.822 377.906 387.822C379.39 387.822 380.203 386.939 380.203 385.463V380.479H381.546ZM391.686 383.057H390.327C390.108 382.221 389.366 381.541 388.155 381.541C386.639 381.541 385.686 382.752 385.686 384.658C385.686 386.604 386.655 387.838 388.155 387.838C389.288 387.838 390.077 387.314 390.327 386.361H391.686C391.444 387.908 390.186 389.049 388.163 389.049C385.803 389.049 384.296 387.338 384.296 384.658C384.296 382.033 385.796 380.33 388.155 380.33C390.202 380.33 391.452 381.557 391.686 383.057ZM395.029 378.299H396.373V380.479H398.248V381.604H396.373V386.369C396.373 387.361 396.748 387.783 397.623 387.783C397.865 387.783 397.998 387.775 398.248 387.752V388.885C397.983 388.932 397.725 388.963 397.459 388.963C395.725 388.963 395.029 388.322 395.029 386.713V381.604H393.67V380.479H395.029V378.299ZM404.255 389.049C401.857 389.049 400.373 387.393 400.373 384.689C400.373 381.979 401.857 380.33 404.255 380.33C406.654 380.33 408.138 381.979 408.138 384.689C408.138 387.393 406.654 389.049 404.255 389.049ZM404.255 387.838C405.849 387.838 406.748 386.682 406.748 384.689C406.748 382.689 405.849 381.541 404.255 381.541C402.662 381.541 401.763 382.689 401.763 384.689C401.763 386.682 402.662 387.838 404.255 387.838ZM410.888 388.9V380.479H412.169V381.729H412.294C412.544 380.908 413.513 380.33 414.63 380.33C414.848 380.33 415.13 380.346 415.302 380.369V381.713C415.192 381.682 414.708 381.635 414.442 381.635C413.161 381.635 412.231 382.494 412.231 383.682V388.9H410.888ZM426.136 381.518C424.792 381.518 423.855 382.502 423.753 383.994H428.394C428.363 382.502 427.472 381.518 426.136 381.518ZM428.355 386.721H429.699C429.292 388.166 427.996 389.049 426.152 389.049C423.816 389.049 422.355 387.361 422.355 384.697C422.355 382.049 423.839 380.33 426.152 380.33C428.425 380.33 429.808 381.947 429.808 384.564V385.08H423.753V385.143C423.824 386.807 424.753 387.861 426.183 387.861C427.269 387.861 428.003 387.463 428.355 386.721ZM432.636 388.9V377.135H433.979V388.9H432.636ZM440.588 381.518C439.244 381.518 438.307 382.502 438.205 383.994H442.846C442.815 382.502 441.924 381.518 440.588 381.518ZM442.807 386.721H444.151C443.744 388.166 442.448 389.049 440.604 389.049C438.268 389.049 436.807 387.361 436.807 384.697C436.807 382.049 438.291 380.33 440.604 380.33C442.877 380.33 444.26 381.947 444.26 384.564V385.08H438.205V385.143C438.276 386.807 439.205 387.861 440.635 387.861C441.721 387.861 442.455 387.463 442.807 386.721ZM447.009 388.9V380.479H448.291V381.807H448.416C448.798 380.869 449.642 380.33 450.767 380.33C451.908 380.33 452.705 380.932 453.095 381.807H453.22C453.673 380.916 454.634 380.33 455.798 380.33C457.517 380.33 458.478 381.314 458.478 383.08V388.9H457.134V383.393C457.134 382.15 456.548 381.541 455.361 381.541C454.189 381.541 453.408 382.416 453.408 383.486V388.9H452.064V383.182C452.064 382.182 451.369 381.541 450.306 381.541C449.205 381.541 448.353 382.494 448.353 383.682V388.9H447.009ZM464.931 381.518C463.587 381.518 462.649 382.502 462.548 383.994H467.188C467.157 382.502 466.267 381.518 464.931 381.518ZM467.149 386.721H468.493C468.087 388.166 466.79 389.049 464.946 389.049C462.61 389.049 461.149 387.361 461.149 384.697C461.149 382.049 462.634 380.33 464.946 380.33C467.22 380.33 468.603 381.947 468.603 384.564V385.08H462.548V385.143C462.618 386.807 463.548 387.861 464.978 387.861C466.063 387.861 466.798 387.463 467.149 386.721ZM471.352 388.9V380.479H472.633V381.807H472.758C473.18 380.877 474 380.33 475.289 380.33C477.18 380.33 478.235 381.447 478.235 383.447V388.9H476.891V383.775C476.891 382.26 476.25 381.541 474.907 381.541C473.563 381.541 472.696 382.439 472.696 383.916V388.9H471.352ZM481.898 378.299H483.242V380.479H485.117V381.604H483.242V386.369C483.242 387.361 483.617 387.783 484.492 387.783C484.734 387.783 484.867 387.775 485.117 387.752V388.885C484.851 388.932 484.593 388.963 484.328 388.963C482.593 388.963 481.898 388.322 481.898 386.713V381.604H480.539V380.479H481.898V378.299ZM494.601 380.479V388.9H493.319V387.58H493.194C492.772 388.518 491.874 389.049 490.585 389.049C488.694 389.049 487.71 387.924 487.71 385.932V380.479H489.054V385.604C489.054 387.119 489.616 387.822 490.96 387.822C492.444 387.822 493.257 386.939 493.257 385.463V380.479H494.601ZM497.772 388.9V380.479H499.053V381.807H499.178C499.561 380.869 500.405 380.33 501.53 380.33C502.67 380.33 503.467 380.932 503.858 381.807H503.983C504.436 380.916 505.397 380.33 506.561 380.33C508.28 380.33 509.241 381.314 509.241 383.08V388.9H507.897V383.393C507.897 382.15 507.311 381.541 506.123 381.541C504.952 381.541 504.17 382.416 504.17 383.486V388.9H502.827V383.182C502.827 382.182 502.131 381.541 501.069 381.541C499.967 381.541 499.116 382.494 499.116 383.682V388.9H497.772ZM517.568 388.9V377.135H518.911V388.9H517.568ZM525.52 381.518C524.176 381.518 523.239 382.502 523.137 383.994H527.778C527.747 382.502 526.856 381.518 525.52 381.518ZM527.739 386.721H529.083C528.676 388.166 527.379 389.049 525.536 389.049C523.2 389.049 521.739 387.361 521.739 384.697C521.739 382.049 523.223 380.33 525.536 380.33C527.809 380.33 529.192 381.947 529.192 384.564V385.08H523.137V385.143C523.208 386.807 524.137 387.861 525.567 387.861C526.653 387.861 527.387 387.463 527.739 386.721ZM538.91 383.057H537.551C537.332 382.221 536.59 381.541 535.379 381.541C533.863 381.541 532.91 382.752 532.91 384.658C532.91 386.604 533.879 387.838 535.379 387.838C536.512 387.838 537.301 387.314 537.551 386.361H538.91C538.668 387.908 537.41 389.049 535.387 389.049C533.027 389.049 531.519 387.338 531.519 384.658C531.519 382.033 533.019 380.33 535.379 380.33C537.426 380.33 538.676 381.557 538.91 383.057ZM542.253 378.299H543.597V380.479H545.472V381.604H543.597V386.369C543.597 387.361 543.972 387.783 544.847 387.783C545.089 387.783 545.222 387.775 545.472 387.752V388.885C545.206 388.932 544.948 388.963 544.683 388.963C542.948 388.963 542.253 388.322 542.253 386.713V381.604H540.894V380.479H542.253V378.299ZM554.956 380.479V388.9H553.674V387.58H553.549C553.128 388.518 552.229 389.049 550.94 389.049C549.049 389.049 548.065 387.924 548.065 385.932V380.479H549.409V385.604C549.409 387.119 549.971 387.822 551.315 387.822C552.799 387.822 553.612 386.939 553.612 385.463V380.479H554.956ZM557.932 382.783C557.932 381.385 559.283 380.33 561.072 380.33C562.838 380.33 564.064 381.205 564.244 382.588H562.916C562.736 381.916 562.08 381.471 561.064 381.471C560.064 381.471 559.283 381.979 559.283 382.729C559.283 383.307 559.752 383.666 560.744 383.908L562.041 384.221C563.627 384.604 564.393 385.291 564.393 386.502C564.393 388.01 562.932 389.049 561.018 389.049C559.143 389.049 557.853 388.15 557.705 386.752H559.088C559.314 387.463 559.986 387.916 561.064 387.916C562.197 387.916 563.01 387.377 563.01 386.604C563.01 386.025 562.572 385.635 561.674 385.416L560.228 385.064C558.65 384.682 557.932 384.002 557.932 382.783ZM574.891 387.869C576.274 387.869 577.298 386.963 577.298 385.76V384.986L575.032 385.135C573.751 385.221 573.188 385.666 573.188 386.51C573.188 387.369 573.915 387.869 574.891 387.869ZM574.641 389.049C573.008 389.049 571.798 388.08 571.798 386.541C571.798 385.033 572.907 384.166 574.868 384.049L577.298 383.9V383.135C577.298 382.096 576.649 381.525 575.391 381.525C574.383 381.525 573.68 381.908 573.493 382.572H572.133C572.313 381.221 573.641 380.33 575.438 380.33C577.493 380.33 578.641 381.385 578.641 383.135V388.9H577.36V387.658H577.235C576.688 388.557 575.766 389.049 574.641 389.049ZM582.328 378.299H583.672V380.479H585.547V381.604H583.672V386.369C583.672 387.361 584.047 387.783 584.922 387.783C585.164 387.783 585.297 387.775 585.547 387.752V388.885C585.281 388.932 585.023 388.963 584.758 388.963C583.023 388.963 582.328 388.322 582.328 386.713V381.604H580.969V380.479H582.328V378.299ZM595.967 387.869C597.35 387.869 598.374 386.963 598.374 385.76V384.986L596.108 385.135C594.827 385.221 594.264 385.666 594.264 386.51C594.264 387.369 594.991 387.869 595.967 387.869ZM595.717 389.049C594.085 389.049 592.874 388.08 592.874 386.541C592.874 385.033 593.983 384.166 595.944 384.049L598.374 383.9V383.135C598.374 382.096 597.725 381.525 596.467 381.525C595.46 381.525 594.757 381.908 594.569 382.572H593.21C593.389 381.221 594.717 380.33 596.514 380.33C598.569 380.33 599.717 381.385 599.717 383.135V388.9H598.436V387.658H598.311C597.764 388.557 596.842 389.049 595.717 389.049ZM602.842 388.9V380.479H604.123V381.807H604.248C604.631 380.869 605.475 380.33 606.6 380.33C607.74 380.33 608.537 380.932 608.928 381.807H609.053C609.506 380.916 610.467 380.33 611.631 380.33C613.35 380.33 614.311 381.314 614.311 383.08V388.9H612.967V383.393C612.967 382.15 612.381 381.541 611.193 381.541C610.022 381.541 609.24 382.416 609.24 383.486V388.9H607.897V383.182C607.897 382.182 607.201 381.541 606.139 381.541C605.037 381.541 604.186 382.494 604.186 383.682V388.9H602.842ZM620.763 381.518C619.419 381.518 618.482 382.502 618.38 383.994H623.021C622.99 382.502 622.099 381.518 620.763 381.518ZM622.982 386.721H624.326C623.919 388.166 622.622 389.049 620.779 389.049C618.443 389.049 616.982 387.361 616.982 384.697C616.982 382.049 618.466 380.33 620.779 380.33C623.052 380.33 624.435 381.947 624.435 384.564V385.08H618.38V385.143C618.451 386.807 619.38 387.861 620.81 387.861C621.896 387.861 622.63 387.463 622.982 386.721ZM627.747 378.299H629.091V380.479H630.966V381.604H629.091V386.369C629.091 387.361 629.466 387.783 630.341 387.783C630.583 387.783 630.716 387.775 630.966 387.752V388.885C630.7 388.932 630.442 388.963 630.177 388.963C628.442 388.963 627.747 388.322 627.747 386.713V381.604H626.388V380.479H627.747V378.299ZM634.746 388.979C634.192 388.979 633.731 388.518 633.731 387.963C633.731 387.4 634.192 386.947 634.746 386.947C635.309 386.947 635.762 387.4 635.762 387.963C635.762 388.518 635.309 388.979 634.746 388.979ZM651.682 388.9L650.55 385.674H646.065L644.932 388.9H643.456L647.612 377.627H649.003L653.159 388.9H651.682ZM648.245 379.447L646.479 384.479H650.136L648.37 379.447H648.245ZM655.698 378.299H657.041V380.479H658.916V381.604H657.041V386.369C657.041 387.361 657.416 387.783 658.291 387.783C658.533 387.783 658.666 387.775 658.916 387.752V388.885C658.651 388.932 658.393 388.963 658.127 388.963C656.393 388.963 655.698 388.322 655.698 386.713V381.604H654.338V380.479H655.698V378.299ZM365.266 407.9V399.479H366.547V400.807H366.672C367.094 399.877 367.914 399.33 369.203 399.33C371.094 399.33 372.148 400.447 372.148 402.447V407.9H370.805V402.775C370.805 401.26 370.164 400.541 368.82 400.541C367.477 400.541 366.609 401.439 366.609 402.916V407.9H365.266ZM382.062 399.479V407.9H380.781V406.58H380.656C380.234 407.518 379.335 408.049 378.046 408.049C376.156 408.049 375.171 406.924 375.171 404.932V399.479H376.515V404.604C376.515 406.119 377.078 406.822 378.421 406.822C379.906 406.822 380.718 405.939 380.718 404.463V399.479H382.062ZM385.311 407.9V396.135H386.655V407.9H385.311ZM389.983 407.9V396.135H391.326V407.9H389.983ZM397.169 406.869C398.552 406.869 399.576 405.963 399.576 404.76V403.986L397.31 404.135C396.029 404.221 395.466 404.666 395.466 405.51C395.466 406.369 396.193 406.869 397.169 406.869ZM396.919 408.049C395.287 408.049 394.076 407.08 394.076 405.541C394.076 404.033 395.185 403.166 397.146 403.049L399.576 402.9V402.135C399.576 401.096 398.927 400.525 397.669 400.525C396.662 400.525 395.958 400.908 395.771 401.572H394.412C394.591 400.221 395.919 399.33 397.716 399.33C399.771 399.33 400.919 400.385 400.919 402.135V407.9H399.638V406.658H399.513C398.966 407.557 398.044 408.049 396.919 408.049ZM416.074 399.479L412.957 407.9H411.582L408.465 399.479H409.903L412.207 406.416H412.332L414.637 399.479H416.074ZM421.558 400.518C420.214 400.518 419.277 401.502 419.175 402.994H423.816C423.785 401.502 422.894 400.518 421.558 400.518ZM423.777 405.721H425.121C424.714 407.166 423.417 408.049 421.574 408.049C419.238 408.049 417.777 406.361 417.777 403.697C417.777 401.049 419.261 399.33 421.574 399.33C423.847 399.33 425.23 400.947 425.23 403.564V404.08H419.175V404.143C419.246 405.807 420.175 406.861 421.605 406.861C422.691 406.861 423.425 406.463 423.777 405.721ZM427.979 407.9V399.479H429.261V400.807H429.386C429.807 399.877 430.628 399.33 431.917 399.33C433.807 399.33 434.862 400.447 434.862 402.447V407.9H433.518V402.775C433.518 401.26 432.878 400.541 431.534 400.541C430.19 400.541 429.323 401.439 429.323 402.916V407.9H427.979ZM441.323 400.518C439.979 400.518 439.041 401.502 438.94 402.994H443.58C443.549 401.502 442.658 400.518 441.323 400.518ZM443.541 405.721H444.885C444.479 407.166 443.182 408.049 441.338 408.049C439.002 408.049 437.541 406.361 437.541 403.697C437.541 401.049 439.026 399.33 441.338 399.33C443.612 399.33 444.994 400.947 444.994 403.564V404.08H438.94V404.143C439.01 405.807 439.94 406.861 441.369 406.861C442.455 406.861 443.19 406.463 443.541 405.721ZM447.744 407.9V399.479H449.025V400.807H449.15C449.572 399.877 450.392 399.33 451.681 399.33C453.572 399.33 454.627 400.447 454.627 402.447V407.9H453.283V402.775C453.283 401.26 452.642 400.541 451.298 400.541C449.955 400.541 449.088 401.439 449.088 402.916V407.9H447.744ZM460.321 406.869C461.704 406.869 462.728 405.963 462.728 404.76V403.986L460.462 404.135C459.181 404.221 458.618 404.666 458.618 405.51C458.618 406.369 459.345 406.869 460.321 406.869ZM460.071 408.049C458.438 408.049 457.228 407.08 457.228 405.541C457.228 404.033 458.337 403.166 460.298 403.049L462.728 402.9V402.135C462.728 401.096 462.079 400.525 460.821 400.525C459.813 400.525 459.11 400.908 458.923 401.572H457.563C457.743 400.221 459.071 399.33 460.868 399.33C462.923 399.33 464.071 400.385 464.071 402.135V407.9H462.79V406.658H462.665C462.118 407.557 461.196 408.049 460.071 408.049ZM467.758 397.299H469.102V399.479H470.977V400.604H469.102V405.369C469.102 406.361 469.477 406.783 470.352 406.783C470.594 406.783 470.727 406.775 470.977 406.752V407.885C470.711 407.932 470.453 407.963 470.188 407.963C468.453 407.963 467.758 407.322 467.758 405.713V400.604H466.399V399.479H467.758V397.299ZM473.679 407.9V399.479H475.023V407.9H473.679ZM474.351 397.768C473.836 397.768 473.414 397.346 473.414 396.83C473.414 396.314 473.836 395.893 474.351 395.893C474.867 395.893 475.289 396.314 475.289 396.83C475.289 397.346 474.867 397.768 474.351 397.768ZM478.03 401.783C478.03 400.385 479.382 399.33 481.171 399.33C482.937 399.33 484.163 400.205 484.343 401.588H483.015C482.835 400.916 482.179 400.471 481.163 400.471C480.163 400.471 479.382 400.979 479.382 401.729C479.382 402.307 479.851 402.666 480.843 402.908L482.14 403.221C483.726 403.604 484.491 404.291 484.491 405.502C484.491 407.01 483.03 408.049 481.116 408.049C479.241 408.049 477.952 407.15 477.804 405.752H479.187C479.413 406.463 480.085 406.916 481.163 406.916C482.296 406.916 483.108 406.377 483.108 405.604C483.108 405.025 482.671 404.635 481.772 404.416L480.327 404.064C478.749 403.682 478.03 403.002 478.03 401.783ZM492.959 397.299H494.302V399.479H496.177V400.604H494.302V405.369C494.302 406.361 494.677 406.783 495.552 406.783C495.795 406.783 495.927 406.775 496.177 406.752V407.885C495.912 407.932 495.654 407.963 495.388 407.963C493.654 407.963 492.959 407.322 492.959 405.713V400.604H491.599V399.479H492.959V397.299ZM498.88 407.9V399.479H500.224V407.9H498.88ZM499.552 397.768C499.036 397.768 498.614 397.346 498.614 396.83C498.614 396.314 499.036 395.893 499.552 395.893C500.068 395.893 500.489 396.314 500.489 396.83C500.489 397.346 500.068 397.768 499.552 397.768ZM503.426 407.9V399.479H504.708V400.807H504.833C505.254 399.877 506.075 399.33 507.364 399.33C509.254 399.33 510.309 400.447 510.309 402.447V407.9H508.965V402.775C508.965 401.26 508.325 400.541 506.981 400.541C505.637 400.541 504.77 401.439 504.77 402.916V407.9H503.426ZM520.379 402.057H519.019C518.801 401.221 518.058 400.541 516.848 400.541C515.332 400.541 514.379 401.752 514.379 403.658C514.379 405.604 515.348 406.838 516.848 406.838C517.98 406.838 518.769 406.314 519.019 405.361H520.379C520.137 406.908 518.879 408.049 516.855 408.049C514.496 408.049 512.988 406.338 512.988 403.658C512.988 401.033 514.488 399.33 516.848 399.33C518.894 399.33 520.144 400.557 520.379 402.057ZM523.034 407.9V399.479H524.378V407.9H523.034ZM523.706 397.768C523.191 397.768 522.769 397.346 522.769 396.83C522.769 396.314 523.191 395.893 523.706 395.893C524.222 395.893 524.644 396.314 524.644 396.83C524.644 397.346 524.222 397.768 523.706 397.768ZM530.698 408.049C528.542 408.049 527.159 406.338 527.159 403.689C527.159 401.049 528.557 399.33 530.698 399.33C531.87 399.33 532.862 399.885 533.338 400.807H533.456V396.135H534.799V407.9H533.518V406.557H533.393C532.862 407.494 531.862 408.049 530.698 408.049ZM531.01 400.541C529.479 400.541 528.549 401.729 528.549 403.689C528.549 405.658 529.471 406.838 531.01 406.838C532.542 406.838 533.487 405.635 533.487 403.689C533.487 401.76 532.534 400.541 531.01 400.541ZM544.861 399.479V407.9H543.58V406.58H543.455C543.033 407.518 542.135 408.049 540.846 408.049C538.955 408.049 537.971 406.924 537.971 404.932V399.479H539.314V404.604C539.314 406.119 539.877 406.822 541.221 406.822C542.705 406.822 543.518 405.939 543.518 404.463V399.479H544.861ZM548.033 407.9V399.479H549.314V400.807H549.439C549.861 399.877 550.681 399.33 551.97 399.33C553.861 399.33 554.915 400.447 554.915 402.447V407.9H553.572V402.775C553.572 401.26 552.931 400.541 551.587 400.541C550.243 400.541 549.376 401.439 549.376 402.916V407.9H548.033ZM558.579 397.299H559.923V399.479H561.798V400.604H559.923V405.369C559.923 406.361 560.298 406.783 561.173 406.783C561.415 406.783 561.548 406.775 561.798 406.752V407.885C561.532 407.932 561.274 407.963 561.008 407.963C559.274 407.963 558.579 407.322 558.579 405.713V400.604H557.219V399.479H558.579V397.299ZM569.624 407.9V399.479H570.906V400.807H571.031C571.413 399.869 572.257 399.33 573.382 399.33C574.523 399.33 575.32 399.932 575.71 400.807H575.835C576.288 399.916 577.249 399.33 578.413 399.33C580.132 399.33 581.093 400.314 581.093 402.08V407.9H579.749V402.393C579.749 401.15 579.163 400.541 577.976 400.541C576.804 400.541 576.023 401.416 576.023 402.486V407.9H574.679V402.182C574.679 401.182 573.984 400.541 572.921 400.541C571.82 400.541 570.968 401.494 570.968 402.682V407.9H569.624ZM586.78 406.869C588.163 406.869 589.186 405.963 589.186 404.76V403.986L586.921 404.135C585.639 404.221 585.077 404.666 585.077 405.51C585.077 406.369 585.803 406.869 586.78 406.869ZM586.53 408.049C584.897 408.049 583.686 407.08 583.686 405.541C583.686 404.033 584.796 403.166 586.757 403.049L589.186 402.9V402.135C589.186 401.096 588.538 400.525 587.28 400.525C586.272 400.525 585.569 400.908 585.382 401.572H584.022C584.202 400.221 585.53 399.33 587.327 399.33C589.382 399.33 590.53 400.385 590.53 402.135V407.9H589.249V406.658H589.124C588.577 407.557 587.655 408.049 586.53 408.049ZM593.459 401.783C593.459 400.385 594.811 399.33 596.6 399.33C598.365 399.33 599.592 400.205 599.772 401.588H598.443C598.264 400.916 597.607 400.471 596.592 400.471C595.592 400.471 594.811 400.979 594.811 401.729C594.811 402.307 595.279 402.666 596.272 402.908L597.568 403.221C599.154 403.604 599.92 404.291 599.92 405.502C599.92 407.01 598.459 408.049 596.545 408.049C594.67 408.049 593.381 407.15 593.232 405.752H594.615C594.842 406.463 595.514 406.916 596.592 406.916C597.725 406.916 598.537 406.377 598.537 405.604C598.537 405.025 598.1 404.635 597.201 404.416L595.756 404.064C594.178 403.682 593.459 403.002 593.459 401.783ZM602.318 401.783C602.318 400.385 603.669 399.33 605.458 399.33C607.224 399.33 608.451 400.205 608.63 401.588H607.302C607.122 400.916 606.466 400.471 605.451 400.471C604.451 400.471 603.669 400.979 603.669 401.729C603.669 402.307 604.138 402.666 605.13 402.908L606.427 403.221C608.013 403.604 608.779 404.291 608.779 405.502C608.779 407.01 607.318 408.049 605.404 408.049C603.529 408.049 602.24 407.15 602.091 405.752H603.474C603.701 406.463 604.372 406.916 605.451 406.916C606.583 406.916 607.396 406.377 607.396 405.604C607.396 405.025 606.958 404.635 606.06 404.416L604.615 404.064C603.037 403.682 602.318 403.002 602.318 401.783ZM614.122 406.869C615.505 406.869 616.528 405.963 616.528 404.76V403.986L614.262 404.135C612.981 404.221 612.419 404.666 612.419 405.51C612.419 406.369 613.145 406.869 614.122 406.869ZM613.872 408.049C612.239 408.049 611.028 407.08 611.028 405.541C611.028 404.033 612.137 403.166 614.098 403.049L616.528 402.9V402.135C616.528 401.096 615.88 400.525 614.622 400.525C613.614 400.525 612.911 400.908 612.723 401.572H611.364C611.544 400.221 612.872 399.33 614.669 399.33C616.723 399.33 617.872 400.385 617.872 402.135V407.9H616.591V406.658H616.466C615.919 407.557 614.997 408.049 613.872 408.049ZM367.859 425.869C369.242 425.869 370.266 424.963 370.266 423.76V422.986L368 423.135C366.719 423.221 366.156 423.666 366.156 424.51C366.156 425.369 366.883 425.869 367.859 425.869ZM367.609 427.049C365.977 427.049 364.766 426.08 364.766 424.541C364.766 423.033 365.875 422.166 367.836 422.049L370.266 421.9V421.135C370.266 420.096 369.617 419.525 368.359 419.525C367.352 419.525 366.648 419.908 366.461 420.572H365.102C365.281 419.221 366.609 418.33 368.406 418.33C370.461 418.33 371.609 419.385 371.609 421.135V426.9H370.328V425.658H370.203C369.656 426.557 368.734 427.049 367.609 427.049ZM381.546 418.479V426.9H380.265V425.58H380.14C379.718 426.518 378.82 427.049 377.531 427.049C375.64 427.049 374.656 425.924 374.656 423.932V418.479H375.999V423.604C375.999 425.119 376.562 425.822 377.906 425.822C379.39 425.822 380.203 424.939 380.203 423.463V418.479H381.546ZM391.686 421.057H390.327C390.108 420.221 389.366 419.541 388.155 419.541C386.639 419.541 385.686 420.752 385.686 422.658C385.686 424.604 386.655 425.838 388.155 425.838C389.288 425.838 390.077 425.314 390.327 424.361H391.686C391.444 425.908 390.186 427.049 388.163 427.049C385.803 427.049 384.296 425.338 384.296 422.658C384.296 420.033 385.796 418.33 388.155 418.33C390.202 418.33 391.452 419.557 391.686 421.057ZM395.029 416.299H396.373V418.479H398.248V419.604H396.373V424.369C396.373 425.361 396.748 425.783 397.623 425.783C397.865 425.783 397.998 425.775 398.248 425.752V426.885C397.983 426.932 397.725 426.963 397.459 426.963C395.725 426.963 395.029 426.322 395.029 424.713V419.604H393.67V418.479H395.029V416.299ZM404.255 427.049C401.857 427.049 400.373 425.393 400.373 422.689C400.373 419.979 401.857 418.33 404.255 418.33C406.654 418.33 408.138 419.979 408.138 422.689C408.138 425.393 406.654 427.049 404.255 427.049ZM404.255 425.838C405.849 425.838 406.748 424.682 406.748 422.689C406.748 420.689 405.849 419.541 404.255 419.541C402.662 419.541 401.763 420.689 401.763 422.689C401.763 424.682 402.662 425.838 404.255 425.838ZM410.888 426.9V418.479H412.169V419.729H412.294C412.544 418.908 413.513 418.33 414.63 418.33C414.848 418.33 415.13 418.346 415.302 418.369V419.713C415.192 419.682 414.708 419.635 414.442 419.635C413.161 419.635 412.231 420.494 412.231 421.682V426.9H410.888ZM426.136 419.518C424.792 419.518 423.855 420.502 423.753 421.994H428.394C428.363 420.502 427.472 419.518 426.136 419.518ZM428.355 424.721H429.699C429.292 426.166 427.996 427.049 426.152 427.049C423.816 427.049 422.355 425.361 422.355 422.697C422.355 420.049 423.839 418.33 426.152 418.33C428.425 418.33 429.808 419.947 429.808 422.564V423.08H423.753V423.143C423.824 424.807 424.753 425.861 426.183 425.861C427.269 425.861 428.003 425.463 428.355 424.721ZM432.636 426.9V415.135H433.979V426.9H432.636ZM440.588 419.518C439.244 419.518 438.307 420.502 438.205 421.994H442.846C442.815 420.502 441.924 419.518 440.588 419.518ZM442.807 424.721H444.151C443.744 426.166 442.448 427.049 440.604 427.049C438.268 427.049 436.807 425.361 436.807 422.697C436.807 420.049 438.291 418.33 440.604 418.33C442.877 418.33 444.26 419.947 444.26 422.564V423.08H438.205V423.143C438.276 424.807 439.205 425.861 440.635 425.861C441.721 425.861 442.455 425.463 442.807 424.721ZM447.009 426.9V418.479H448.291V419.807H448.416C448.798 418.869 449.642 418.33 450.767 418.33C451.908 418.33 452.705 418.932 453.095 419.807H453.22C453.673 418.916 454.634 418.33 455.798 418.33C457.517 418.33 458.478 419.314 458.478 421.08V426.9H457.134V421.393C457.134 420.15 456.548 419.541 455.361 419.541C454.189 419.541 453.408 420.416 453.408 421.486V426.9H452.064V421.182C452.064 420.182 451.369 419.541 450.306 419.541C449.205 419.541 448.353 420.494 448.353 421.682V426.9H447.009ZM464.931 419.518C463.587 419.518 462.649 420.502 462.548 421.994H467.188C467.157 420.502 466.267 419.518 464.931 419.518ZM467.149 424.721H468.493C468.087 426.166 466.79 427.049 464.946 427.049C462.61 427.049 461.149 425.361 461.149 422.697C461.149 420.049 462.634 418.33 464.946 418.33C467.22 418.33 468.603 419.947 468.603 422.564V423.08H462.548V423.143C462.618 424.807 463.548 425.861 464.978 425.861C466.063 425.861 466.798 425.463 467.149 424.721ZM471.352 426.9V418.479H472.633V419.807H472.758C473.18 418.877 474 418.33 475.289 418.33C477.18 418.33 478.235 419.447 478.235 421.447V426.9H476.891V421.775C476.891 420.26 476.25 419.541 474.907 419.541C473.563 419.541 472.696 420.439 472.696 421.916V426.9H471.352ZM481.898 416.299H483.242V418.479H485.117V419.604H483.242V424.369C483.242 425.361 483.617 425.783 484.492 425.783C484.734 425.783 484.867 425.775 485.117 425.752V426.885C484.851 426.932 484.593 426.963 484.328 426.963C482.593 426.963 481.898 426.322 481.898 424.713V419.604H480.539V418.479H481.898V416.299ZM494.601 418.479V426.9H493.319V425.58H493.194C492.772 426.518 491.874 427.049 490.585 427.049C488.694 427.049 487.71 425.924 487.71 423.932V418.479H489.054V423.604C489.054 425.119 489.616 425.822 490.96 425.822C492.444 425.822 493.257 424.939 493.257 423.463V418.479H494.601ZM497.772 426.9V418.479H499.053V419.807H499.178C499.561 418.869 500.405 418.33 501.53 418.33C502.67 418.33 503.467 418.932 503.858 419.807H503.983C504.436 418.916 505.397 418.33 506.561 418.33C508.28 418.33 509.241 419.314 509.241 421.08V426.9H507.897V421.393C507.897 420.15 507.311 419.541 506.123 419.541C504.952 419.541 504.17 420.416 504.17 421.486V426.9H502.827V421.182C502.827 420.182 502.131 419.541 501.069 419.541C499.967 419.541 499.116 420.494 499.116 421.682V426.9H497.772ZM517.568 426.9V415.135H518.911V426.9H517.568ZM525.52 419.518C524.176 419.518 523.239 420.502 523.137 421.994H527.778C527.747 420.502 526.856 419.518 525.52 419.518ZM527.739 424.721H529.083C528.676 426.166 527.379 427.049 525.536 427.049C523.2 427.049 521.739 425.361 521.739 422.697C521.739 420.049 523.223 418.33 525.536 418.33C527.809 418.33 529.192 419.947 529.192 422.564V423.08H523.137V423.143C523.208 424.807 524.137 425.861 525.567 425.861C526.653 425.861 527.387 425.463 527.739 424.721ZM538.91 421.057H537.551C537.332 420.221 536.59 419.541 535.379 419.541C533.863 419.541 532.91 420.752 532.91 422.658C532.91 424.604 533.879 425.838 535.379 425.838C536.512 425.838 537.301 425.314 537.551 424.361H538.91C538.668 425.908 537.41 427.049 535.387 427.049C533.027 427.049 531.519 425.338 531.519 422.658C531.519 420.033 533.019 418.33 535.379 418.33C537.426 418.33 538.676 419.557 538.91 421.057ZM542.253 416.299H543.597V418.479H545.472V419.604H543.597V424.369C543.597 425.361 543.972 425.783 544.847 425.783C545.089 425.783 545.222 425.775 545.472 425.752V426.885C545.206 426.932 544.948 426.963 544.683 426.963C542.948 426.963 542.253 426.322 542.253 424.713V419.604H540.894V418.479H542.253V416.299ZM554.956 418.479V426.9H553.674V425.58H553.549C553.128 426.518 552.229 427.049 550.94 427.049C549.049 427.049 548.065 425.924 548.065 423.932V418.479H549.409V423.604C549.409 425.119 549.971 425.822 551.315 425.822C552.799 425.822 553.612 424.939 553.612 423.463V418.479H554.956ZM557.932 420.783C557.932 419.385 559.283 418.33 561.072 418.33C562.838 418.33 564.064 419.205 564.244 420.588H562.916C562.736 419.916 562.08 419.471 561.064 419.471C560.064 419.471 559.283 419.979 559.283 420.729C559.283 421.307 559.752 421.666 560.744 421.908L562.041 422.221C563.627 422.604 564.393 423.291 564.393 424.502C564.393 426.01 562.932 427.049 561.018 427.049C559.143 427.049 557.853 426.15 557.705 424.752H559.088C559.314 425.463 559.986 425.916 561.064 425.916C562.197 425.916 563.01 425.377 563.01 424.604C563.01 424.025 562.572 423.635 561.674 423.416L560.228 423.064C558.65 422.682 557.932 422.002 557.932 420.783ZM574.891 425.869C576.274 425.869 577.298 424.963 577.298 423.76V422.986L575.032 423.135C573.751 423.221 573.188 423.666 573.188 424.51C573.188 425.369 573.915 425.869 574.891 425.869ZM574.641 427.049C573.008 427.049 571.798 426.08 571.798 424.541C571.798 423.033 572.907 422.166 574.868 422.049L577.298 421.9V421.135C577.298 420.096 576.649 419.525 575.391 419.525C574.383 419.525 573.68 419.908 573.493 420.572H572.133C572.313 419.221 573.641 418.33 575.438 418.33C577.493 418.33 578.641 419.385 578.641 421.135V426.9H577.36V425.658H577.235C576.688 426.557 575.766 427.049 574.641 427.049ZM582.328 416.299H583.672V418.479H585.547V419.604H583.672V424.369C583.672 425.361 584.047 425.783 584.922 425.783C585.164 425.783 585.297 425.775 585.547 425.752V426.885C585.281 426.932 585.023 426.963 584.758 426.963C583.023 426.963 582.328 426.322 582.328 424.713V419.604H580.969V418.479H582.328V416.299ZM595.967 425.869C597.35 425.869 598.374 424.963 598.374 423.76V422.986L596.108 423.135C594.827 423.221 594.264 423.666 594.264 424.51C594.264 425.369 594.991 425.869 595.967 425.869ZM595.717 427.049C594.085 427.049 592.874 426.08 592.874 424.541C592.874 423.033 593.983 422.166 595.944 422.049L598.374 421.9V421.135C598.374 420.096 597.725 419.525 596.467 419.525C595.46 419.525 594.757 419.908 594.569 420.572H593.21C593.389 419.221 594.717 418.33 596.514 418.33C598.569 418.33 599.717 419.385 599.717 421.135V426.9H598.436V425.658H598.311C597.764 426.557 596.842 427.049 595.717 427.049ZM602.842 426.9V418.479H604.123V419.807H604.248C604.631 418.869 605.475 418.33 606.6 418.33C607.74 418.33 608.537 418.932 608.928 419.807H609.053C609.506 418.916 610.467 418.33 611.631 418.33C613.35 418.33 614.311 419.314 614.311 421.08V426.9H612.967V421.393C612.967 420.15 612.381 419.541 611.193 419.541C610.022 419.541 609.24 420.416 609.24 421.486V426.9H607.897V421.182C607.897 420.182 607.201 419.541 606.139 419.541C605.037 419.541 604.186 420.494 604.186 421.682V426.9H602.842ZM620.763 419.518C619.419 419.518 618.482 420.502 618.38 421.994H623.021C622.99 420.502 622.099 419.518 620.763 419.518ZM622.982 424.721H624.326C623.919 426.166 622.622 427.049 620.779 427.049C618.443 427.049 616.982 425.361 616.982 422.697C616.982 420.049 618.466 418.33 620.779 418.33C623.052 418.33 624.435 419.947 624.435 422.564V423.08H618.38V423.143C618.451 424.807 619.38 425.861 620.81 425.861C621.896 425.861 622.63 425.463 622.982 424.721ZM627.747 416.299H629.091V418.479H630.966V419.604H629.091V424.369C629.091 425.361 629.466 425.783 630.341 425.783C630.583 425.783 630.716 425.775 630.966 425.752V426.885C630.7 426.932 630.442 426.963 630.177 426.963C628.442 426.963 627.747 426.322 627.747 424.713V419.604H626.388V418.479H627.747V416.299ZM634.746 426.979C634.192 426.979 633.731 426.518 633.731 425.963C633.731 425.4 634.192 424.947 634.746 424.947C635.309 424.947 635.762 425.4 635.762 425.963C635.762 426.518 635.309 426.979 634.746 426.979Z" fill="#1C395C"/>
</svg>
