<svg width="120" height="28" viewBox="0 0 120 28" fill="none" xmlns="http://www.w3.org/2000/svg">
<path d="M0 15.2278H22.9138V22.984H0.0475699V28H27.8692V10.1444H4.90783V5.00855H27.8692V0H0V15.2278Z" fill="white"/>
<path d="M31.4609 28H36.3766V22.9091H59.33V0H31.4609V28ZM36.3687 5.00855H54.3667V17.938H36.3687V5.00855Z" fill="white"/>
<path d="M76.2101 23.2684L71.2071 27.9999H90.331V22.9839H76.5034L76.2101 23.2684Z" fill="white"/>
<path d="M67.3776 16.4332V5.00855H90.331V0H62.4698V21.0674L64.777 18.8888L67.3776 16.4332Z" fill="white"/>
<path d="M67.3773 21.2246L67.3063 21.292L67.3773 21.2246Z" fill="white"/>
<path d="M105.546 13.1166H109.066V0.0224609H94.6759V3.35402H102.565L90.9415 14.3294H74.6798L74.4499 14.5465L67.3776 21.2246L67.3142 21.2845L62.4697 25.8588L60.226 27.9775H62.4697H66.1486L71.4291 22.984L76.4162 18.2824H92.6779L92.9078 18.0652L93.7641 17.2492L105.546 6.13155V13.1166Z" fill="#40DDDD"/>
<path d="M99.3221 20.2365C98.9891 20.2365 98.6482 20.1242 98.4341 19.9595L98.2597 20.3264C98.4817 20.5061 98.9019 20.6333 99.3221 20.6333C100.06 20.6333 100.408 20.2815 100.408 19.8772C100.408 18.9414 98.8068 19.2932 98.8068 18.7542C98.8068 18.5596 98.9733 18.4098 99.3935 18.4098C99.6314 18.4098 99.893 18.4772 100.139 18.612L100.297 18.2451C100.059 18.1029 99.7265 18.0205 99.4014 18.0205C98.6641 18.0205 98.3152 18.3724 98.3152 18.7767C98.3152 19.72 99.9168 19.3606 99.9168 19.9072C99.9168 20.0943 99.7424 20.2365 99.3221 20.2365Z" fill="white"/>
<path d="M103.223 20.2058L102.898 19.9138C102.7 20.116 102.462 20.2133 102.176 20.2133C101.621 20.2133 101.217 19.839 101.217 19.3149C101.217 18.7908 101.621 18.424 102.176 18.424C102.454 18.424 102.7 18.5213 102.898 18.7234L103.223 18.439C102.969 18.1619 102.597 18.0122 102.153 18.0122C101.328 18.0122 100.71 18.5587 100.71 19.3224C100.71 20.086 101.328 20.6325 102.153 20.6325C102.597 20.625 102.977 20.4828 103.223 20.2058Z" fill="white"/>
<path d="M104.206 18.0503H103.707V20.5957H104.206V18.0503Z" fill="white"/>
<path d="M106.902 18.4471V18.0503H104.928V20.5957H106.949V20.199H105.435V19.4952H106.735V19.1059H105.435V18.4471H106.902Z" fill="white"/>
<path d="M107.512 18.0503V20.5957H108.004V18.8663L109.494 20.5957H109.907V18.0503H109.407V19.7722L107.917 18.0503H107.512Z" fill="white"/>
<path d="M111.873 20.6251C112.317 20.6251 112.69 20.4753 112.943 20.1983L112.618 19.9063C112.42 20.1085 112.182 20.2058 111.897 20.2058C111.342 20.2058 110.938 19.839 110.938 19.3149C110.938 18.7908 111.342 18.424 111.897 18.424C112.174 18.424 112.42 18.5213 112.618 18.7234L112.943 18.439C112.69 18.1619 112.317 18.0122 111.873 18.0122C111.049 18.0122 110.43 18.5587 110.43 19.3224C110.43 20.0785 111.049 20.6251 111.873 20.6251Z" fill="white"/>
<path d="M115.441 20.199H113.927V19.4952H115.227V19.1059H113.927V18.4471H115.393V18.0503H113.419V20.5957H115.441V20.199Z" fill="white"/>
<path d="M98.4895 21.5615V24.107H98.989V23.3733H99.5995C100.305 23.3733 100.749 23.0289 100.749 22.4674C100.749 21.9059 100.313 21.5615 99.5995 21.5615H98.4895ZM100.242 22.4674C100.242 22.7893 100.012 22.9765 99.5757 22.9765H98.989V21.9658H99.5757C100.012 21.9583 100.242 22.1455 100.242 22.4674Z" fill="white"/>
<path d="M103.5 22.4674C103.5 21.9059 103.064 21.5615 102.351 21.5615H101.241V24.107H101.74V23.3658H102.351C102.383 23.3658 102.422 23.3658 102.454 23.3583L103.001 24.0995H103.54L102.922 23.261C103.286 23.1337 103.5 22.8492 103.5 22.4674ZM102.327 22.9765H101.74V21.9658H102.327C102.763 21.9658 102.993 22.153 102.993 22.4674C102.993 22.7893 102.763 22.9765 102.327 22.9765Z" fill="white"/>
<path d="M105.316 21.5244C104.484 21.5244 103.865 22.0784 103.865 22.8346C103.865 23.5832 104.484 24.1447 105.316 24.1447C106.149 24.1447 106.767 23.5907 106.767 22.8346C106.767 22.0784 106.149 21.5244 105.316 21.5244ZM105.316 23.7255C104.769 23.7255 104.365 23.3512 104.365 22.8346C104.365 22.3105 104.769 21.9362 105.316 21.9362C105.855 21.9362 106.26 22.3105 106.26 22.8346C106.26 23.3512 105.855 23.7255 105.316 23.7255Z" fill="white"/>
<path d="M108.583 21.9362C108.868 21.9362 109.114 22.026 109.328 22.2282L109.645 21.9362C109.391 21.6667 109.011 21.5244 108.567 21.5244C107.726 21.5244 107.108 22.0709 107.108 22.8346C107.108 23.5982 107.726 24.1447 108.559 24.1447C108.94 24.1447 109.336 24.0399 109.613 23.8228V22.8121H109.138V23.6057C108.963 23.703 108.773 23.733 108.583 23.733C108.012 23.733 107.607 23.3512 107.607 22.8346C107.607 22.303 108.012 21.9362 108.583 21.9362Z" fill="white"/>
<path d="M112.563 24.107L111.944 23.2685C112.309 23.1337 112.515 22.8492 112.515 22.4674C112.515 21.9059 112.079 21.5615 111.366 21.5615H110.256V24.107H110.755V23.3658H111.366C111.397 23.3658 111.437 23.3658 111.469 23.3583L112.024 24.0995H112.563V24.107ZM111.35 22.9765H110.763V21.9658H111.35C111.786 21.9658 112.016 22.153 112.016 22.4674C112.016 22.7893 111.786 22.9765 111.35 22.9765Z" fill="white"/>
<path d="M113.578 23.0064H114.878V22.6171H113.578V21.9583H115.045V21.5615H113.078V24.107H115.1V23.7102H113.578V23.0064Z" fill="white"/>
<path d="M115.98 22.2649C115.98 22.0703 116.147 21.9205 116.567 21.9205C116.805 21.9205 117.066 21.9879 117.312 22.1227L117.471 21.7558C117.233 21.6136 116.9 21.5312 116.575 21.5312C115.837 21.5312 115.489 21.8831 115.489 22.2949C115.489 23.2382 117.09 22.8788 117.09 23.4254C117.09 23.6125 116.916 23.7548 116.496 23.7548C116.163 23.7548 115.822 23.6425 115.607 23.4778L115.433 23.8446C115.655 24.0243 116.075 24.1516 116.496 24.1516C117.233 24.1516 117.582 23.7997 117.582 23.3954C117.582 22.4521 115.98 22.804 115.98 22.2649Z" fill="white"/>
<path d="M118.398 22.2649C118.398 22.0703 118.565 21.9205 118.985 21.9205C119.223 21.9205 119.485 21.9879 119.73 22.1227L119.889 21.7558C119.651 21.6136 119.318 21.5312 118.993 21.5312C118.256 21.5312 117.907 21.8831 117.907 22.2949C117.907 23.2382 119.508 22.8788 119.508 23.4254C119.508 23.6125 119.334 23.7548 118.914 23.7548C118.581 23.7548 118.24 23.6425 118.026 23.4778L117.851 23.8446C118.073 24.0243 118.494 24.1516 118.914 24.1516C119.651 24.1516 120 23.7997 120 23.3954C120 22.4521 118.398 22.804 118.398 22.2649Z" fill="white"/>
<path d="M99.7581 25.4552C100.036 25.4552 100.281 25.5526 100.48 25.7547L100.805 25.4702C100.551 25.1932 100.178 25.0435 99.7343 25.0435C98.9098 25.0435 98.2913 25.59 98.2913 26.3536C98.2913 27.1173 98.9098 27.6638 99.7343 27.6638C100.178 27.6638 100.551 27.514 100.805 27.237L100.48 26.9451C100.281 27.1472 100.044 27.2445 99.7581 27.2445C99.2031 27.2445 98.7988 26.8702 98.7988 26.3461C98.7988 25.8221 99.2031 25.4552 99.7581 25.4552Z" fill="white"/>
<path d="M101.788 26.5177H103.088V26.1284H101.788V25.4695H103.255V25.0728H101.28V27.6182H103.302V27.2214H101.788V26.5177Z" fill="white"/>
<path d="M105.76 26.7947L104.277 25.0728H103.865V27.6182H104.357V25.8963L105.847 27.6182H106.26V25.0728H105.76V26.7947Z" fill="white"/>
<path d="M106.632 25.477H107.528V27.6182H108.028V25.477H108.916V25.0728H106.632V25.477Z" fill="white"/>
<path d="M113.942 25.9786C113.942 25.4171 113.506 25.0728 112.793 25.0728H111.683V27.6182H112.182V26.877H112.793C112.825 26.877 112.864 26.877 112.896 26.8695L113.443 27.6107H113.982L113.364 26.7722C113.736 26.6449 113.942 26.3604 113.942 25.9786ZM112.777 26.4877H112.19V25.477H112.777C113.213 25.477 113.443 25.6642 113.443 25.9786C113.443 26.2931 113.213 26.4877 112.777 26.4877Z" fill="white"/>
<path d="M109.756 26.5177H111.057V26.1284H109.756V25.4695H111.223V25.0728H109.257V27.6182H111.271V27.2214H109.756V26.5177Z" fill="white"/>
</svg>
