<svg width="16" height="16" viewBox="0 0 16 16" fill="none" xmlns="http://www.w3.org/2000/svg">
<path d="M14.8431 1.61852C14.6533 1.46061 14.4242 1.35712 14.1802 1.31906C13.9363 1.281 13.6866 1.30979 13.4577 1.40238L1.5104 6.22595C1.2549 6.33107 1.03741 6.51141 0.886799 6.74302C0.736188 6.97464 0.659578 7.24659 0.667136 7.52277C0.674694 7.79894 0.766064 8.06629 0.929118 8.28932C1.09217 8.51236 1.3192 8.68053 1.58007 8.77152L3.99673 9.61201L5.34373 14.0664C5.36204 14.1259 5.3886 14.1826 5.42265 14.2347C5.42782 14.2427 5.43511 14.2487 5.4406 14.2564C5.47994 14.3113 5.52748 14.3598 5.58155 14.4003C5.59693 14.412 5.61166 14.423 5.6281 14.4334C5.69139 14.4754 5.76148 14.5061 5.83525 14.5241L5.84315 14.5248L5.84762 14.5267C5.89198 14.5357 5.93712 14.5403 5.98239 14.5404C5.98674 14.5404 5.99061 14.5383 5.99492 14.5382C6.06323 14.537 6.13094 14.5253 6.19565 14.5033C6.2107 14.4982 6.2236 14.4896 6.23821 14.4835C6.28646 14.4635 6.33217 14.4378 6.3744 14.4071C6.40821 14.3786 6.44204 14.3501 6.47588 14.3216L8.27732 12.3327L10.9642 14.4141C11.2007 14.5982 11.4919 14.6983 11.7916 14.6986C12.1058 14.6982 12.4102 14.5898 12.6539 14.3916C12.8976 14.1934 13.0658 13.9175 13.1302 13.61L15.3053 2.93233C15.3546 2.692 15.3376 2.4428 15.2562 2.21139C15.1748 1.97997 15.032 1.77504 14.8431 1.61852ZM6.24673 9.82425C6.15429 9.91632 6.0911 10.0336 6.06509 10.1615L5.85875 11.1642L5.33605 9.43545L8.04621 8.02415L6.24673 9.82425ZM11.7812 13.36L8.60611 10.9004C8.47327 10.7978 8.30663 10.7489 8.1394 10.7636C7.97217 10.7784 7.81662 10.8556 7.70376 10.9798L7.12682 11.6166L7.33071 10.6257L12.0527 5.90366C12.1654 5.7911 12.2341 5.6419 12.2463 5.48308C12.2585 5.32425 12.2134 5.16632 12.1192 5.03787C12.025 4.90943 11.8879 4.81897 11.7327 4.78288C11.5776 4.7468 11.4146 4.76747 11.2734 4.84116L4.49657 8.36958L2.01366 7.46097L13.9993 2.66603L11.7812 13.36Z" fill="#1C395C"/>
</svg>
